<svg xmlns="http://www.w3.org/2000/svg" width="1099" height="309" viewBox="0 0 1099 309"><path d="M1072.55 273.92h-70.72V125.28a.95.95 0 0 0-.96-.96h-3.1V120a.95.95 0 0 0-.96-.96h-36.53a.97.97 0 0 0-.96.96v4.32h-2.11V87.24a.97.97 0 0 0-.96-.96h-43.4a.95.95 0 0 0-.96.96v147.73c0 .52.44.96.96.96s.96-.44.96-.96V88.2h41.47v182.18c0 .52.44.96.96.96s.96-.42.96-.94V126.24h42.7v147.68H899.53c.46-.51.85-1.08 1.15-1.72h23.35c.73 0 1.33-.6 1.33-1.33v-3.95c.53-.28.88-.84.88-1.49v-4.63c0-.68-.4-1.26-.96-1.53l-.98-14.35h1.47l.62 6.32c.05.68.62 1.2 1.3 1.2h1.77a1.95 1.95 0 0 0 1.9-1.9v-2.81a4.69 4.69 0 0 0-4.47-4.68c-.08-.02-.16-.05-.24-.05h-2.42v-.23a4.99 4.99 0 0 0-4.97-4.97h-9.6l-4.61-3.2a5.87 5.87 0 0 0-3.38-1.07h-44.8a5.9 5.9 0 0 0-4.21 1.77l-2.45 2.47h-62.26a5.8 5.8 0 0 0-5.8 5.8v12.2h-5.52a4.36 4.36 0 0 1-4.35-4.35v-14.67a6.27 6.27 0 0 0-6.27-6.27h-2.42v-.83a2.6 2.6 0 0 0-2.6-2.6h-1.92v-6.64c0-.81-.65-1.48-1.49-1.48h-.68v-2.71h1.22c.55 0 .96-.44.96-.96v-11.58a.97.97 0 0 0-.96-.96h-19.8a.95.95 0 0 0-.96.96v11.58c0 .52.44.96.96.96h1.22v2.71h-.7c-.81 0-1.48.65-1.48 1.48v6.64h-1.87a2.6 2.6 0 0 0-2.6 2.6v.83h-2.42a6.27 6.27 0 0 0-6.27 6.27v15.51a4.36 4.36 0 0 1-4.35 4.35h-2.95a4.45 4.45 0 0 0-.67-1.51l-5.18-7.39a6.15 6.15 0 0 0-3.11-2.31 7.48 7.48 0 0 0-7.63-12.75l-.86-1.41v-2.49c.52 0 1.04.21 1.43.57l.39.36c.18.18.42.26.65.26.26 0 .52-.1.7-.34a.95.95 0 0 0-.05-1.35l-.36-.36a4.15 4.15 0 0 0-2.76-1.07h-3.17c-.52 0-.96.44-.96.96s.44.96.96.96h1.25v1.54l-11.04-2.63.64-1.88a.94.94 0 0 0-.26-1.02l-1.48-1.3a.95.95 0 0 0-1.35.08.95.95 0 0 0 .08 1.35l1.02.89-2.15 6.36a7.5 7.5 0 0 0-6 13.29c-1.09.27-2.14.67-3.11 1.23l-11.45 6.53c-.6.36-1.27.6-1.98.7l-13.74 2.19a3.3 3.3 0 0 0-2.78 3.25v2.24a2.09 2.09 0 0 0-1.82 2.08v4.68c0 1.17.96 2.11 2.11 2.11h3.17c.19 1.31.75 2.5 1.57 3.46h-86.8v-4.87c3.45-.51 6.12-3.71 6.14-7.6 0-4.24-3.2-7.68-7.1-7.68s-7.1 3.43-7.1 7.68c0 3.89 2.69 7.09 6.14 7.6v4.87h-18.39v-6.85c4.41-.52 7.86-4.59 7.86-9.51 0-5.28-3.95-9.57-8.82-9.57s-8.82 4.29-8.82 9.57c0 4.93 3.44 8.99 7.86 9.51v6.85h-18.42v-4.87c3.47-.51 6.14-3.71 6.14-7.6 0-4.24-3.2-7.68-7.1-7.68s-7.1 3.43-7.1 7.68c0 3.89 2.69 7.09 6.14 7.6v4.87h-24.98v-4.16h12.54c.55 0 .96-.42.96-.96v-32.84a.95.95 0 0 0-.96-.96h-32.18a.95.95 0 0 0-.96.96v32.84c0 .52.44.96.96.96h12.57v4.16h-18.29l-1.09-73.62c.32-.22.61-.48.88-.77l30.36 11.04c.1.03.21.05.31.05.39-.03.76-.26.86-.6l1.04-2.86a.95.95 0 0 0-.47-1.2l-24.64-12.2a.89.89 0 0 0-.68-.05l-3.51.99-2.33-.87a5.14 5.14 0 0 0-3.06-2.85l-5.86-33.15a.97.97 0 0 0-1.12-.78l-2.99.52a.98.98 0 0 0-.78 1.02l1.74 27.45c.03.23.1.47.29.62l2.63 2.55.54 3.03a5.35 5.35 0 0 0-1.29 2.17c-.03.05-.03.1-.05.16a5.1 5.1 0 0 0-.17 1.74l-25.27 21.05c-.21.16-.31.39-.34.65s.05.49.21.7l1.95 2.34c.18.21.44.34.73.34.21 0 .39-.05.52-.16l22.9-15.25c.18-.16.34-.34.39-.57l.91-3.54.23-.19-1.07 72.24h-18.29v-4.16h12.57c.52 0 .96-.42.96-.96v-32.84a.95.95 0 0 0-.96-.96h-32.18a.95.95 0 0 0-.96.96v32.84c0 .52.44.96.96.96h12.54v4.16h-18.2l-1.12-99.73 8.81 24.22c.08.23.26.44.49.55.13.05.29.08.42.08.1 0 .21-.03.31-.05l3.2-1.17c.44-.16.7-.65.6-1.12l-7.26-29.87a.88.88 0 0 0-.39-.57l-3.41-2.32-.95-2.72a5.63 5.63 0 0 0 .22-4.66l24.2-28.81a.95.95 0 0 0-.13-1.35l-2.6-2.19c-.36-.34-.91-.31-1.28.03l-22.24 21.23c-.16.16-.26.39-.29.62l-.31 4.11-2.2 2.64a5.71 5.71 0 0 0-4.61 1.63l-36.25-6.52a.9.9 0 0 0-.73.16.98.98 0 0 0-.39.62l-.6 3.36c-.08.49.21.96.68 1.09l29.5 8.64.26.03c.16 0 .29-.03.42-.05l3.72-1.8 1.91.34a5.9 5.9 0 0 0 2.27 3.05l-1.23 110.52h-18.23v-4.16h12.54c.55 0 .96-.42.96-.96v-32.84a.95.95 0 0 0-.96-.96h-32.18a.97.97 0 0 0-.96.96v32.84c0 .52.44.96.96.96h12.57v4.16h-18.29l-1.09-73.65a5.3 5.3 0 0 0 1.88-2.33h32.27c.55 0 .96-.42.99-.96v-3.04a.96.96 0 0 0-.86-.96l-27.34-3.04c-.26-.03-.47.05-.68.18l-2.97 2.13-2.49-.02a5.25 5.25 0 0 0-3.89-1.6l-16.83-29.16a.98.98 0 0 0-.57-.44 1.03 1.03 0 0 0-.73.1l-2.63 1.53a.96.96 0 0 0-.39 1.22l11.03 25.19c.1.23.29.39.49.49l3.36 1.51 1.53 2.64c-.1.22-.19.44-.26.66-.03.05-.03.1-.05.16a5.17 5.17 0 0 0 .28 3.51l-16.57 28.47a.9.9 0 0 0-.1.73c.05.23.23.44.44.57l2.63 1.53c.18.08.34.13.49.13.29 0 .57-.16.75-.34l13.98-18.98-.9 63.75h-19.64v-4.16h12.54c.52 0 .96-.42.96-.96V235.9a.95.95 0 0 0-.96-.96h-32.18a.95.95 0 0 0-.96.96v32.84c0 .52.44.96.96.96h12.57v4.16h-22.27v-4.87c3.45-.51 6.12-3.71 6.14-7.6 0-4.24-3.2-7.68-7.1-7.68s-7.1 3.43-7.1 7.68c0 3.89 2.69 7.09 6.14 7.6v4.87h-18.42v-6.85c4.42-.52 7.88-4.59 7.86-9.51 0-5.28-3.96-9.57-8.82-9.57s-8.82 4.29-8.82 9.57c0 4.93 3.44 8.99 7.86 9.51v6.85h-18.39v-4.87c3.45-.51 6.12-3.71 6.14-7.6 0-4.24-3.2-7.68-7.1-7.68s-7.1 3.43-7.1 7.68c0 3.89 2.69 7.09 6.14 7.6v4.87h-18.4v-6.85c4.41-.52 7.86-4.59 7.86-9.51 0-5.28-3.96-9.57-8.82-9.57s-8.82 4.29-8.82 9.57c0 4.93 3.44 8.99 7.86 9.51v6.85h-18.42v-4.87c3.45-.51 6.14-3.71 6.14-7.6 0-4.24-3.2-7.68-7.1-7.68s-7.1 3.43-7.1 7.68c0 3.89 2.69 7.09 6.14 7.6v4.87h-18.11l-.05-55.42c0-.36-.18-.7-.49-.86a.95.95 0 0 0-.99.05l-23.36 15.69v-14.88c0-.36-.18-.7-.49-.86a.95.95 0 0 0-.99.05l-23.36 15.69v-14.88c0-.36-.18-.7-.49-.86a.95.95 0 0 0-.99.05l-22.83 15.33-6.83-71.63a.96.96 0 0 0-.96-.86h-13.16a.96.96 0 0 0-.96.86L99.67 273.86H26.23c-.65 0-1.17.62-1.17 1.4s.52 1.41 1.17 1.41h1046.32c.65 0 1.17-.62 1.17-1.41s-.52-1.4-1.17-1.4ZM961.24 120.96h34.6v3.36h-34.6v-3.36Zm-31.79 126.76v2.81h-1.2l-.52-5.39a2.81 2.81 0 0 1 1.72 2.58Zm-373.44 13.74c0-3.17 2.32-5.75 5.18-5.75s5.18 2.58 5.18 5.75c0 2.81-1.81 5.15-4.22 5.65v-2.06l2.5-2.5a.98.98 0 0 0 0-1.35.98.98 0 0 0-1.35 0l-1.14 1.14v-2.47a.97.97 0 0 0-.96-.96.95.95 0 0 0-.96.96v3.3l-1.14-1.14a.93.93 0 0 0-1.35 0 .98.98 0 0 0 0 1.35l2.5 2.5v1.22c-2.4-.5-4.21-2.84-4.21-5.65Zm-22.06-3.93c0-4.22 3.12-7.65 6.92-7.65s6.89 3.43 6.92 7.65c0 3.85-2.61 7.04-5.96 7.57v-3.04l3.28-3.3a.98.98 0 0 0 0-1.35.96.96 0 0 0-1.35 0l-1.93 1.92v-3.82c0-.52-.44-.96-.96-.96s-.96.44-.96.96v4.92l-1.95-1.95a.98.98 0 0 0-1.35 0 .98.98 0 0 0 0 1.35l3.3 3.28v2c-3.37-.52-5.96-3.69-5.96-7.57Zm-18.6 3.93c0-3.17 2.32-5.75 5.18-5.75s5.18 2.58 5.18 5.75c0 2.81-1.81 5.15-4.22 5.65v-2.05l2.5-2.5a.98.98 0 0 0 0-1.35.98.98 0 0 0-1.35 0l-1.15 1.15v-2.47a.97.97 0 0 0-.96-.96.95.95 0 0 0-.96.96v3.31l-1.15-1.15a.93.93 0 0 0-1.35 0 .98.98 0 0 0 0 1.35l2.5 2.5v1.22c-2.4-.5-4.22-2.84-4.22-5.65Zm-213.82 0c0-3.17 2.32-5.75 5.18-5.75s5.18 2.58 5.18 5.75c0 2.81-1.81 5.15-4.21 5.65v-2.06l2.5-2.5a.93.93 0 0 0 0-1.35.98.98 0 0 0-1.35 0l-1.14 1.14v-2.47c0-.52-.44-.96-.96-.96s-.96.44-.96.96v3.3l-1.14-1.14a.92.92 0 0 0-1.35 0 .98.98 0 0 0 0 1.35l2.5 2.5v1.22c-2.4-.5-4.21-2.84-4.21-5.65Zm-22.09-3.93c0-4.22 3.12-7.65 6.92-7.65s6.92 3.43 6.92 7.65c0 3.85-2.59 7.05-5.96 7.57v-3.04l3.3-3.3a.98.98 0 0 0 0-1.35.96.96 0 0 0-1.35 0l-1.95 1.94v-3.84a.97.97 0 0 0-.96-.96.95.95 0 0 0-.96.96v4.91l-1.92-1.94a.98.98 0 0 0-1.35 0 .92.92 0 0 0 0 1.35l3.28 3.28v2c-3.37-.52-5.96-3.69-5.96-7.57Zm-18.58 3.93c0-3.17 2.32-5.75 5.18-5.75s5.18 2.58 5.18 5.75c0 2.81-1.81 5.15-4.21 5.65v-2.06l2.5-2.5a.98.98 0 0 0 0-1.35.98.98 0 0 0-1.35 0l-1.14 1.14v-2.47a.97.97 0 0 0-.96-.96.95.95 0 0 0-.96.96v3.3l-1.14-1.14a.93.93 0 0 0-1.35 0 .98.98 0 0 0 0 1.35l2.5 2.5v1.22c-2.4-.5-4.21-2.84-4.21-5.65Zm-22.06-3.93c0-4.22 3.12-7.65 6.92-7.65s6.89 3.43 6.92 7.65c0 3.85-2.61 7.04-5.96 7.57v-3.04l3.31-3.3c.36-.36.36-.99 0-1.35s-.99-.37-1.35 0l-1.95 1.94v-3.84c0-.52-.44-.96-.96-.96s-.96.44-.96.96v4.92l-1.95-1.95a.98.98 0 0 0-1.35 0 .98.98 0 0 0 0 1.35l3.3 3.28v2c-3.37-.52-5.96-3.69-5.96-7.57Zm-18.6 3.93c0-3.17 2.32-5.75 5.18-5.75s5.18 2.58 5.18 5.75c0 2.81-1.81 5.15-4.21 5.65v-2.06l2.5-2.5a.93.93 0 0 0 0-1.35.98.98 0 0 0-1.35 0l-1.14 1.14v-2.47c0-.52-.44-.96-.96-.96s-.96.44-.96.96v3.3l-1.14-1.14a.93.93 0 0 0-1.35 0 .92.92 0 0 0 0 1.35l2.5 2.5v1.22c-2.4-.5-4.21-2.84-4.21-5.65Zm596.73 9.47a5.08 5.08 0 0 1 4.81-6.71 5.03 5.03 0 0 1 5.05 5.07 4.99 4.99 0 0 1-3.02 4.63h-4.08a5.02 5.02 0 0 1-2.75-2.99Zm-2.1-.68h-3.76v-14.83h30.05v14.86h-12.44a7.02 7.02 0 0 0-6.92-7.99 7.02 7.02 0 0 0-6.94 7.96Zm-19.94-16.73h-4.79v-8.56h4.79v8.56Zm1.9 1.05.03-.11v-9.52h5.2v25.32h-5.23v-15.68Zm7.15 15.68v-25.32h5.2v25.32h-5.2Zm21.21-16.73h-14.08v-8.56h14.08v8.56Zm30.26-8.59v9.52l.03.12v15.69h-5.23v-25.34h5.2Zm16.57 8.59h-14.65v-8.56h14.65v8.56Zm.96 1.9h32.16v14.86h-3.83a7.02 7.02 0 0 0-6.92-7.99 7.02 7.02 0 0 0-6.93 7.99h-30.09v-14.86h15.61Zm15.61-1.9H873.9v-8.56h14.65v8.56Zm30.83-8.59v25.33h-5.2v-25.34h5.2Zm-7.13 25.34h-5.23v-15.69s.03-.08.03-.13v-9.52h5.2v25.34Zm-7.16-16.76h-14.62v-8.56h14.62v8.56Zm-76.99 18.68h59.89c.29.63.67 1.21 1.12 1.72h-62.16c.46-.51.85-1.08 1.15-1.72Zm20.17-1.93h-5.2v-25.34h5.2v25.34Zm-7.15-16.76h-14.05v-8.56h14.05v8.56Zm51.16 20.4a5.07 5.07 0 1 1 6.84-2.99 5 5 0 0 1-2.75 2.99h-4.09Zm29.03-3.64v-9.24h3.04v4.16h-.89c-.55 0-.96.44-.96.96s.43.94.94.96v3.15h-2.13Zm2.06-11.16h-2.06v-14.18h1.1l.96 14.18Zm-66.43-23.65h44.8c.81 0 1.59.23 2.26.7l2.33 1.61h-53.34l1.11-1.12a4 4 0 0 1 2.84-1.2Zm-72.77 8.12a3.89 3.89 0 0 1 3.88-3.88h131.26a3.05 3.05 0 0 1 3.04 3.07v.23H789.14a.97.97 0 0 0-.96.96v10.49c0 .52.44.96.96.96h5.75v14.83h-10.72v-2.06h2.63c.52 0 .96-.44.96-.96v-6.61a.95.95 0 0 0-.96-.96h-2.63v-1.95h1.43c.52 0 .96-.44.96-.96s-.44-.96-.96-.96h-1.43v-12.2Zm0 18h1.64v4.68h-1.64v-4.68Zm-25.06-32.6h1.9c.36 0 .68.29.68.68v3.62a.7.7 0 0 1-.68.68h-1.9v-4.97Zm1.9 6.9a2.6 2.6 0 0 0 2.6-2.6v-.86h2.42a4.36 4.36 0 0 1 4.35 4.35v14.67a6.27 6.27 0 0 0 6.27 6.27h5.52v13.17c0 .73.6 1.33 1.33 1.33h31.92c.29.63.67 1.21 1.12 1.72H763v-1.85c0-1.17-.94-2.13-2.13-2.13h-1.74l-.02-34.06h1.92Zm-25.63 38.04v-1.85c0-.13.1-.23.23-.23h25.24c.13 0 .23.1.23.23v1.85h-25.71Zm17.15-59.61v-3.88h4.66v3.88h-4.66Zm-6.61 0v-3.88h4.68v3.88h-4.68Zm0-5.8v-3.85h4.68v3.85h-4.68Zm11.27 0h-4.66v-3.85h4.66v3.85ZM744 204.65v3.85h-4.68v-3.85H744Zm-4.68 5.78H744v3.88h-4.68v-3.88Zm2.18 5.8H755v2.71h-13.5v-2.71Zm-2.18 4.63h17.87v49.07h-17.87v-49.07Zm-4.48 8.79a.7.7 0 0 1 .68-.68h1.87v4.97h-1.87a.7.7 0 0 1-.68-.68v-3.62Zm-8.69 22.61v-15.51a4.36 4.36 0 0 1 4.35-4.35h2.42v.86a2.6 2.6 0 0 0 2.6 2.6h1.87v34.06h-1.77c-1.17 0-2.13.94-2.13 2.13v1.85h-24.4a6.76 6.76 0 0 0 1.58-3.46h5.91c1.17 0 2.11-.96 2.11-2.11v-4.68c0-1-.7-1.82-1.61-2.04v-3.08h2.81a6.27 6.27 0 0 0 6.27-6.27Zm-24.14 21.65a4.87 4.87 0 1 1 3.9 0h-3.9Zm-41.19-3.46h36.42c.19 1.31.75 2.5 1.57 3.46h-39.58a6.78 6.78 0 0 0 1.59-3.46Zm42.57-36.53a5.58 5.58 0 1 1-5.36 7.08l5.46-.59c.31-.03.6-.23.75-.52a.95.95 0 0 0-.05-.91l-2.84-4.66a5.47 5.47 0 0 1 2.03-.39Zm-3.67 1.39 2.06 3.37-3.93.43c.1-1.51.81-2.86 1.88-3.8Zm-3.81 4.01-1.02.11-8.51-9.84 11.53 2.73.8 1.31a7.47 7.47 0 0 0-2.8 5.68Zm-10.61-8.05 8.47 9.8c.18.21.44.34.73.34.05 0 .13 0 .13-.05l1.48-.16a7.45 7.45 0 0 0 2.32 3.88h-11.91a7.48 7.48 0 0 0-1.71-12.33l.5-1.48Zm-9.33 8.22a5.58 5.58 0 0 1 6.41-5.5l-1.75 5.19a.95.95 0 0 0 .91 1.27c.39-.03.78-.26.89-.68l1.75-5.19a5.58 5.58 0 0 1-2.64 10.47 5.58 5.58 0 0 1-5.57-5.57Zm-28.98 18.5 2-.32v2.27c0 .89-.73 1.61-1.61 1.61h-1.53v-2.21c0-.68.47-1.25 1.15-1.35Zm-2.78 10.56a.18.18 0 0 1-.18-.18v-4.68c0-.1.08-.18.18-.18h.68l.12-.03h2.37a3.55 3.55 0 0 0 3.54-3.54v-2.58l9.81-1.56a8.05 8.05 0 0 0 2.63-.94l11.45-6.53a10.38 10.38 0 0 1 5.05-1.33h26.2c1.38 0 2.65.68 3.46 1.79l5.18 7.39c.09.13.17.27.23.42h-1.69c-.52 0-.96.44-.96.96s.44.96.96.96h1.93v3.02h-3.33c-.52 0-.96.44-.96.96s.44.96.96.96h4.76c.1 0 .18.08.18.18v4.68c0 .1-.08.18-.18.18h-5.91a6.79 6.79 0 0 0-13.42 0h-36.42c-.47-3.29-3.3-5.83-6.71-5.83s-6.26 2.55-6.72 5.85h-3.19Zm5.05.91a4.87 4.87 0 0 1 4.86-4.87 4.87 4.87 0 0 1 1.95 9.32h-3.9a4.86 4.86 0 0 1-2.91-4.45Zm-173.33-32.55h30.26v30.91h-30.26v-30.91Zm13.53 32.83h3.25v4.16h-3.25v-4.16Zm-16.91-73.11 3.46-.99 23.55 11.66-.42 1.14-29.07-10.59c.07-.18.14-.36.19-.55.08-.26.13-.55.16-.81.02-.16.02-.31.02-.46l1.51.57c.18.08.39.08.6.03Zm-4.19-1.8c.16.47.21.96.16 1.46-.03.18-.05.36-.1.52a3.37 3.37 0 0 1-1.54 2.04l-.13.08a3.42 3.42 0 0 1-3.2 0c-.03-.03-.08-.03-.1-.05a3.15 3.15 0 0 1-1.07-.99 3.54 3.54 0 0 1-.5-2.81l.03-.1a3.39 3.39 0 0 1 3.23-2.41c.26-.03.49.03.76.1a3.4 3.4 0 0 1 1.33.6c.52.39.94.96 1.15 1.59Zm-8.53-9.29-1.67-26.23 1.2-.21 5.56 31.52a5.2 5.2 0 0 0-1.79.4l-.44-2.46a.9.9 0 0 0-.29-.52l-2.58-2.5Zm.57 15.04a.88.88 0 0 0-.31.49l-.88 3.49-21.88 14.57-.78-.94 23.88-19.87a5.63 5.63 0 0 0 1.03 1.38l-1.05.88Zm3.62.5c.36.08.74.13 1.11.13.37-.01.74-.06 1.11-.14l1.08 72.83h-4.38l1.08-72.82Zm-39.94 35.82h30.26v30.91h-30.26V236.9Zm13.5 32.83h3.25v4.16h-3.25v-4.16Zm-16.44-102.12 6.97 28.67-1.48.55-11.9-32.69c.33-.1.66-.24.98-.41l.23-.13c.3-.18.57-.39.83-.61l.65 1.86c.08.18.21.36.36.47l3.36 2.29Zm-3.72-16.44c.13-.16.18-.34.21-.55l.29-4.06 21.36-20.37 1.2 1.01-23.14 27.58a5.6 5.6 0 0 0-1.79-1.38l1.87-2.24Zm-12.44 6.95-3.67 1.77-28.31-8.3.26-1.56 34.42 6.17c-.11.23-.2.47-.28.72-.03.05-.03.1-.05.16-.1.42-.16.83-.18 1.25l-1.62-.28c-.18-.03-.39 0-.57.08Zm4.21-.55.03-.1a4.02 4.02 0 0 1 2.81-2.66c.31-.08.62-.1.94-.1.26 0 .49.03.73 0 .08 0 .18.03.26.05.52.13.96.36 1.38.68a3.95 3.95 0 0 1 1.49 3.51c-.03.21-.05.39-.1.6-.1.37-.26.7-.44 1.02a3.54 3.54 0 0 1-1.33 1.33l-.16.08a4.03 4.03 0 0 1-3.66.03 3.98 3.98 0 0 1-2-2.76c-.1-.55-.08-1.12.08-1.67Zm2.43 6.67c.38.09.77.15 1.16.16l1.56 4.3 1.18 105.19h-5.12l1.22-109.66Zm-40.03 72.66h30.26v30.91h-30.26V236.9Zm13.5 32.83h3.25v4.16h-3.25v-4.16Zm-17.72-75.58c.21 0 .42-.05.57-.18l2.91-2.11 26.12 2.91v1.22h-30.9a5.11 5.11 0 0 0-.3-1.86h1.59Zm-4.5-.94c.21.18.42.36.57.57.57.7.83 1.56.73 2.47 0 .16-.05.31-.08.47l-.03.05a3.33 3.33 0 0 1-1.54 2.03l-.16.08c-.65.34-1.46.47-2.18.34-.1 0-.18-.03-.29-.05a3.83 3.83 0 0 1-.73-.29c-.47-.23-.86-.6-1.17-1.04l-.16-.23a3.5 3.5 0 0 1-.34-2.58l.03-.1a3.44 3.44 0 0 1 2.42-2.32c.1-.05.24-.05.36-.08.16-.03.29-.03.44-.03.29 0 .6.03.91.13.44.1.83.31 1.2.57Zm-7.41-3.8-3.28-1.48-10.54-24.07 1.07-.6 16.02 27.75c-.57.24-1.09.59-1.54 1.01l-1.29-2.22a.92.92 0 0 0-.44-.39Zm-12.88 37.86-1.07-.62 15.64-26.87a5.4 5.4 0 0 0 1.45.96l-.7 1.22a.88.88 0 0 0-.13.57l.36 3.59-15.56 21.15Zm16.96-19.79.37-.5a.9.9 0 0 0 .18-.68l-.37-3.64.84-1.47.2.02c.38.01.75-.03 1.11-.11l1.08 72.81h-4.36l.94-66.42Zm-41.18 29.42h30.26v30.91h-30.26V236.9Zm13.5 32.83h3.25v4.16h-3.25v-4.16Zm-177.18-49.46v14.88a.95.95 0 0 0 1.49.81l23.39-15.69v14.88c0 .36.18.7.49.86.31.16.7.16.99-.05l23.36-15.69v53.62h-68.24l-3.69-38.73 22.21-14.89Zm-29.05-36.71h-15.45l.42-4.42h14.61l.42 4.42Zm-13.44-21.13h11.42l1.41 14.78h-14.24l1.41-14.78Zm-2.2 23.05h15.82l8.43 88.41h-32.7l8.45-88.41Zm199.99-83a13.71 13.71 0 0 0 0-27.42c-7.57 0-13.74 6.14-13.74 13.71s6.17 13.71 13.74 13.71Zm0-25.55c6.5 0 11.81 5.31 11.81 11.81s-5.31 11.81-11.81 11.81-11.81-5.31-11.81-11.81 5.31-11.81 11.81-11.81Zm0-4.05c.52 0 .96-.44.96-.96v-8.14c0-.55-.44-.96-.96-.96s-.96.44-.96.96v8.14c0 .52.44.96.96.96Zm-6.66.39c.16.39.52.62.91.62.1 0 .21 0 .31-.05a.96.96 0 0 0 .57-1.22l-2.78-7.65a.96.96 0 0 0-1.22-.57.96.96 0 0 0-.57 1.22l2.78 7.65Zm-4.89 3.2c.18.23.47.34.73.34.23.03.44-.05.62-.21a.95.95 0 0 0 .13-1.35l-5.23-6.24a.95.95 0 0 0-1.35-.13.95.95 0 0 0-.13 1.35l5.23 6.24Zm-10.54.62 7.05 4.08c.16.08.31.13.47.13.31-.03.65-.18.83-.49a.96.96 0 0 0-.36-1.3l-7.05-4.08a.96.96 0 0 0-1.3.36.96.96 0 0 0 .36 1.3Zm-2.65 8.28 8.01 1.4c.05.03.1.03.16.03.44 0 .86-.34.96-.81.08-.52-.26-1.04-.78-1.12l-8.01-1.4c-.52-.08-1.04.26-1.12.78-.08.52.26 1.04.78 1.12Zm.13 8.69h.18l8.01-1.4c.52-.1.86-.6.78-1.12a.99.99 0 0 0-1.12-.78l-8.01 1.4c-.52.1-.86.6-.78 1.12.08.47.49.78.94.78Zm10.85 2.62a.94.94 0 0 0-1.3-.36l-7.05 4.08a.94.94 0 0 0-.36 1.3c.18.31.49.49.83.49a.9.9 0 0 0 .47-.13l7.05-4.08a.94.94 0 0 0 .36-1.3Zm-2.29 12.18c.26 0 .55-.13.73-.36l5.23-6.24a.95.95 0 0 0-.13-1.35.94.94 0 0 0-1.35.13l-5.23 6.24a.95.95 0 0 0 .13 1.35c.18.16.42.23.62.23Zm9.42-4.6-2.78 7.65a.96.96 0 0 0 .57 1.22.98.98 0 0 0 1.22-.57l2.78-7.65a.96.96 0 0 0-.57-1.22.96.96 0 0 0-1.22.57Zm5.67 1.32v8.14a.96.96 0 0 0 1.92 0v-8.14c0-.52-.44-.96-.96-.96s-.96.44-.96.96Zm6.4-1.9a.96.96 0 0 0-.57 1.22l2.78 7.65c.16.39.52.62.91.62.1.03.21 0 .31-.05a.96.96 0 0 0 .57-1.22l-2.78-7.65a.95.95 0 0 0-1.22-.57Zm4.79-2.76a.95.95 0 0 0-.13 1.35l5.23 6.24c.18.23.47.34.73.34.23 0 .44-.08.62-.21a.95.95 0 0 0 .13-1.35l-5.23-6.24a.95.95 0 0 0-1.35-.13Z"/><path d="M331.63 102.2c.34.03.65-.16.86-.49a.96.96 0 0 0-.36-1.3l-7.05-4.08a.96.96 0 0 0-1.3.36.92.92 0 0 0 .34 1.3l7.05 4.08c.16.08.31.13.47.13Zm2.96-8.14c.44 0 .86-.34.96-.81.08-.52-.26-1.04-.78-1.12l-8.01-1.41a1 1 0 0 0-1.12.78c-.08.52.26 1.04.78 1.12l8.01 1.4c.05.03.1.03.16.03Zm-8.97-8.04c.08.47.47.78.94.78h.18l8.01-1.4c.52-.1.86-.6.78-1.12a.97.97 0 0 0-1.12-.78l-8.01 1.41c-.52.1-.86.6-.78 1.12Zm-1.88-5.21c.18.31.49.49.83.49.16 0 .31-.05.44-.13l7.05-4.08a.94.94 0 0 0 .36-1.3.94.94 0 0 0-1.3-.36l-7.05 4.08a.96.96 0 0 0-.34 1.3Zm-2.94-4c.29 0 .55-.1.73-.36l5.23-6.24c.34-.42.29-1.01-.13-1.35s-1.02-.29-1.35.13l-5.23 6.24a.95.95 0 0 0 .13 1.35c.18.16.42.23.62.23Zm-5.38-2.97c.1.03.21.05.31.05.42 0 .78-.23.91-.62l2.78-7.65a.96.96 0 0 0-.57-1.22.96.96 0 0 0-1.22.57l-2.78 7.65a.96.96 0 0 0 .57 1.22Zm-119.14 87.34h6.92c.55 0 .96-.44.96-.96a6.64 6.64 0 0 1 6.63-6.63c.23 0 .52.03.78.05a1 1 0 0 0 .86-.36.93.93 0 0 0 .13-.94 8.68 8.68 0 0 1 8.04-11.71 8.58 8.58 0 0 1 8.61 8.35c.03.34.21.65.49.81.29.16.65.16.94 0a7.26 7.26 0 0 1 10.83 6.32c0 .16-.03.31-.03.47-.03.31.1.6.34.81.23.18.57.26.86.18a4.74 4.74 0 0 1 5.94 4.58c0 .55.44.96.96.96h8.59c.52 0 .96-.44 1.04-.99a.97.97 0 0 0-.96-.96h-7.7a6.67 6.67 0 0 0-6.61-5.7c-.18 0-.34 0-.49.03a9.18 9.18 0 0 0-12.36-7.99 10.5 10.5 0 0 0-10.41-8.82 10.56 10.56 0 0 0-10.25 12.99 8.59 8.59 0 0 0-8.09 7.6h-6.01c-.52 0-.96.44-.96.96s.44.96.96.96Zm-6.45 4.19h42.36c.55 0 .96-.42.99-.96a.97.97 0 0 0-.96-.96h-42.38c-.52 0-.96.44-.96.96s.44.96.96.96Zm304.78-69.36h6.92c.52 0 .96-.44.96-.96a6.65 6.65 0 0 1 6.64-6.63c.23 0 .52.03.78.05.31.03.65-.1.86-.36s.26-.62.13-.94a8.67 8.67 0 0 1 8.04-11.73 8.57 8.57 0 0 1 8.61 8.35c.03.34.21.65.49.81.29.16.65.16.94 0a7.26 7.26 0 0 1 10.82 6.32c0 .16-.03.31-.03.47-.03.31.1.6.34.81a1 1 0 0 0 .86.18 4.74 4.74 0 0 1 5.93 4.58c0 .52.44.96.96.96h8.59c.55 0 .96-.44 1.02-.96a.95.95 0 0 0-.96-.96h-7.7a6.63 6.63 0 0 0-6.58-5.7c-.18 0-.34 0-.49.03a9.18 9.18 0 0 0-12.36-7.99A10.46 10.46 0 0 0 519 73.52a10.57 10.57 0 0 0-10.25 12.99 8.59 8.59 0 0 0-8.09 7.6h-6.04a.97.97 0 0 0-.96.96c0 .55.44.96.96.96Zm-6.48 4.16h42.38c.52 0 .96-.44.96-.96s-.44-.96-.96-.96h-42.38c-.55 0-.96.44-.96.96s.44.96.96.96Zm430.42-35.02h6.92c.55 0 .96-.44.96-.96a6.65 6.65 0 0 1 6.64-6.63c.23 0 .52.03.78.05a.95.95 0 0 0 1.01-1.3 8.66 8.66 0 0 1 8.04-11.71 8.58 8.58 0 0 1 8.61 8.35c.03.34.21.65.49.81.29.16.65.16.94 0a7.26 7.26 0 0 1 10.82 6.32c0 .16-.03.31-.03.47-.03.31.1.6.34.81.23.18.57.26.86.18a4.74 4.74 0 0 1 5.93 4.58c0 .52.44.96.96.96h8.59c.52 0 .94-.44.99-.99a.95.95 0 0 0-.96-.96h-7.7a6.65 6.65 0 0 0-6.58-5.7c-.18 0-.34 0-.49.03a9.18 9.18 0 0 0-12.36-7.99 10.45 10.45 0 0 0-10.38-8.82 10.57 10.57 0 0 0-10.25 12.99 8.58 8.58 0 0 0-8.09 7.6h-6.04a.97.97 0 0 0-.96.96c0 .55.44.96.96.96Zm-6.46 4.19h42.38a.96.96 0 0 0 0-1.92h-42.38a.97.97 0 0 0-.96.96c0 .55.44.96.96.96ZM666.98 266.35c.55 0 .96-.42.96-.96v-7.88h15.56v7.88c0 .55.44.96.96.96s.94-.42.96-.96v-7.88h13.71v3.77c0 .52.44.96.96.96.55 0 .96-.44.96-.96v-4.19l4.63-3.38c.47-.34.73-.89.73-1.43v-1.72c0-.99-.81-1.77-1.77-1.77h-20.05s-.09-.03-.14-.03-.09.02-.13.03h-4.21c-1.59 0-3.17.42-4.55 1.2l-8.85 5.05c-.3.18-.51.44-.61.75l-.02.06-.02.08a.75.75 0 0 0-.05.26v9.21c0 .55.44.96.96.96Zm28.77-15.64 2.71 4.86h-13.03v-4.86h10.32Zm8.75 1.46-4.08 2.97-2.48-4.43h6.56v1.46Zm-27.97-.49a7.3 7.3 0 0 1 3.59-.96h3.38v4.86h-13.87l6.9-3.9Z"/><path d="M680.82 258.98h-2.06c-.52 0-.96.44-.96.96s.44.96.96.96h2.06c.52 0 .96-.44.96-.96a.95.95 0 0 0-.96-.96Zm15.64 0h-2.06c-.52 0-.96.44-.96.96s.44.96.96.96h2.06c.55 0 .96-.44.96-.96a.95.95 0 0 0-.96-.96Zm56.32-6.24h-2.84l.16-7.75a.92.92 0 0 0-.73-.96.96.96 0 0 0-1.09.52l-5.39 11.5a.88.88 0 0 0 .05.91c.18.29.49.44.81.44l3.07-.03.1 6.84c0 .44.31.83.76.91.08.03.13.03.21.03.36 0 .7-.21.86-.49l4.89-10.56a.88.88 0 0 0-.05-.91 1.01 1.01 0 0 0-.81-.44Zm-4.01 7.26-.05-3.62a.96.96 0 0 0-.96-.94l-2.5.03 2.84-6.06-.08 4.24c-.03.23.08.49.26.68.18.18.42.29.68.29h2.32l-2.5 5.39Zm-6.5-22.25h11.97c.52 0 .96-.42.96-.96v-10.67a.97.97 0 0 0-.96-.96h-11.97a.97.97 0 0 0-.96.96v10.67c0 .52.44.96.96.96Zm.94-10.67h10.07v8.77h-10.07v-8.77Zm-89.06-118.19c0-.52-.44-.96-.96-.96s-.96.44-.96.96v1.92c0 .52.44.96.96.96s.96-.42.96-.96v-1.92Zm5.05 0c0-.52-.44-.96-.96-.96s-.96.44-.96.96v1.92c0 .52.44.96.96.96s.94-.42.96-.96v-1.92Zm5.02 0c0-.52-.44-.96-.96-.96s-.96.44-.96.96v1.92c0 .52.44.96.96.96.55 0 .96-.42.96-.96v-1.92Zm5.05 0c0-.52-.44-.96-.96-.96s-.96.44-.96.96v1.92c0 .52.44.96.96.96s.96-.42.96-.96v-1.92Zm5.04 0a.97.97 0 0 0-.96-.96.95.95 0 0 0-.96.96v1.92c0 .52.44.96.96.96s.96-.42.96-.96v-1.92Zm5.05 0a.97.97 0 0 0-.96-.96.95.95 0 0 0-.96.96v1.92c0 .52.44.96.96.96s.96-.42.96-.96v-1.92Zm5.02 0c0-.52-.44-.96-.96-.96s-.96.44-.96.96v1.92c0 .52.44.96.96.96s.96-.42.96-.96v-1.92Zm5.05 0a.97.97 0 0 0-.96-.96.95.95 0 0 0-.96.96v1.92c0 .52.44.96.96.96.55 0 .96-.42.96-.96v-1.92Zm5.05 0c0-.52-.44-.96-.96-.96s-.96.44-.96.96v1.92c0 .52.44.96.96.96s.96-.42.96-.96v-1.92Zm-40.33 6.03c0-.55-.44-.96-.96-.96s-.96.44-.96.96v1.92c0 .52.44.96.96.96s.96-.44.96-.96v-1.92Zm5.05 0c0-.55-.44-.96-.96-.96s-.96.44-.96.96v1.92c0 .52.44.96.96.96s.94-.44.96-.96v-1.92Zm5.02 0c0-.55-.44-.96-.96-.96s-.96.44-.96.96v1.92c0 .52.44.96.96.96.55 0 .96-.44.96-.96v-1.92Zm5.05 0c0-.55-.44-.96-.96-.96s-.96.44-.96.96v1.92c0 .52.44.96.96.96s.96-.44.96-.96v-1.92Zm5.04 0a.95.95 0 0 0-.96-.96.95.95 0 0 0-.96.96v1.92c0 .52.44.96.96.96s.96-.44.96-.96v-1.92Zm5.05 0a.95.95 0 0 0-.96-.96.95.95 0 0 0-.96.96v1.92c0 .52.44.96.96.96s.96-.44.96-.96v-1.92Zm5.02 0c0-.55-.44-.96-.96-.96s-.96.44-.96.96v1.92c0 .52.44.96.96.96s.96-.44.96-.96v-1.92Zm5.05 0a.95.95 0 0 0-.96-.96.95.95 0 0 0-.96.96v1.92c0 .52.44.96.96.96.55 0 .96-.44.96-.96v-1.92Zm5.05 0c0-.55-.44-.96-.96-.96s-.96.44-.96.96v1.92c0 .52.44.96.96.96s.96-.44.96-.96v-1.92Zm-40.33 6.01c0-.55-.44-.96-.96-.96s-.96.44-.96.96v1.93c0 .52.44.96.96.96s.96-.42.96-.96v-1.93Zm5.05 0c0-.55-.44-.96-.96-.96s-.96.44-.96.96v1.93c0 .52.44.96.96.96s.94-.42.96-.96v-1.93Zm5.02 0c0-.55-.44-.96-.96-.96s-.96.44-.96.96v1.93c0 .52.44.96.96.96.55 0 .96-.42.96-.96v-1.93Zm5.05 0c0-.55-.44-.96-.96-.96s-.96.44-.96.96v1.93c0 .52.44.96.96.96s.96-.42.96-.96v-1.93Zm5.04 0a.95.95 0 0 0-.96-.96.95.95 0 0 0-.96.96v1.93c0 .52.44.96.96.96s.96-.42.96-.96v-1.93Zm5.05 0a.95.95 0 0 0-.96-.96.95.95 0 0 0-.96.96v1.93c0 .52.44.96.96.96s.96-.42.96-.96v-1.93Zm5.02 0c0-.55-.44-.96-.96-.96s-.96.44-.96.96v1.93c0 .52.44.96.96.96s.96-.42.96-.96v-1.93Zm5.05 0a.95.95 0 0 0-.96-.96.95.95 0 0 0-.96.96v1.93c0 .52.44.96.96.96.55 0 .96-.42.96-.96v-1.93Zm5.05 0c0-.55-.44-.96-.96-.96s-.96.44-.96.96v1.93c0 .52.44.96.96.96s.96-.42.96-.96v-1.93Zm-40.33 6.04c0-.52-.44-.96-.96-.96s-.96.44-.96.96v1.92c0 .55.44.96.96.96s.96-.44.96-.96v-1.92Zm5.05 0c0-.52-.44-.96-.96-.96s-.96.44-.96.96v1.92c0 .55.44.96.96.96s.94-.44.96-.96v-1.92Zm5.02 0c0-.52-.44-.96-.96-.96s-.96.44-.96.96v1.92c0 .55.44.96.96.96.55 0 .96-.44.96-.96v-1.92Zm5.05 0c0-.52-.44-.96-.96-.96s-.96.44-.96.96v1.92c0 .55.44.96.96.96s.96-.44.96-.96v-1.92Zm5.04 0a.97.97 0 0 0-.96-.96.95.95 0 0 0-.96.96v1.92c0 .55.44.96.96.96s.96-.44.96-.96v-1.92Zm5.05 0a.97.97 0 0 0-.96-.96.95.95 0 0 0-.96.96v1.92c0 .55.44.96.96.96s.96-.44.96-.96v-1.92Zm5.02 0c0-.52-.44-.96-.96-.96s-.96.44-.96.96v1.92c0 .55.44.96.96.96s.96-.44.96-.96v-1.92Zm5.05 0a.97.97 0 0 0-.96-.96.95.95 0 0 0-.96.96v1.92c0 .55.44.96.96.96.55 0 .96-.44.96-.96v-1.92Zm5.05 0c0-.52-.44-.96-.96-.96s-.96.44-.96.96v1.92c0 .55.44.96.96.96s.96-.44.96-.96v-1.92Zm-40.33 6.04c0-.55-.44-.96-.96-.96s-.96.44-.96.96v1.92c0 .52.44.96.96.96s.96-.44.96-.96v-1.92Zm5.05 0c0-.55-.44-.96-.96-.96s-.96.44-.96.96v1.92c0 .52.44.96.96.96s.94-.44.96-.96v-1.92Zm5.02 0c0-.55-.44-.96-.96-.96s-.96.44-.96.96v1.92c0 .52.44.96.96.96.55 0 .96-.44.96-.96v-1.92Zm5.05 0c0-.55-.44-.96-.96-.96s-.96.44-.96.96v1.92c0 .52.44.96.96.96s.96-.44.96-.96v-1.92Zm5.04 0a.95.95 0 0 0-.96-.96.95.95 0 0 0-.96.96v1.92c0 .52.44.96.96.96s.96-.44.96-.96v-1.92Zm5.05 0a.95.95 0 0 0-.96-.96.95.95 0 0 0-.96.96v1.92c0 .52.44.96.96.96s.96-.44.96-.96v-1.92Zm5.02 0c0-.55-.44-.96-.96-.96s-.96.44-.96.96v1.92c0 .52.44.96.96.96s.96-.44.96-.96v-1.92Zm5.05 0a.95.95 0 0 0-.96-.96.95.95 0 0 0-.96.96v1.92c0 .52.44.96.96.96.55 0 .96-.44.96-.96v-1.92Zm5.05 0c0-.55-.44-.96-.96-.96s-.96.44-.96.96v1.92c0 .52.44.96.96.96s.96-.44.96-.96v-1.92Zm-40.33 6.01c0-.52-.44-.96-.96-.96s-.96.44-.96.96v1.92c0 .52.44.96.96.96s.96-.42.96-.96v-1.92Zm5.05 0c0-.52-.44-.96-.96-.96s-.96.44-.96.96v1.92c0 .52.44.96.96.96s.94-.42.96-.96v-1.92Zm5.02 0c0-.52-.44-.96-.96-.96s-.96.44-.96.96v1.92c0 .52.44.96.96.96.55 0 .96-.42.96-.96v-1.92Zm5.05 0c0-.52-.44-.96-.96-.96s-.96.44-.96.96v1.92c0 .52.44.96.96.96s.96-.42.96-.96v-1.92Zm5.04 0a.97.97 0 0 0-.96-.96.95.95 0 0 0-.96.96v1.92c0 .52.44.96.96.96s.96-.42.96-.96v-1.92Zm5.05 0a.97.97 0 0 0-.96-.96.95.95 0 0 0-.96.96v1.92c0 .52.44.96.96.96s.96-.42.96-.96v-1.92Zm5.02 0c0-.52-.44-.96-.96-.96s-.96.44-.96.96v1.92c0 .52.44.96.96.96s.96-.42.96-.96v-1.92Zm5.05 0a.97.97 0 0 0-.96-.96.95.95 0 0 0-.96.96v1.92c0 .52.44.96.96.96.55 0 .96-.42.96-.96v-1.92Zm5.05 0c0-.52-.44-.96-.96-.96s-.96.44-.96.96v1.92c0 .52.44.96.96.96s.96-.42.96-.96v-1.92Zm-40.33 6.03c0-.52-.44-.96-.96-.96s-.96.44-.96.96v1.93c0 .55.44.96.96.96s.96-.44.96-.96v-1.93Zm5.05 0c0-.52-.44-.96-.96-.96s-.96.44-.96.96v1.93c0 .55.44.96.96.96s.94-.44.96-.96v-1.93Zm5.02 0c0-.52-.44-.96-.96-.96s-.96.44-.96.96v1.93c0 .55.44.96.96.96.55 0 .96-.44.96-.96v-1.93Zm5.05 0c0-.52-.44-.96-.96-.96s-.96.44-.96.96v1.93c0 .55.44.96.96.96s.96-.44.96-.96v-1.93Zm5.04 0a.97.97 0 0 0-.96-.96.95.95 0 0 0-.96.96v1.93c0 .55.44.96.96.96s.96-.44.96-.96v-1.93Zm5.05 0a.97.97 0 0 0-.96-.96.95.95 0 0 0-.96.96v1.93c0 .55.44.96.96.96s.96-.44.96-.96v-1.93Zm5.02 0c0-.52-.44-.96-.96-.96s-.96.44-.96.96v1.93c0 .55.44.96.96.96s.96-.44.96-.96v-1.93Zm5.05 0a.97.97 0 0 0-.96-.96.95.95 0 0 0-.96.96v1.93c0 .55.44.96.96.96.55 0 .96-.44.96-.96v-1.93Zm5.05 0c0-.52-.44-.96-.96-.96s-.96.44-.96.96v1.93c0 .55.44.96.96.96s.96-.44.96-.96v-1.93Zm-40.33 6.01c0-.52-.44-.96-.96-.96s-.96.44-.96.96v1.93c0 .52.44.96.96.96s.96-.42.96-.96v-1.93Zm5.05 0c0-.52-.44-.96-.96-.96s-.96.44-.96.96v1.93c0 .52.44.96.96.96s.94-.42.96-.96v-1.93Zm5.02 0c0-.52-.44-.96-.96-.96s-.96.44-.96.96v1.93c0 .52.44.96.96.96.55 0 .96-.42.96-.96v-1.93Zm5.05 0c0-.52-.44-.96-.96-.96s-.96.44-.96.96v1.93c0 .52.44.96.96.96s.96-.42.96-.96v-1.93Zm5.04 0a.97.97 0 0 0-.96-.96.95.95 0 0 0-.96.96v1.93c0 .52.44.96.96.96s.96-.42.96-.96v-1.93Zm5.05 0a.97.97 0 0 0-.96-.96.95.95 0 0 0-.96.96v1.93c0 .52.44.96.96.96s.96-.42.96-.96v-1.93Zm5.02 0c0-.52-.44-.96-.96-.96s-.96.44-.96.96v1.93c0 .52.44.96.96.96s.96-.42.96-.96v-1.93Zm5.05 0a.97.97 0 0 0-.96-.96.95.95 0 0 0-.96.96v1.93c0 .52.44.96.96.96.55 0 .96-.42.96-.96v-1.93Zm5.05 0c0-.52-.44-.96-.96-.96s-.96.44-.96.96v1.93c0 .52.44.96.96.96s.96-.42.96-.96v-1.93Zm-40.33 6.04c0-.52-.44-.96-.96-.96s-.96.44-.96.96v1.93c0 .52.44.96.96.96s.96-.42.96-.96v-1.93Zm5.05 0c0-.52-.44-.96-.96-.96s-.96.44-.96.96v1.93c0 .52.44.96.96.96s.94-.42.96-.96v-1.93Zm5.02 0c0-.52-.44-.96-.96-.96s-.96.44-.96.96v1.93c0 .52.44.96.96.96.55 0 .96-.42.96-.96v-1.93Zm5.05 0c0-.52-.44-.96-.96-.96s-.96.44-.96.96v1.93c0 .52.44.96.96.96s.96-.42.96-.96v-1.93Zm5.04 0a.97.97 0 0 0-.96-.96.95.95 0 0 0-.96.96v1.93c0 .52.44.96.96.96s.96-.42.96-.96v-1.93Zm5.05 0a.97.97 0 0 0-.96-.96.95.95 0 0 0-.96.96v1.93c0 .52.44.96.96.96s.96-.42.96-.96v-1.93Zm5.02 0c0-.52-.44-.96-.96-.96s-.96.44-.96.96v1.93c0 .52.44.96.96.96s.96-.42.96-.96v-1.93Zm5.05 0a.97.97 0 0 0-.96-.96.95.95 0 0 0-.96.96v1.93c0 .52.44.96.96.96.55 0 .96-.42.96-.96v-1.93Zm5.05 0c0-.52-.44-.96-.96-.96s-.96.44-.96.96v1.93c0 .52.44.96.96.96s.96-.42.96-.96v-1.93Zm-40.33 6.03c0-.55-.44-.96-.96-.96s-.96.44-.96.96v1.93c0 .52.44.96.96.96s.96-.44.96-.96v-1.93Zm5.05 0c0-.55-.44-.96-.96-.96s-.96.44-.96.96v1.93c0 .52.44.96.96.96s.94-.44.96-.96v-1.93Zm5.02 0c0-.55-.44-.96-.96-.96s-.96.44-.96.96v1.93c0 .52.44.96.96.96.55 0 .96-.44.96-.96v-1.93Zm5.05 0c0-.55-.44-.96-.96-.96s-.96.44-.96.96v1.93c0 .52.44.96.96.96s.96-.44.96-.96v-1.93Zm5.04 0a.95.95 0 0 0-.96-.96.95.95 0 0 0-.96.96v1.93c0 .52.44.96.96.96s.96-.44.96-.96v-1.93Zm5.05 0a.95.95 0 0 0-.96-.96.95.95 0 0 0-.96.96v1.93c0 .52.44.96.96.96s.96-.44.96-.96v-1.93Zm5.02 0c0-.55-.44-.96-.96-.96s-.96.44-.96.96v1.93c0 .52.44.96.96.96s.96-.44.96-.96v-1.93Zm5.05 0a.95.95 0 0 0-.96-.96.95.95 0 0 0-.96.96v1.93c0 .52.44.96.96.96.55 0 .96-.44.96-.96v-1.93Zm5.05 0c0-.55-.44-.96-.96-.96s-.96.44-.96.96v1.93c0 .52.44.96.96.96s.96-.44.96-.96v-1.93Zm-40.33 6.04c0-.52-.44-.96-.96-.96s-.96.44-.96.96v1.92c0 .52.44.96.96.96s.96-.44.96-.96v-1.92Zm5.05 0c0-.52-.44-.96-.96-.96s-.96.44-.96.96v1.92c0 .52.44.96.96.96s.94-.44.96-.96v-1.92Zm5.02 0c0-.52-.44-.96-.96-.96s-.96.44-.96.96v1.92c0 .52.44.96.96.96.55 0 .96-.44.96-.96v-1.92Zm5.05 0c0-.52-.44-.96-.96-.96s-.96.44-.96.96v1.92c0 .52.44.96.96.96s.96-.44.96-.96v-1.92Zm5.04 0a.97.97 0 0 0-.96-.96.95.95 0 0 0-.96.96v1.92c0 .52.44.96.96.96s.96-.44.96-.96v-1.92Zm5.05 0a.97.97 0 0 0-.96-.96.95.95 0 0 0-.96.96v1.92c0 .52.44.96.96.96s.96-.44.96-.96v-1.92Zm5.02 0c0-.52-.44-.96-.96-.96s-.96.44-.96.96v1.92c0 .52.44.96.96.96s.96-.44.96-.96v-1.92Zm5.05 0a.97.97 0 0 0-.96-.96.95.95 0 0 0-.96.96v1.92c0 .52.44.96.96.96.55 0 .96-.44.96-.96v-1.92Zm5.05 0c0-.52-.44-.96-.96-.96s-.96.44-.96.96v1.92c0 .52.44.96.96.96s.96-.44.96-.96v-1.92Zm-40.33 6.01c0-.52-.44-.96-.96-.96s-.96.44-.96.96v1.92c0 .52.44.96.96.96s.96-.44.96-.96v-1.92Zm5.05 0c0-.52-.44-.96-.96-.96s-.96.44-.96.96v1.92c0 .55.44.96.96.96s.94-.42.96-.96v-1.92Zm5.02 0c0-.52-.44-.96-.96-.96s-.96.44-.96.96v1.92c0 .55.44.96.96.96.55 0 .96-.42.96-.96v-1.92Zm5.05 0c0-.52-.44-.96-.96-.96s-.96.44-.96.96v1.92a.96.96 0 0 0 1.92 0v-1.92Zm5.04 0a.97.97 0 0 0-.96-.96.95.95 0 0 0-.96.96v1.92a.96.96 0 0 0 1.92 0v-1.92Zm5.05 0a.97.97 0 0 0-.96-.96.95.95 0 0 0-.96.96v1.92a.96.96 0 0 0 1.92 0v-1.92Zm5.02 0c0-.52-.44-.96-.96-.96s-.96.44-.96.96v1.92a.96.96 0 0 0 1.92 0v-1.92Zm5.05 0a.97.97 0 0 0-.96-.96.95.95 0 0 0-.96.96v1.92c0 .55.44.96.96.96.55 0 .96-.42.96-.96v-1.92Zm5.05 0c0-.52-.44-.96-.96-.96s-.96.44-.96.96v1.92a.96.96 0 0 0 1.92 0v-1.92Zm-40.33 6.04c0-.55-.44-.96-.96-.96s-.96.44-.96.96v1.92c0 .52.44.96.96.96s.96-.44.96-.96v-1.92Zm5.05 0c0-.55-.44-.96-.96-.96s-.96.44-.96.96v1.92c0 .52.44.96.96.96s.94-.44.96-.96v-1.92Zm5.02 0c0-.55-.44-.96-.96-.96s-.96.44-.96.96v1.92c0 .52.44.96.96.96.55 0 .96-.44.96-.96v-1.92Zm5.05 0c0-.55-.44-.96-.96-.96s-.96.44-.96.96v1.92c0 .52.44.96.96.96s.96-.44.96-.96v-1.92Zm5.04 0a.95.95 0 0 0-.96-.96.95.95 0 0 0-.96.96v1.92c0 .52.44.96.96.96s.96-.44.96-.96v-1.92Zm5.05 0a.95.95 0 0 0-.96-.96.95.95 0 0 0-.96.96v1.92c0 .52.44.96.96.96s.96-.44.96-.96v-1.92Zm5.02 0c0-.55-.44-.96-.96-.96s-.96.44-.96.96v1.92c0 .52.44.96.96.96s.96-.44.96-.96v-1.92Zm5.05 0a.95.95 0 0 0-.96-.96.95.95 0 0 0-.96.96v1.92c0 .52.44.96.96.96.55 0 .96-.44.96-.96v-1.92Zm5.05 0c0-.55-.44-.96-.96-.96s-.96.44-.96.96v1.92c0 .52.44.96.96.96s.96-.44.96-.96v-1.92Zm-40.33 6.01c0-.52-.44-.96-.96-.96s-.96.44-.96.96v1.93a.96.96 0 0 0 1.92 0v-1.93Zm5.05 0c0-.52-.44-.96-.96-.96s-.96.44-.96.96v1.93c0 .55.44.96.96.96s.94-.42.96-.96v-1.93Zm5.02 0c0-.52-.44-.96-.96-.96s-.96.44-.96.96v1.93c0 .55.44.96.96.96.55 0 .96-.42.96-.96v-1.93Zm5.05 0c0-.52-.44-.96-.96-.96s-.96.44-.96.96v1.93a.96.96 0 0 0 1.92 0v-1.93Zm5.04 0a.97.97 0 0 0-.96-.96.95.95 0 0 0-.96.96v1.93a.96.96 0 0 0 1.92 0v-1.93Zm5.05 0a.97.97 0 0 0-.96-.96.95.95 0 0 0-.96.96v1.93a.96.96 0 0 0 1.92 0v-1.93Zm5.02 0c0-.52-.44-.96-.96-.96s-.96.44-.96.96v1.93a.96.96 0 0 0 1.92 0v-1.93Zm5.05 0a.97.97 0 0 0-.96-.96.95.95 0 0 0-.96.96v1.93c0 .55.44.96.96.96.55 0 .96-.42.96-.96v-1.93Zm5.05 0c0-.52-.44-.96-.96-.96s-.96.44-.96.96v1.93a.96.96 0 0 0 1.92 0v-1.93Zm-40.33 6.03c0-.52-.44-.96-.96-.96s-.96.44-.96.96v1.92a.96.96 0 0 0 1.92 0v-1.92Zm5.05 0c0-.52-.44-.96-.96-.96s-.96.44-.96.96v1.92c0 .55.44.96.96.96s.94-.42.96-.96v-1.92Zm5.02 0c0-.52-.44-.96-.96-.96s-.96.44-.96.96v1.92c0 .55.44.96.96.96.55 0 .96-.42.96-.96v-1.92Zm5.05 0c0-.52-.44-.96-.96-.96s-.96.44-.96.96v1.92a.96.96 0 0 0 1.92 0v-1.92Zm5.04 0a.97.97 0 0 0-.96-.96.95.95 0 0 0-.96.96v1.92a.96.96 0 0 0 1.92 0v-1.92Zm5.05 0a.97.97 0 0 0-.96-.96.95.95 0 0 0-.96.96v1.92a.96.96 0 0 0 1.92 0v-1.92Zm5.02 0c0-.52-.44-.96-.96-.96s-.96.44-.96.96v1.92a.96.96 0 0 0 1.92 0v-1.92Zm5.05 0a.97.97 0 0 0-.96-.96.95.95 0 0 0-.96.96v1.92c0 .55.44.96.96.96.55 0 .96-.42.96-.96v-1.92Zm5.05 0c0-.52-.44-.96-.96-.96s-.96.44-.96.96v1.92a.96.96 0 0 0 1.92 0v-1.92Zm-40.33 6.04c0-.52-.44-.96-.96-.96s-.96.44-.96.96v1.92c0 .52.44.96.96.96s.96-.44.96-.96v-1.92Zm5.05 0c0-.52-.44-.96-.96-.96s-.96.44-.96.96v1.92c0 .52.44.96.96.96s.94-.44.96-.96v-1.92Zm5.02 0c0-.52-.44-.96-.96-.96s-.96.44-.96.96v1.92c0 .52.44.96.96.96.55 0 .96-.44.96-.96v-1.92Zm5.05 0c0-.52-.44-.96-.96-.96s-.96.44-.96.96v1.92c0 .52.44.96.96.96s.96-.44.96-.96v-1.92Zm5.04 0a.97.97 0 0 0-.96-.96.95.95 0 0 0-.96.96v1.92c0 .52.44.96.96.96s.96-.44.96-.96v-1.92Zm5.05 0a.97.97 0 0 0-.96-.96.95.95 0 0 0-.96.96v1.92c0 .52.44.96.96.96s.96-.44.96-.96v-1.92Zm5.02 0c0-.52-.44-.96-.96-.96s-.96.44-.96.96v1.92c0 .52.44.96.96.96s.96-.44.96-.96v-1.92Zm5.05 0a.97.97 0 0 0-.96-.96.95.95 0 0 0-.96.96v1.92c0 .52.44.96.96.96.55 0 .96-.44.96-.96v-1.92Zm5.05 0c0-.52-.44-.96-.96-.96s-.96.44-.96.96v1.92c0 .52.44.96.96.96s.96-.44.96-.96v-1.92Zm-40.33 6.01c0-.52-.44-.96-.96-.96s-.96.44-.96.96v1.93a.96.96 0 0 0 1.92 0v-1.93Zm5.05 0c0-.52-.44-.96-.96-.96s-.96.44-.96.96v1.93c0 .55.44.96.96.96s.94-.42.96-.96v-1.93Zm5.02 0c0-.52-.44-.96-.96-.96s-.96.44-.96.96v1.93c0 .55.44.96.96.96.55 0 .96-.42.96-.96v-1.93Zm5.05 0c0-.52-.44-.96-.96-.96s-.96.44-.96.96v1.93a.96.96 0 0 0 1.92 0v-1.93Zm5.04 0a.97.97 0 0 0-.96-.96.95.95 0 0 0-.96.96v1.93a.96.96 0 0 0 1.92 0v-1.93Zm5.05 0a.97.97 0 0 0-.96-.96.95.95 0 0 0-.96.96v1.93a.96.96 0 0 0 1.92 0v-1.93Zm5.02 0c0-.52-.44-.96-.96-.96s-.96.44-.96.96v1.93a.96.96 0 0 0 1.92 0v-1.93Zm5.05 0a.97.97 0 0 0-.96-.96.95.95 0 0 0-.96.96v1.93c0 .55.44.96.96.96.55 0 .96-.42.96-.96v-1.93Zm5.05 0c0-.52-.44-.96-.96-.96s-.96.44-.96.96v1.93a.96.96 0 0 0 1.92 0v-1.93Zm-40.33 6.03c0-.52-.44-.96-.96-.96s-.96.44-.96.96v1.93c0 .52.44.96.96.96s.96-.44.96-.96v-1.93Zm5.05 0c0-.55-.44-.96-.96-.96s-.96.44-.96.96v1.93c0 .52.44.96.96.96s.94-.44.96-.96v-1.93Zm5.02 0c0-.55-.44-.96-.96-.96s-.96.44-.96.96v1.93c0 .52.44.96.96.96.55 0 .96-.44.96-.96v-1.93Zm5.05 0c0-.55-.44-.96-.96-.96s-.96.44-.96.96v1.93c0 .52.44.96.96.96s.96-.44.96-.96v-1.93Zm5.04 0a.95.95 0 0 0-.96-.96.95.95 0 0 0-.96.96v1.93c0 .52.44.96.96.96s.96-.44.96-.96v-1.93Zm5.05 0a.95.95 0 0 0-.96-.96.95.95 0 0 0-.96.96v1.93c0 .52.44.96.96.96s.96-.44.96-.96v-1.93Zm5.02 0c0-.55-.44-.96-.96-.96s-.96.44-.96.96v1.93c0 .52.44.96.96.96s.96-.44.96-.96v-1.93Zm5.05 0a.95.95 0 0 0-.96-.96.95.95 0 0 0-.96.96v1.93c0 .52.44.96.96.96.55 0 .96-.44.96-.96v-1.93Zm5.05 0c0-.55-.44-.96-.96-.96s-.96.44-.96.96v1.93c0 .52.44.96.96.96s.96-.44.96-.96v-1.93Zm-40.33 6.04c0-.52-.44-.96-.96-.96s-.96.44-.96.96v1.92c0 .52.44.96.96.96s.96-.44.96-.96v-1.92Zm5.05 0c0-.52-.44-.96-.96-.96s-.96.44-.96.96v1.92c0 .52.44.96.96.96s.94-.44.96-.96v-1.92Zm5.02 0c0-.52-.44-.96-.96-.96s-.96.44-.96.96v1.92c0 .52.44.96.96.96.55 0 .96-.44.96-.96v-1.92Zm5.05 0c0-.52-.44-.96-.96-.96s-.96.44-.96.96v1.92c0 .52.44.96.96.96s.96-.44.96-.96v-1.92Zm5.04 0a.97.97 0 0 0-.96-.96.95.95 0 0 0-.96.96v1.92c0 .52.44.96.96.96s.96-.44.96-.96v-1.92Zm5.05 0a.97.97 0 0 0-.96-.96.95.95 0 0 0-.96.96v1.92c0 .52.44.96.96.96s.96-.44.96-.96v-1.92Zm4.06-.96a.97.97 0 0 0-.96.96v1.92c0 .52.44.96.96.96s.96-.44.96-.96v-1.92a.97.97 0 0 0-.96-.96Zm5.05 0a.95.95 0 0 0-.96.96v1.92c0 .52.44.96.96.96.55 0 .96-.44.96-.96v-1.92a.97.97 0 0 0-.96-.96Zm5.05 0a.97.97 0 0 0-.96.96v1.92c0 .52.44.96.96.96s.96-.44.96-.96v-1.92a.97.97 0 0 0-.96-.96Zm-39.37 6.97c0-.55-.44-.96-.96-.96s-.96.44-.96.96v1.93c0 .52.44.96.96.96s.96-.42.96-.96v-1.93Zm5.05 0c0-.55-.44-.96-.96-.96s-.96.44-.96.96v1.93c0 .52.44.96.96.96s.94-.42.96-.96v-1.93Zm5.02 0c0-.55-.44-.96-.96-.96s-.96.44-.96.96v1.93c0 .52.44.96.96.96.55 0 .96-.42.96-.96v-1.93Zm5.05 0c0-.55-.44-.96-.96-.96s-.96.44-.96.96v1.93c0 .52.44.96.96.96s.96-.42.96-.96v-1.93Zm5.04 0a.95.95 0 0 0-.96-.96.95.95 0 0 0-.96.96v1.93c0 .52.44.96.96.96s.96-.42.96-.96v-1.93Zm4.09-.96a.95.95 0 0 0-.96.96v1.93c0 .52.44.96.96.96s.96-.42.96-.96v-1.93a.95.95 0 0 0-.96-.96Zm-24.25 7c0-.52-.44-.96-.96-.96s-.96.44-.96.96v1.92c0 .52.44.96.96.96s.96-.44.96-.96v-1.92Zm5.05 0c0-.55-.44-.96-.96-.96s-.96.44-.96.96v1.92c0 .52.44.96.96.96s.94-.44.96-.96v-1.92Zm5.02 0c0-.55-.44-.96-.96-.96s-.96.44-.96.96v1.92c0 .52.44.96.96.96.55 0 .96-.44.96-.96v-1.92Zm5.05 0c0-.55-.44-.96-.96-.96s-.96.44-.96.96v1.92c0 .52.44.96.96.96s.96-.44.96-.96v-1.92Zm4.08-.97a.95.95 0 0 0-.96.96v1.92c0 .52.44.96.96.96s.96-.44.96-.96v-1.92a.95.95 0 0 0-.96-.96Zm-19.2 7c0-.52-.44-.96-.96-.96s-.96.44-.96.96v1.9c0 .55.44.96.96.96s.96-.42.96-.94v-1.92Zm5.05 0c0-.52-.44-.96-.96-.96s-.96.44-.96.96v1.9c0 .55.44.96.96.96s.94-.42.96-.94v-1.92Zm5.02 0c0-.52-.44-.96-.96-.96s-.96.44-.96.96v1.9c0 .55.44.96.96.96.55 0 .96-.42.96-.94v-1.92Zm5.05 0c0-.52-.44-.96-.96-.96s-.96.44-.96.96v1.9c0 .55.44.96.96.96s.96-.42.96-.94v-1.92Zm-15.12 6.01c0-.55-.44-.96-.96-.96s-.96.44-.96.96v1.93c0 .52.44.96.96.96s.96-.42.96-.96v-1.93Zm5.05 0c0-.55-.44-.96-.96-.96s-.96.44-.96.96v1.93c0 .52.44.96.96.96s.94-.42.96-.96v-1.93Zm5.02 0c0-.55-.44-.96-.96-.96s-.96.44-.96.96v1.93c0 .52.44.96.96.96.55 0 .96-.42.96-.96v-1.93Zm4.08-.96a.97.97 0 0 0-.96.96v1.93c0 .52.44.96.96.96s.96-.42.96-.96v-1.93a.95.95 0 0 0-.96-.96Zm-15.11 6.04a.95.95 0 0 0-.96.96v1.92c0 .55.44.96.96.96s.96-.44.96-.96v-1.92a.97.97 0 0 0-.96-.96Zm4.08.96v1.92c0 .55.44.96.96.96s.94-.44.96-.96v-1.92c0-.52-.44-.96-.96-.96s-.96.44-.96.96Zm5.99-.96a.95.95 0 0 0-.96.96v1.92c0 .55.44.96.96.96.55 0 .96-.44.96-.96v-1.92a.97.97 0 0 0-.96-.96Z"/><path d="M733.01 224.54c.52 0 .96-.44.96-.96V81.15h51.8v152.93c0 .52.44.96.96.96s.96-.42.96-.91V116.61h39.05v4.48h-21.28c-.55 0-.96.44-.96.96s.44.96.96.96h21.28v3.9h-21.28c-.55 0-.96.44-.96.96s.44.96.96.96h21.28v3.9h-21.28c-.55 0-.96.44-.96.96s.44.96.96.96h21.28v3.93h-21.28c-.55 0-.96.44-.96.96s.44.96.96.96h21.28v3.9h-21.28c-.55 0-.96.44-.96.96s.44.96.96.96h21.28v3.93h-21.28c-.55 0-.96.44-.96.96s.44.96.96.96h21.28v3.9h-21.28c-.55 0-.96.44-.96.96s.44.96.96.96h21.28v3.9h-21.28c-.55 0-.96.44-.96.96s.44.96.96.96h21.28v3.93h-21.28c-.55 0-.96.44-.96.96s.44.96.96.96h21.28v3.9h-21.28c-.55 0-.96.44-.96.96s.44.96.96.96h21.28v3.9h-21.28c-.55 0-.96.44-.96.96s.44.96.96.96h21.28v3.93h-21.28a.95.95 0 0 0-.96.96c0 .55.44.96.96.96h21.28v3.9h-21.28c-.55 0-.96.44-.96.96s.44.96.96.96h21.28v3.9h-21.28a.95.95 0 0 0-.96.96c0 .55.44.96.96.96h21.28v3.93h-21.28c-.55 0-.96.44-.96.96s.44.96.96.96h21.28v3.9h-21.28a.95.95 0 0 0-.96.96c0 .55.44.96.96.96h21.28v3.93h-21.28a.95.95 0 0 0-.96.96c0 .55.44.96.96.96h21.28v3.9h-21.28a.95.95 0 0 0-.96.96c0 .55.44.96.96.96h21.28v3.9h-21.28c-.55 0-.96.44-.96.96s.44.96.96.96h21.28v3.93h-21.28c-.55 0-.96.44-.96.96s.44.96.96.96h21.28v.99c0 .52.44.96.96.96s.96-.44.96-.96V115.52a.97.97 0 0 0-.96-.96h-21.57v-9.97c0-.55-.44-.96-.96-.96s-.96.44-.96.96v9.97h-3.67V98.53c0-.55-.44-.96-.96-.96s-.96.44-.96.96v16.03h-10.93V80.09a.97.97 0 0 0-.96-.96h-8.92V60.01a.95.95 0 0 0-.96-.96h-16V43.91c0-.52-.44-.96-.96-.96s-.96.44-.96.96v15.14h-5.23V53.2c0-.52-.44-.96-.96-.96s-.96.44-.96.96v5.85h-8.85a.97.97 0 0 0-.96.96v19.12h-8.95a.97.97 0 0 0-.96.96v143.36c0 .52.44.96.96.96Zm10.85-163.45h32.03v18.13h-32.03V61.09Z"/><path d="M742.64 87.97h-2.89a.95.95 0 0 0-.96.96c0 .55.44.96.96.96h2.89c.55 0 .96-.42.96-.96s-.44-.96-.96-.96Zm7.49 0h-2.89a.95.95 0 0 0-.96.96c0 .55.44.96.96.96h2.86c.55 0 .96-.42.99-.96a.95.95 0 0 0-.96-.96Zm7.44 0h-2.89a.97.97 0 0 0-.96.96c0 .55.44.96.96.96h2.89c.55 0 .96-.42.96-.96s-.44-.96-.96-.96Zm7.5 0h-2.89a.95.95 0 0 0-.96.96c0 .55.44.96.96.96h2.89c.52 0 .94-.42.96-.96a.95.95 0 0 0-.96-.96Zm7.46 0h-2.89a.97.97 0 0 0-.96.96c0 .55.44.96.96.96h2.89a.96.96 0 0 0 0-1.92Zm7.47 0h-2.89a.97.97 0 0 0-.96.96c0 .55.44.96.96.96H780a.96.96 0 0 0 0-1.92Zm-37.36 4.39h-2.89c-.55 0-.96.44-.96.96s.44.96.96.96h2.89c.55 0 .96-.44.96-.96s-.44-.96-.96-.96Zm7.49 0h-2.89c-.55 0-.96.44-.96.96s.44.96.96.96h2.86a1 1 0 0 0 .99-.96.97.97 0 0 0-.96-.96Zm7.44 0h-2.89c-.52 0-.96.44-.96.96s.44.96.96.96h2.89c.55 0 .96-.44.96-.96s-.44-.96-.96-.96Zm7.5 0h-2.89c-.55 0-.96.44-.96.96s.44.96.96.96h2.89c.52 0 .94-.44.96-.96a.97.97 0 0 0-.96-.96Zm7.46 0h-2.89c-.52 0-.96.44-.96.96s.44.96.96.96h2.89c.52 0 .96-.44.96-.96s-.44-.96-.96-.96Zm7.47 0h-2.89c-.52 0-.96.44-.96.96s.44.96.96.96H780c.52 0 .96-.44.96-.96s-.44-.96-.96-.96Zm-37.36 4.38h-2.89a.95.95 0 0 0-.96.96c0 .55.44.96.96.96h2.89c.55 0 .96-.42.96-.96s-.44-.96-.96-.96Zm7.49 0h-2.89a.95.95 0 0 0-.96.96c0 .55.44.96.96.96h2.86c.55 0 .96-.42.99-.96a.95.95 0 0 0-.96-.96Zm7.44 0h-2.89a.97.97 0 0 0-.96.96c0 .55.44.96.96.96h2.89c.55 0 .96-.42.96-.96s-.44-.96-.96-.96Zm7.5 0h-2.89a.95.95 0 0 0-.96.96c0 .55.44.96.96.96h2.89c.52 0 .94-.42.96-.96a.95.95 0 0 0-.96-.96Zm7.46 0h-2.89a.97.97 0 0 0-.96.96c0 .55.44.96.96.96h2.89a.96.96 0 0 0 0-1.92Zm7.47 0h-2.89a.97.97 0 0 0-.96.96c0 .55.44.96.96.96H780a.96.96 0 0 0 0-1.92Zm-37.36 4.39h-2.89c-.55 0-.96.44-.96.96s.44.96.96.96h2.89c.55 0 .96-.44.96-.96s-.44-.96-.96-.96Zm7.49 0h-2.89c-.55 0-.96.44-.96.96s.44.96.96.96h2.86a1 1 0 0 0 .99-.96.97.97 0 0 0-.96-.96Zm7.44 0h-2.89c-.52 0-.96.44-.96.96s.44.96.96.96h2.89c.55 0 .96-.44.96-.96s-.44-.96-.96-.96Zm7.5 0h-2.89c-.55 0-.96.44-.96.96s.44.96.96.96h2.89c.52 0 .94-.44.96-.96a.97.97 0 0 0-.96-.96Zm7.46 0h-2.89c-.52 0-.96.44-.96.96s.44.96.96.96h2.89c.52 0 .96-.44.96-.96s-.44-.96-.96-.96Zm7.47 0h-2.89c-.52 0-.96.44-.96.96s.44.96.96.96H780c.52 0 .96-.44.96-.96s-.44-.96-.96-.96Zm-37.36 4.37h-2.89a.95.95 0 0 0-.96.96c0 .55.44.96.96.96h2.89c.55 0 .96-.42.96-.96s-.44-.96-.96-.96Zm7.49 0h-2.89a.95.95 0 0 0-.96.96c0 .55.44.96.96.96h2.86c.55 0 .96-.42.99-.96a.95.95 0 0 0-.96-.96Zm7.44 0h-2.89a.97.97 0 0 0-.96.96c0 .55.44.96.96.96h2.89c.55 0 .96-.42.96-.96s-.44-.96-.96-.96Zm7.5 0h-2.89a.95.95 0 0 0-.96.96c0 .55.44.96.96.96h2.89c.52 0 .94-.42.96-.96a.95.95 0 0 0-.96-.96Zm7.46 0h-2.89a.97.97 0 0 0-.96.96c0 .55.44.96.96.96h2.89a.96.96 0 0 0 0-1.92Zm7.47 0h-2.89a.97.97 0 0 0-.96.96c0 .55.44.96.96.96H780a.96.96 0 0 0 0-1.92Zm-37.36 4.4h-2.89c-.55 0-.96.44-.96.96s.44.96.96.96h2.89c.55 0 .96-.44.96-.96s-.44-.96-.96-.96Zm7.49 0h-2.89c-.55 0-.96.44-.96.96s.44.96.96.96h2.86a1 1 0 0 0 .99-.96.97.97 0 0 0-.96-.96Zm7.44 0h-2.89c-.52 0-.96.44-.96.96s.44.96.96.96h2.89c.55 0 .96-.44.96-.96s-.44-.96-.96-.96Zm7.5 0h-2.89c-.55 0-.96.44-.96.96s.44.96.96.96h2.89c.52 0 .94-.44.96-.96a.97.97 0 0 0-.96-.96Zm7.46 0h-2.89c-.52 0-.96.44-.96.96s.44.96.96.96h2.89c.52 0 .96-.44.96-.96s-.44-.96-.96-.96Zm7.47 0h-2.89c-.52 0-.96.44-.96.96s.44.96.96.96H780c.52 0 .96-.44.96-.96s-.44-.96-.96-.96Zm-37.36 4.37h-2.89a.95.95 0 0 0-.96.96c0 .55.44.96.96.96h2.89c.55 0 .96-.42.96-.96s-.44-.96-.96-.96Zm7.49 0h-2.89a.95.95 0 0 0-.96.96c0 .55.44.96.96.96h2.86c.55 0 .96-.42.99-.96a.95.95 0 0 0-.96-.96Zm7.44 0h-2.89a.97.97 0 0 0-.96.96c0 .55.44.96.96.96h2.89c.55 0 .96-.42.96-.96s-.44-.96-.96-.96Zm7.5 0h-2.89a.95.95 0 0 0-.96.96c0 .55.44.96.96.96h2.89c.52 0 .94-.42.96-.96a.95.95 0 0 0-.96-.96Zm7.46 0h-2.89a.97.97 0 0 0-.96.96c0 .55.44.96.96.96h2.89a.96.96 0 0 0 0-1.92Zm7.47 0h-2.89a.97.97 0 0 0-.96.96c0 .55.44.96.96.96H780a.96.96 0 0 0 0-1.92Zm-37.36 4.4h-2.89c-.55 0-.96.44-.96.96s.44.96.96.96h2.89c.55 0 .96-.44.96-.96a.95.95 0 0 0-.96-.96Zm7.49 0h-2.89c-.55 0-.96.44-.96.96s.44.96.96.96h2.86a1 1 0 0 0 .99-.96.95.95 0 0 0-.96-.96Zm7.44 0h-2.89c-.52 0-.96.44-.96.96s.44.96.96.96h2.89c.55 0 .96-.44.96-.96a.95.95 0 0 0-.96-.96Zm7.5 0h-2.89c-.55 0-.96.44-.96.96s.44.96.96.96h2.89c.52 0 .94-.44.96-.96a.95.95 0 0 0-.96-.96Zm7.46 0h-2.89c-.52 0-.96.44-.96.96s.44.96.96.96h2.89c.52 0 .96-.44.96-.96a.95.95 0 0 0-.96-.96Zm7.47 0h-2.89c-.52 0-.96.44-.96.96s.44.96.96.96H780c.52 0 .96-.44.96-.96a.95.95 0 0 0-.96-.96Zm-37.36 4.37h-2.89c-.55 0-.96.44-.96.96s.44.96.96.96h2.89c.55 0 .96-.42.96-.96s-.44-.96-.96-.96Zm7.49 0h-2.89c-.55 0-.96.44-.96.96s.44.96.96.96h2.86c.55 0 .96-.42.99-.96a.97.97 0 0 0-.96-.96Zm7.44 0h-2.89c-.52 0-.96.44-.96.96s.44.96.96.96h2.89c.55 0 .96-.42.96-.96s-.44-.96-.96-.96Zm7.5 0h-2.89c-.55 0-.96.44-.96.96s.44.96.96.96h2.89c.52 0 .94-.42.96-.96a.97.97 0 0 0-.96-.96Zm7.46 0h-2.89c-.52 0-.96.44-.96.96s.44.96.96.96h2.89a.96.96 0 0 0 0-1.92Zm7.47 0h-2.89c-.52 0-.96.44-.96.96s.44.96.96.96H780a.96.96 0 0 0 0-1.92Zm-37.36 4.4h-2.89c-.55 0-.96.44-.96.96s.44.96.96.96h2.89c.55 0 .96-.44.96-.96s-.44-.96-.96-.96Zm7.49 0h-2.89c-.55 0-.96.44-.96.96s.44.96.96.96h2.86a1 1 0 0 0 .99-.96.97.97 0 0 0-.96-.96Zm7.44 0h-2.89c-.52 0-.96.44-.96.96s.44.96.96.96h2.89c.55 0 .96-.44.96-.96s-.44-.96-.96-.96Zm7.5 0h-2.89c-.55 0-.96.44-.96.96s.44.96.96.96h2.89c.52 0 .94-.44.96-.96a.97.97 0 0 0-.96-.96Zm7.46 0h-2.89c-.52 0-.96.44-.96.96s.44.96.96.96h2.89c.52 0 .96-.44.96-.96s-.44-.96-.96-.96Zm7.47 0h-2.89c-.52 0-.96.44-.96.96s.44.96.96.96H780c.52 0 .96-.44.96-.96s-.44-.96-.96-.96Zm-37.36 4.37h-2.89c-.55 0-.96.44-.96.96s.44.96.96.96h2.89c.55 0 .96-.44.96-.96s-.44-.96-.96-.96Zm7.49 0h-2.89c-.55 0-.96.44-.96.96s.44.96.96.96h2.86c.55 0 .99-.44.99-.96s-.44-.96-.96-.96Zm7.44 0h-2.89c-.52 0-.96.44-.96.96s.44.96.96.96h2.89c.55 0 .96-.44.96-.96s-.44-.96-.96-.96Zm7.5 0h-2.89c-.55 0-.96.44-.96.96s.44.96.96.96h2.89c.52 0 .96-.44.96-.96s-.44-.96-.96-.96Zm7.46 0h-2.89c-.52 0-.96.44-.96.96s.44.96.96.96h2.89c.52 0 .96-.44.96-.96s-.44-.96-.96-.96Zm7.47 0h-2.89c-.52 0-.96.44-.96.96s.44.96.96.96H780c.52 0 .96-.44.96-.96s-.44-.96-.96-.96Zm-37.36 4.4h-2.89c-.55 0-.96.44-.96.96s.44.96.96.96h2.89c.55 0 .96-.44.96-.96a.95.95 0 0 0-.96-.96Zm7.49 0h-2.89c-.55 0-.96.44-.96.96s.44.96.96.96h2.86a1 1 0 0 0 .99-.96.95.95 0 0 0-.96-.96Zm7.44 0h-2.89c-.52 0-.96.44-.96.96s.44.96.96.96h2.89c.55 0 .96-.44.96-.96a.95.95 0 0 0-.96-.96Zm7.5 0h-2.89c-.55 0-.96.44-.96.96s.44.96.96.96h2.89c.52 0 .94-.44.96-.96a.95.95 0 0 0-.96-.96Zm7.46 0h-2.89c-.52 0-.96.44-.96.96s.44.96.96.96h2.89c.52 0 .96-.44.96-.96a.95.95 0 0 0-.96-.96Zm7.47 0h-2.89c-.52 0-.96.44-.96.96s.44.96.96.96H780c.52 0 .96-.44.96-.96a.95.95 0 0 0-.96-.96Zm-37.36 4.37h-2.89c-.55 0-.96.44-.96.96s.44.96.96.96h2.89c.55 0 .96-.42.96-.96s-.44-.96-.96-.96Zm7.49 0h-2.89c-.55 0-.96.44-.96.96s.44.96.96.96h2.86c.55 0 .96-.42.99-.96a.97.97 0 0 0-.96-.96Zm7.44 0h-2.89c-.52 0-.96.44-.96.96s.44.96.96.96h2.89c.55 0 .96-.42.96-.96s-.44-.96-.96-.96Zm7.5 0h-2.89c-.55 0-.96.44-.96.96s.44.96.96.96h2.89c.52 0 .94-.42.96-.96a.97.97 0 0 0-.96-.96Zm7.46 0h-2.89c-.52 0-.96.44-.96.96s.44.96.96.96h2.89a.96.96 0 0 0 0-1.92Zm7.47 0h-2.89c-.52 0-.96.44-.96.96s.44.96.96.96H780a.96.96 0 0 0 0-1.92Zm-37.36 4.39h-2.89c-.55 0-.96.44-.96.96s.44.96.96.96h2.89c.55 0 .96-.44.96-.96a.95.95 0 0 0-.96-.96Zm7.49 0h-2.89c-.55 0-.96.44-.96.96s.44.96.96.96h2.86a1 1 0 0 0 .99-.96.95.95 0 0 0-.96-.96Zm7.44 0h-2.89c-.52 0-.96.44-.96.96s.44.96.96.96h2.89c.55 0 .96-.44.96-.96a.95.95 0 0 0-.96-.96Zm7.5 0h-2.89c-.55 0-.96.44-.96.96s.44.96.96.96h2.89c.52 0 .94-.44.96-.96a.95.95 0 0 0-.96-.96Zm7.46 0h-2.89c-.52 0-.96.44-.96.96s.44.96.96.96h2.89c.52 0 .96-.44.96-.96a.95.95 0 0 0-.96-.96Zm7.47 0h-2.89c-.52 0-.96.44-.96.96s.44.96.96.96H780c.52 0 .96-.44.96-.96a.95.95 0 0 0-.96-.96Zm-37.36 4.37h-2.89a.95.95 0 0 0-.96.96c0 .55.44.96.96.96h2.89c.55 0 .96-.44.96-.96a.95.95 0 0 0-.96-.96Zm7.49 0h-2.89c-.55 0-.96.44-.96.96s.44.96.96.96h2.86a1 1 0 0 0 .99-.96.97.97 0 0 0-.96-.96Zm7.44 0h-2.89c-.52 0-.96.44-.96.96s.44.96.96.96h2.89c.55 0 .96-.44.96-.96s-.44-.96-.96-.96Zm7.5 0h-2.89c-.55 0-.96.44-.96.96s.44.96.96.96h2.89c.52 0 .94-.44.96-.96a.97.97 0 0 0-.96-.96Zm7.46 0h-2.89c-.52 0-.96.44-.96.96s.44.96.96.96h2.89c.52 0 .96-.44.96-.96s-.44-.96-.96-.96Zm7.47 0h-2.89c-.52 0-.96.44-.96.96s.44.96.96.96H780c.52 0 .96-.44.96-.96s-.44-.96-.96-.96Zm-37.36 4.37h-2.89c-.55 0-.96.44-.96.96s.44.96.96.96h2.89c.55 0 .96-.42.96-.96s-.44-.96-.96-.96Zm7.49 0h-2.89c-.55 0-.96.44-.96.96s.44.96.96.96h2.86c.55 0 .96-.42.99-.96a.97.97 0 0 0-.96-.96Zm7.44 0h-2.89c-.52 0-.96.44-.96.96s.44.96.96.96h2.89c.55 0 .96-.42.96-.96s-.44-.96-.96-.96Zm7.5 0h-2.89c-.55 0-.96.44-.96.96s.44.96.96.96h2.89c.52 0 .94-.42.96-.96a.97.97 0 0 0-.96-.96Zm7.46 0h-2.89c-.52 0-.96.44-.96.96s.44.96.96.96h2.89a.96.96 0 0 0 0-1.92Zm7.47 0h-2.89c-.52 0-.96.44-.96.96s.44.96.96.96H780a.96.96 0 0 0 0-1.92Zm-37.36 4.4h-2.89c-.55 0-.96.44-.96.96s.44.96.96.96h2.89c.55 0 .96-.44.96-.96s-.44-.96-.96-.96Zm7.49 0h-2.89c-.55 0-.96.44-.96.96s.44.96.96.96h2.86a1 1 0 0 0 .99-.96.97.97 0 0 0-.96-.96Zm7.44 0h-2.89c-.52 0-.96.44-.96.96s.44.96.96.96h2.89c.55 0 .96-.44.96-.96s-.44-.96-.96-.96Zm7.5 0h-2.89c-.55 0-.96.44-.96.96s.44.96.96.96h2.89c.52 0 .94-.44.96-.96a.97.97 0 0 0-.96-.96Zm7.46 0h-2.89c-.52 0-.96.44-.96.96s.44.96.96.96h2.89c.52 0 .96-.44.96-.96s-.44-.96-.96-.96Zm7.47 0h-2.89c-.52 0-.96.44-.96.96s.44.96.96.96H780c.52 0 .96-.44.96-.96s-.44-.96-.96-.96Zm-37.36 4.4h-2.89c-.55 0-.96.44-.96.96s.44.96.96.96h2.89c.55 0 .96-.44.96-.96s-.44-.96-.96-.96Zm7.49 0h-2.89c-.55 0-.96.44-.96.96s.44.96.96.96h2.86a1 1 0 0 0 .99-.96.97.97 0 0 0-.96-.96Zm7.44 0h-2.89c-.52 0-.96.44-.96.96s.44.96.96.96h2.89c.55 0 .96-.44.96-.96s-.44-.96-.96-.96Zm7.5 0h-2.89c-.55 0-.96.44-.96.96s.44.96.96.96h2.89c.52 0 .94-.44.96-.96a.97.97 0 0 0-.96-.96Zm7.46 0h-2.89c-.52 0-.96.44-.96.96s.44.96.96.96h2.89c.52 0 .96-.44.96-.96s-.44-.96-.96-.96Zm7.47 0h-2.89c-.52 0-.96.44-.96.96s.44.96.96.96H780c.52 0 .96-.44.96-.96s-.44-.96-.96-.96Zm-37.36 4.37h-2.89a.95.95 0 0 0-.96.96c0 .55.44.96.96.96h2.89c.55 0 .96-.44.96-.96a.95.95 0 0 0-.96-.96Zm7.49 0h-2.89a.95.95 0 0 0-.96.96c0 .55.44.96.96.96h2.86a1 1 0 0 0 .99-.96.95.95 0 0 0-.96-.96Zm7.44 0h-2.89a.97.97 0 0 0-.96.96c0 .55.44.96.96.96h2.89c.55 0 .96-.44.96-.96a.95.95 0 0 0-.96-.96Zm7.5 0h-2.89a.95.95 0 0 0-.96.96c0 .55.44.96.96.96h2.89c.52 0 .94-.44.96-.96a.95.95 0 0 0-.96-.96Zm7.46 0h-2.89a.97.97 0 0 0-.96.96c0 .55.44.96.96.96h2.89c.52 0 .96-.44.96-.96a.95.95 0 0 0-.96-.96Zm7.47 0h-2.89a.97.97 0 0 0-.96.96c0 .55.44.96.96.96H780c.52 0 .96-.44.96-.96a.95.95 0 0 0-.96-.96Zm-37.36 4.37h-2.89c-.55 0-.96.44-.96.96s.44.96.96.96h2.89c.55 0 .96-.42.96-.96s-.44-.96-.96-.96Zm7.49 0h-2.89c-.55 0-.96.44-.96.96s.44.96.96.96h2.86c.55 0 .96-.42.99-.96a.97.97 0 0 0-.96-.96Zm7.44 0h-2.89c-.52 0-.96.44-.96.96s.44.96.96.96h2.89c.55 0 .96-.42.96-.96s-.44-.96-.96-.96Zm7.5 0h-2.89c-.55 0-.96.44-.96.96s.44.96.96.96h2.89c.52 0 .94-.42.96-.96a.97.97 0 0 0-.96-.96Zm7.46 0h-2.89c-.52 0-.96.44-.96.96s.44.96.96.96h2.89a.96.96 0 0 0 0-1.92Zm7.47 0h-2.89c-.52 0-.96.44-.96.96s.44.96.96.96H780a.96.96 0 0 0 0-1.92Zm-37.36 4.4h-2.89a.95.95 0 0 0-.96.96c0 .55.44.96.96.96h2.89c.55 0 .96-.44.96-.96a.95.95 0 0 0-.96-.96Zm7.49 0h-2.89a.95.95 0 0 0-.96.96c0 .55.44.96.96.96h2.86a1 1 0 0 0 .99-.96.95.95 0 0 0-.96-.96Zm7.44 0h-2.89a.97.97 0 0 0-.96.96c0 .55.44.96.96.96h2.89c.55 0 .96-.44.96-.96a.95.95 0 0 0-.96-.96Zm7.5 0h-2.89a.95.95 0 0 0-.96.96c0 .55.44.96.96.96h2.89c.52 0 .94-.44.96-.96a.95.95 0 0 0-.96-.96Zm7.46 0h-2.89a.97.97 0 0 0-.96.96c0 .55.44.96.96.96h2.89c.52 0 .96-.44.96-.96a.95.95 0 0 0-.96-.96Zm7.47 0h-2.89a.97.97 0 0 0-.96.96c0 .55.44.96.96.96H780c.52 0 .96-.44.96-.96a.95.95 0 0 0-.96-.96Zm-37.36 4.37h-2.89c-.55 0-.96.44-.96.96s.44.96.96.96h2.89c.55 0 .96-.42.96-.96s-.44-.96-.96-.96Zm7.49 0h-2.89c-.55 0-.96.44-.96.96s.44.96.96.96h2.86c.55 0 .96-.42.99-.96a.97.97 0 0 0-.96-.96Zm7.44 0h-2.89c-.52 0-.96.44-.96.96s.44.96.96.96h2.89c.55 0 .96-.42.96-.96s-.44-.96-.96-.96Zm7.5 0h-2.89c-.55 0-.96.44-.96.96s.44.96.96.96h2.89c.52 0 .94-.42.96-.96a.97.97 0 0 0-.96-.96Zm7.46 0h-2.89c-.52 0-.96.44-.96.96s.44.96.96.96h2.89a.96.96 0 0 0 0-1.92Zm7.47 0h-2.89c-.52 0-.96.44-.96.96s.44.96.96.96H780a.96.96 0 0 0 0-1.92Zm-37.36 4.4h-2.89c-.55 0-.96.44-.96.96s.44.96.96.96h2.89c.55 0 .96-.44.96-.96s-.44-.96-.96-.96Zm7.49 0h-2.89c-.55 0-.96.44-.96.96s.44.96.96.96h2.86a1 1 0 0 0 .99-.96.97.97 0 0 0-.96-.96Zm7.44 0h-2.89c-.52 0-.96.44-.96.96s.44.96.96.96h2.89c.55 0 .96-.44.96-.96s-.44-.96-.96-.96Zm7.5 0h-2.89c-.55 0-.96.44-.96.96s.44.96.96.96h2.89c.52 0 .94-.44.96-.96a.97.97 0 0 0-.96-.96Zm7.46 0h-2.89c-.52 0-.96.44-.96.96s.44.96.96.96h2.89c.52 0 .96-.44.96-.96s-.44-.96-.96-.96Zm7.47 0h-2.89c-.52 0-.96.44-.96.96s.44.96.96.96H780c.52 0 .96-.44.96-.96s-.44-.96-.96-.96Zm-37.36 4.37h-2.89c-.55 0-.96.44-.96.96s.44.96.96.96h2.89c.55 0 .96-.42.96-.96s-.44-.96-.96-.96Zm7.49 0h-2.89c-.55 0-.96.44-.96.96s.44.96.96.96h2.86c.55 0 .96-.42.99-.96a.97.97 0 0 0-.96-.96Zm7.44 0h-2.89c-.52 0-.96.44-.96.96s.44.96.96.96h2.89c.55 0 .96-.42.96-.96s-.44-.96-.96-.96Zm7.5 0h-2.89c-.55 0-.96.44-.96.96s.44.96.96.96h2.89c.52 0 .94-.42.96-.96a.97.97 0 0 0-.96-.96Zm7.46 0h-2.89c-.52 0-.96.44-.96.96s.44.96.96.96h2.89a.96.96 0 0 0 0-1.92Zm7.47 0h-2.89c-.52 0-.96.44-.96.96s.44.96.96.96H780a.96.96 0 0 0 0-1.92Zm-37.36 4.39h-2.89c-.55 0-.96.44-.96.96s.44.96.96.96h2.89c.55 0 .96-.44.96-.96a.95.95 0 0 0-.96-.96Zm7.49 0h-2.89c-.55 0-.96.44-.96.96s.44.96.96.96h2.86a1 1 0 0 0 .99-.96.95.95 0 0 0-.96-.96Zm7.44 0h-2.89c-.52 0-.96.44-.96.96s.44.96.96.96h2.89c.55 0 .96-.44.96-.96a.95.95 0 0 0-.96-.96Zm7.5 0h-2.89c-.55 0-.96.44-.96.96s.44.96.96.96h2.89c.52 0 .94-.44.96-.96a.95.95 0 0 0-.96-.96Zm7.46 0h-2.89c-.52 0-.96.44-.96.96s.44.96.96.96h2.89c.52 0 .96-.44.96-.96a.95.95 0 0 0-.96-.96Zm7.47 0h-2.89c-.52 0-.96.44-.96.96s.44.96.96.96H780c.52 0 .96-.44.96-.96a.95.95 0 0 0-.96-.96Zm-37.36 4.38h-2.89a.95.95 0 0 0-.96.96c0 .55.44.96.96.96h2.89c.55 0 .96-.42.96-.96s-.44-.96-.96-.96Zm4.6 0a.95.95 0 0 0-.96.96c0 .55.44.96.96.96h2.86c.55 0 .96-.42.99-.96a.95.95 0 0 0-.96-.96h-2.89Zm10.33 0h-2.89a.97.97 0 0 0-.96.96c0 .55.44.96.96.96h2.89c.55 0 .96-.42.96-.96s-.44-.96-.96-.96Zm7.5 0h-2.89a.95.95 0 0 0-.96.96c0 .55.44.96.96.96h2.89c.52 0 .94-.42.96-.96a.95.95 0 0 0-.96-.96Zm7.46 0h-2.89a.97.97 0 0 0-.96.96c0 .55.44.96.96.96h2.89a.96.96 0 0 0 0-1.92Zm7.47 0h-2.89a.97.97 0 0 0-.96.96c0 .55.44.96.96.96H780a.96.96 0 0 0 0-1.92Zm-14.93 4.39h-2.89c-.55 0-.96.44-.96.96s.44.96.96.96h2.89c.52 0 .94-.44.96-.96a.97.97 0 0 0-.96-.96Zm7.46 0h-2.89c-.52 0-.96.44-.96.96s.44.96.96.96h2.89c.52 0 .96-.44.96-.96s-.44-.96-.96-.96Zm7.47 0h-2.89c-.52 0-.96.44-.96.96s.44.96.96.96H780c.52 0 .96-.44.96-.96s-.44-.96-.96-.96Zm-14.93 4.37h-2.89a.95.95 0 0 0-.96.96c0 .55.44.96.96.96h2.89c.52 0 .94-.42.96-.96a.95.95 0 0 0-.96-.96Zm7.46 0h-2.89a.97.97 0 0 0-.96.96c0 .55.44.96.96.96h2.89a.96.96 0 0 0 0-1.92Zm7.47 0h-2.89a.97.97 0 0 0-.96.96c0 .55.44.96.96.96H780a.96.96 0 0 0 0-1.92Zm-14.93 4.4h-2.89c-.55 0-.96.44-.96.96s.44.96.96.96h2.89c.52 0 .94-.44.96-.96a.97.97 0 0 0-.96-.96Zm7.46 0h-2.89c-.52 0-.96.44-.96.96s.44.96.96.96h2.89c.52 0 .96-.44.96-.96s-.44-.96-.96-.96Zm7.47 0h-2.89c-.52 0-.96.44-.96.96s.44.96.96.96H780c.52 0 .96-.44.96-.96s-.44-.96-.96-.96Zm-14.93 4.37h-2.89a.95.95 0 0 0-.96.96c0 .55.44.96.96.96h2.89c.52 0 .94-.44.96-.96a.95.95 0 0 0-.96-.96Zm7.46 0h-2.89a.97.97 0 0 0-.96.96c0 .55.44.96.96.96h2.89c.52 0 .96-.44.96-.96a.95.95 0 0 0-.96-.96Zm7.47 0h-2.89a.97.97 0 0 0-.96.96c0 .55.44.96.96.96H780c.52 0 .96-.44.96-.96a.95.95 0 0 0-.96-.96Zm-14.93 4.4h-2.89c-.55 0-.96.44-.96.96s.44.96.96.96h2.89c.52 0 .94-.44.96-.96a.97.97 0 0 0-.96-.96Zm7.46 0h-2.89c-.52 0-.96.44-.96.96s.44.96.96.96h2.89c.52 0 .96-.44.96-.96s-.44-.96-.96-.96Zm7.47 0h-2.89c-.52 0-.96.44-.96.96s.44.96.96.96H780c.52 0 .96-.44.96-.96s-.44-.96-.96-.96Zm-17.82 4.37a.95.95 0 0 0-.96.96c0 .55.44.96.96.96h2.89c.52 0 .94-.42.96-.96a.95.95 0 0 0-.96-.96h-2.89Zm10.35 0h-2.89a.97.97 0 0 0-.96.96c0 .55.44.96.96.96h2.89a.96.96 0 0 0 0-1.92Zm7.47 0h-2.89a.97.97 0 0 0-.96.96c0 .55.44.96.96.96H780a.96.96 0 0 0 0-1.92Zm0 4.37h-2.89a.95.95 0 0 0-.96.96c0 .55.44.96.96.96H780a.96.96 0 0 0 0-1.92Zm66.27 7.23c.55 0 .96-.44.96-.96V98.58a38.73 38.73 0 0 1 26.1-36.63 38.77 38.77 0 0 1 26.1 36.63v131.08c0 .52.44.96.96.96s.96-.44.96-.96V98.58a40.66 40.66 0 0 0-27.71-38.56.83.83 0 0 0-.62 0 40.67 40.67 0 0 0-27.71 38.56V234.5c0 .52.44.96.96.96Z"/><path d="M880.82 69.99a.96.96 0 0 0 0-1.92h-15.01a.95.95 0 0 0-.96.96c0 .55.44.96.96.96h15.01Zm-21.31 4.97c0 .52.44.96.96.96h25.71c.52 0 .96-.44.96-.96s-.44-.96-.96-.96h-25.71a.95.95 0 0 0-.96.96Zm-4.4 5.96c0 .55.44.96.96.96h34.47c.52 0 .96-.44.96-.96a.95.95 0 0 0-.96-.96h-34.47a.97.97 0 0 0-.96.96Zm-2.73 5.93c0 .55.44.96.96.96h39.94c.52 0 .96-.44.96-.96a.95.95 0 0 0-.96-.96h-39.94a.97.97 0 0 0-.96.96Zm-1.82 5.93c0 .52.44.96.96.96h43.61c.52 0 .96-.44.96-.96s-.44-.96-.96-.96h-43.61a.97.97 0 0 0-.96.96Zm44.91 4.97h-44.34a.95.95 0 0 0-.96.96c0 .55.44.96.96.96h44.34c.55 0 .96-.42.96-.96s-.44-.96-.96-.96Zm0 5.93h-44.34c-.55 0-.96.44-.96.96s.44.96.96.96h44.34c.55 0 .96-.42.96-.96s-.44-.96-.96-.96Zm0 5.93h-44.34a.95.95 0 0 0-.96.96c0 .55.44.96.96.96h44.34c.55 0 .96-.42.96-.96s-.44-.96-.96-.96Zm0 5.94h-44.34c-.55 0-.96.44-.96.96s.44.96.96.96h44.34c.55 0 .96-.42.96-.96s-.44-.96-.96-.96Zm0 5.93h-44.34c-.55 0-.96.44-.96.96s.44.96.96.96h44.34c.55 0 .96-.42.96-.96s-.44-.96-.96-.96Zm0 5.96h-44.34c-.55 0-.96.44-.96.96s.44.96.96.96h44.34c.55 0 .96-.44.96-.96s-.44-.96-.96-.96Zm0 5.93h-44.34c-.55 0-.96.44-.96.96s.44.96.96.96h44.34c.55 0 .96-.44.96-.96s-.44-.96-.96-.96Zm0 5.93h-44.34c-.55 0-.96.44-.96.96s.44.96.96.96h44.34c.55 0 .96-.44.96-.96s-.44-.96-.96-.96Zm0 5.93h-44.34c-.55 0-.96.44-.96.96s.44.96.96.96h44.34c.55 0 .96-.42.96-.96s-.44-.96-.96-.96Zm0 5.94h-44.34c-.55 0-.96.44-.96.96s.44.96.96.96h44.34c.55 0 .96-.42.96-.96s-.44-.96-.96-.96Zm0 5.93h-44.34c-.55 0-.96.44-.96.96s.44.96.96.96h44.34c.55 0 .96-.42.96-.96s-.44-.96-.96-.96Zm0 5.93h-44.34c-.55 0-.96.44-.96.96s.44.96.96.96h44.34c.55 0 .96-.42.96-.96s-.44-.96-.96-.96Zm0 5.96h-44.34c-.55 0-.96.44-.96.96s.44.96.96.96h44.34c.55 0 .96-.44.96-.96s-.44-.96-.96-.96Zm0 5.93h-44.34c-.55 0-.96.44-.96.96s.44.96.96.96h44.34c.55 0 .96-.44.96-.96s-.44-.96-.96-.96Zm0 5.93h-44.34c-.55 0-.96.44-.96.96s.44.96.96.96h44.34c.55 0 .96-.44.96-.96a.95.95 0 0 0-.96-.96Zm0 5.93h-44.34c-.55 0-.96.44-.96.96s.44.96.96.96h44.34c.55 0 .96-.42.96-.96s-.44-.96-.96-.96Zm0 5.94h-44.34a.95.95 0 0 0-.96.96c0 .55.44.96.96.96h44.34c.55 0 .96-.42.96-.96s-.44-.96-.96-.96Zm0 5.93h-44.34c-.55 0-.96.44-.96.96s.44.96.96.96h44.34c.55 0 .96-.42.96-.96s-.44-.96-.96-.96Zm0 5.93h-44.34c-.55 0-.96.44-.96.96s.44.96.96.96h44.34c.55 0 .96-.42.96-.96s-.44-.96-.96-.96Zm0 5.93h-44.34a.95.95 0 0 0-.96.96c0 .55.44.96.96.96h44.34c.55 0 .96-.42.96-.96s-.44-.96-.96-.96Zm0 5.96h-44.34c-.55 0-.96.44-.96.96s.44.96.96.96h44.34c.55 0 .96-.44.96-.96s-.44-.96-.96-.96Zm0 5.93h-44.34a.95.95 0 0 0-.96.96c0 .55.44.96.96.96h44.34c.55 0 .96-.44.96-.96a.95.95 0 0 0-.96-.96Zm0 5.94h-44.34c-.55 0-.96.44-.96.96s.44.96.96.96h44.34c.55 0 .96-.42.96-.96s-.44-.96-.96-.96Zm-99.21-106.29v110.92c0 .55.44.96.96.96.55 0 .96-.44.96-.96V122.05c0-.52-.44-.96-.96-.96s-.96.44-.96.96Zm121.9-24.74c.52 0 .96-.44.96-.96v-1.09a.97.97 0 0 0-.96-.96.95.95 0 0 0-.96.96v1.09c0 .52.44.96.96.96Zm4.68 0c.52 0 .96-.44.96-.96v-1.09a.97.97 0 0 0-.96-.96.95.95 0 0 0-.96.96v1.09c0 .52.44.96.96.96Zm4.68 0c.52 0 .96-.44.96-.96v-1.09c0-.52-.44-.96-.96-.96s-.96.44-.96.96v1.09c0 .52.44.96.96.96Zm4.69 0c.52 0 .96-.44.96-.96v-1.09c0-.52-.44-.96-.96-.96s-.96.44-.96.96v1.09c0 .52.44.96.96.96Zm4.68 0c.52 0 .96-.44.96-.96v-1.09c0-.52-.44-.96-.96-.96s-.96.44-.96.96v1.09c0 .52.44.96.96.96Zm4.68 0c.52 0 .96-.44.96-.96v-1.09c0-.52-.44-.96-.96-.96s-.96.44-.96.96v1.09c0 .52.44.96.96.96Zm4.69 0c.52 0 .96-.44.96-.96v-1.09c0-.52-.44-.96-.96-.96s-.96.44-.96.96v1.09c0 .52.44.96.96.96Zm4.68 0c.52 0 .96-.44.96-.96v-1.09c0-.52-.44-.96-.96-.96s-.96.44-.96.96v1.09c0 .52.44.96.96.96Zm-33.75 5.33c0 .52.44.96.96.96s.96-.44.96-.96v-1.09a.97.97 0 0 0-.96-.96.95.95 0 0 0-.96.96v1.09Zm4.69 0c0 .52.44.96.96.96s.96-.44.96-.96v-1.09a.97.97 0 0 0-.96-.96.95.95 0 0 0-.96.96v1.09Zm4.68 0c0 .52.44.96.96.96s.96-.44.96-.96v-1.09c0-.52-.44-.96-.96-.96s-.96.44-.96.96v1.09Zm4.68 0c0 .52.44.96.96.96s.96-.44.96-.96v-1.09c0-.52-.44-.96-.96-.96s-.96.44-.96.96v1.09Zm4.69 0c0 .52.44.96.96.96s.96-.44.96-.96v-1.09c0-.52-.44-.96-.96-.96s-.96.44-.96.96v1.09Zm4.68 0c0 .52.44.96.96.96s.96-.44.96-.96v-1.09c0-.52-.44-.96-.96-.96s-.96.44-.96.96v1.09Zm4.68 0c0 .52.44.96.96.96s.96-.44.96-.96v-1.09c0-.52-.44-.96-.96-.96s-.96.44-.96.96v1.09Zm4.69 0c0 .52.44.96.96.96s.96-.44.96-.96v-1.09c0-.52-.44-.96-.96-.96s-.96.44-.96.96v1.09Zm-32.79 6.3c0 .52.44.96.96.96s.96-.42.96-.96v-1.09a.97.97 0 0 0-.96-.96.95.95 0 0 0-.96.96v1.09Zm4.69 0c0 .52.44.96.96.96s.96-.42.96-.96v-1.09a.97.97 0 0 0-.96-.96.95.95 0 0 0-.96.96v1.09Zm4.68 0c0 .52.44.96.96.96s.96-.42.96-.96v-1.09c0-.52-.44-.96-.96-.96s-.96.44-.96.96v1.09Zm4.68 0c0 .52.44.96.96.96s.96-.42.96-.96v-1.09c0-.52-.44-.96-.96-.96s-.96.44-.96.96v1.09Zm4.69 0c0 .52.44.96.96.96s.96-.42.96-.96v-1.09c0-.52-.44-.96-.96-.96s-.96.44-.96.96v1.09Zm4.68 0c0 .52.44.96.96.96s.96-.42.96-.96v-1.09c0-.52-.44-.96-.96-.96s-.96.44-.96.96v1.09Zm4.68 0c0 .52.44.96.96.96s.96-.42.96-.96v-1.09c0-.52-.44-.96-.96-.96s-.96.44-.96.96v1.09Zm4.69 0c0 .52.44.96.96.96s.96-.42.96-.96v-1.09c0-.52-.44-.96-.96-.96s-.96.44-.96.96v1.09Zm-32.79 6.29a.96.96 0 0 0 1.92 0v-1.09a.95.95 0 0 0-.96-.96.95.95 0 0 0-.96.96v1.09Zm4.69 0a.96.96 0 0 0 1.92 0v-1.09a.95.95 0 0 0-.96-.96.95.95 0 0 0-.96.96v1.09Zm4.68 0a.96.96 0 0 0 1.92 0v-1.09c0-.55-.44-.96-.96-.96s-.96.44-.96.96v1.09Zm4.68 0a.96.96 0 0 0 1.92 0v-1.09c0-.55-.44-.96-.96-.96s-.96.44-.96.96v1.09Zm4.69 0a.96.96 0 0 0 1.92 0v-1.09c0-.55-.44-.96-.96-.96s-.96.44-.96.96v1.09Zm4.68 0a.96.96 0 0 0 1.92 0v-1.09c0-.55-.44-.96-.96-.96s-.96.44-.96.96v1.09Zm4.68 0a.96.96 0 0 0 1.92 0v-1.09c0-.55-.44-.96-.96-.96s-.96.44-.96.96v1.09Zm4.69 0a.96.96 0 0 0 1.92 0v-1.09c0-.55-.44-.96-.96-.96s-.96.44-.96.96v1.09Zm-32.79 6.3c0 .52.44.96.96.96s.96-.42.96-.96v-1.09a.97.97 0 0 0-.96-.96.95.95 0 0 0-.96.96v1.09Zm4.69 0c0 .52.44.96.96.96s.96-.42.96-.96v-1.09a.97.97 0 0 0-.96-.96.95.95 0 0 0-.96.96v1.09Zm4.68 0c0 .52.44.96.96.96s.96-.42.96-.96v-1.09c0-.52-.44-.96-.96-.96s-.96.44-.96.96v1.09Zm4.68 0c0 .52.44.96.96.96s.96-.42.96-.96v-1.09c0-.52-.44-.96-.96-.96s-.96.44-.96.96v1.09Zm4.69 0c0 .52.44.96.96.96s.96-.42.96-.96v-1.09c0-.52-.44-.96-.96-.96s-.96.44-.96.96v1.09Zm4.68 0c0 .52.44.96.96.96s.96-.42.96-.96v-1.09c0-.52-.44-.96-.96-.96s-.96.44-.96.96v1.09Zm4.68 0c0 .52.44.96.96.96s.96-.42.96-.96v-1.09c0-.52-.44-.96-.96-.96s-.96.44-.96.96v1.09Zm4.69 0c0 .52.44.96.96.96s.96-.42.96-.96v-1.09c0-.52-.44-.96-.96-.96s-.96.44-.96.96v1.09Zm-32.79 6.32c0 .55.44.96.96.96s.96-.44.96-.96v-1.09a.95.95 0 0 0-.96-.96.95.95 0 0 0-.96.96v1.09Zm4.69 0c0 .55.44.96.96.96s.96-.44.96-.96v-1.09a.95.95 0 0 0-.96-.96.95.95 0 0 0-.96.96v1.09Zm4.68 0c0 .55.44.96.96.96s.96-.44.96-.96v-1.09c0-.55-.44-.96-.96-.96s-.96.44-.96.96v1.09Zm4.68 0c0 .55.44.96.96.96s.96-.44.96-.96v-1.09c0-.55-.44-.96-.96-.96s-.96.44-.96.96v1.09Zm4.69 0c0 .55.44.96.96.96s.96-.44.96-.96v-1.09c0-.55-.44-.96-.96-.96s-.96.44-.96.96v1.09Zm4.68 0c0 .55.44.96.96.96s.96-.44.96-.96v-1.09c0-.55-.44-.96-.96-.96s-.96.44-.96.96v1.09Zm4.68 0c0 .55.44.96.96.96s.96-.44.96-.96v-1.09c0-.55-.44-.96-.96-.96s-.96.44-.96.96v1.09Zm4.69 0c0 .55.44.96.96.96s.96-.44.96-.96v-1.09c0-.55-.44-.96-.96-.96s-.96.44-.96.96v1.09Zm-32.79 6.3c0 .52.44.96.96.96s.96-.44.96-.96v-1.09a.95.95 0 0 0-.96-.96.95.95 0 0 0-.96.96v1.09Zm4.69 0c0 .52.44.96.96.96s.96-.44.96-.96v-1.09a.95.95 0 0 0-.96-.96.95.95 0 0 0-.96.96v1.09Zm4.68 0c0 .52.44.96.96.96s.96-.44.96-.96v-1.09c0-.55-.44-.96-.96-.96s-.96.44-.96.96v1.09Zm4.68 0c0 .52.44.96.96.96s.96-.44.96-.96v-1.09c0-.55-.44-.96-.96-.96s-.96.44-.96.96v1.09Zm4.69 0c0 .52.44.96.96.96s.96-.44.96-.96v-1.09c0-.55-.44-.96-.96-.96s-.96.44-.96.96v1.09Zm4.68 0c0 .52.44.96.96.96s.96-.44.96-.96v-1.09c0-.55-.44-.96-.96-.96s-.96.44-.96.96v1.09Zm4.68 0c0 .52.44.96.96.96s.96-.44.96-.96v-1.09c0-.55-.44-.96-.96-.96s-.96.44-.96.96v1.09Zm4.69 0c0 .52.44.96.96.96s.96-.44.96-.96v-1.09c0-.55-.44-.96-.96-.96s-.96.44-.96.96v1.09Zm-32.79 6.3c0 .52.44.96.96.96s.96-.42.96-.96v-1.09a.97.97 0 0 0-.96-.96.95.95 0 0 0-.96.96v1.09Zm4.69 0c0 .52.44.96.96.96s.96-.42.96-.96v-1.09a.97.97 0 0 0-.96-.96.95.95 0 0 0-.96.96v1.09Zm4.68 0c0 .52.44.96.96.96s.96-.42.96-.96v-1.09c0-.52-.44-.96-.96-.96s-.96.44-.96.96v1.09Zm4.68 0c0 .52.44.96.96.96s.96-.42.96-.96v-1.09c0-.52-.44-.96-.96-.96s-.96.44-.96.96v1.09Zm4.69 0c0 .52.44.96.96.96s.96-.42.96-.96v-1.09c0-.52-.44-.96-.96-.96s-.96.44-.96.96v1.09Zm4.68 0c0 .52.44.96.96.96s.96-.42.96-.96v-1.09c0-.52-.44-.96-.96-.96s-.96.44-.96.96v1.09Zm4.68 0c0 .52.44.96.96.96s.96-.42.96-.96v-1.09c0-.52-.44-.96-.96-.96s-.96.44-.96.96v1.09Zm4.69 0c0 .52.44.96.96.96s.96-.42.96-.96v-1.09c0-.52-.44-.96-.96-.96s-.96.44-.96.96v1.09Zm-32.79 6.29c0 .52.44.96.96.96s.96-.42.96-.96v-1.09a.97.97 0 0 0-.96-.96.95.95 0 0 0-.96.96v1.09Zm4.69 0c0 .52.44.96.96.96s.96-.42.96-.96v-1.09a.97.97 0 0 0-.96-.96.95.95 0 0 0-.96.96v1.09Zm4.68 0c0 .52.44.96.96.96s.96-.42.96-.96v-1.09c0-.52-.44-.96-.96-.96s-.96.44-.96.96v1.09Zm4.68 0c0 .52.44.96.96.96s.96-.42.96-.96v-1.09c0-.52-.44-.96-.96-.96s-.96.44-.96.96v1.09Zm4.69 0c0 .52.44.96.96.96s.96-.42.96-.96v-1.09c0-.52-.44-.96-.96-.96s-.96.44-.96.96v1.09Zm4.68 0c0 .52.44.96.96.96s.96-.42.96-.96v-1.09c0-.52-.44-.96-.96-.96s-.96.44-.96.96v1.09Zm4.68 0c0 .52.44.96.96.96s.96-.42.96-.96v-1.09c0-.52-.44-.96-.96-.96s-.96.44-.96.96v1.09Zm4.69 0c0 .52.44.96.96.96s.96-.42.96-.96v-1.09c0-.52-.44-.96-.96-.96s-.96.44-.96.96v1.09Zm-32.79 6.3c0 .52.44.96.96.96s.96-.42.96-.96v-1.09a.97.97 0 0 0-.96-.96.95.95 0 0 0-.96.96v1.09Zm4.69 0c0 .52.44.96.96.96s.96-.42.96-.96v-1.09a.97.97 0 0 0-.96-.96.95.95 0 0 0-.96.96v1.09Zm4.68 0c0 .52.44.96.96.96s.96-.42.96-.96v-1.09c0-.52-.44-.96-.96-.96s-.96.44-.96.96v1.09Zm4.68 0c0 .52.44.96.96.96s.96-.42.96-.96v-1.09c0-.52-.44-.96-.96-.96s-.96.44-.96.96v1.09Zm4.69 0c0 .52.44.96.96.96s.96-.42.96-.96v-1.09c0-.52-.44-.96-.96-.96s-.96.44-.96.96v1.09Zm4.68 0c0 .52.44.96.96.96s.96-.42.96-.96v-1.09c0-.52-.44-.96-.96-.96s-.96.44-.96.96v1.09Zm4.68 0c0 .52.44.96.96.96s.96-.42.96-.96v-1.09c0-.52-.44-.96-.96-.96s-.96.44-.96.96v1.09Zm4.69 0c0 .52.44.96.96.96s.96-.42.96-.96v-1.09c0-.52-.44-.96-.96-.96s-.96.44-.96.96v1.09Zm-32.79 6.3c0 .52.44.96.96.96s.96-.42.96-.96v-1.09a.97.97 0 0 0-.96-.96.95.95 0 0 0-.96.96v1.09Zm4.69 0c0 .52.44.96.96.96s.96-.42.96-.96v-1.09a.97.97 0 0 0-.96-.96.95.95 0 0 0-.96.96v1.09Zm4.68 0c0 .52.44.96.96.96s.96-.42.96-.96v-1.09c0-.52-.44-.96-.96-.96s-.96.44-.96.96v1.09Zm4.68 0c0 .52.44.96.96.96s.96-.42.96-.96v-1.09c0-.52-.44-.96-.96-.96s-.96.44-.96.96v1.09Zm4.69 0c0 .52.44.96.96.96s.96-.42.96-.96v-1.09c0-.52-.44-.96-.96-.96s-.96.44-.96.96v1.09Zm4.68 0c0 .52.44.96.96.96s.96-.42.96-.96v-1.09c0-.52-.44-.96-.96-.96s-.96.44-.96.96v1.09Zm4.68 0c0 .52.44.96.96.96s.96-.42.96-.96v-1.09c0-.52-.44-.96-.96-.96s-.96.44-.96.96v1.09Zm4.69 0c0 .52.44.96.96.96s.96-.42.96-.96v-1.09c0-.52-.44-.96-.96-.96s-.96.44-.96.96v1.09Zm-32.79 6.32c0 .55.44.96.96.96s.96-.44.96-.96v-1.09a.97.97 0 0 0-.96-.96.95.95 0 0 0-.96.96v1.09Zm4.69 0c0 .55.44.96.96.96s.96-.44.96-.96v-1.09a.97.97 0 0 0-.96-.96.95.95 0 0 0-.96.96v1.09Zm4.68 0c0 .55.44.96.96.96s.96-.44.96-.96v-1.09c0-.52-.44-.96-.96-.96s-.96.44-.96.96v1.09Zm4.68 0c0 .55.44.96.96.96s.96-.44.96-.96v-1.09c0-.52-.44-.96-.96-.96s-.96.44-.96.96v1.09Zm4.69 0c0 .55.44.96.96.96s.96-.44.96-.96v-1.09c0-.52-.44-.96-.96-.96s-.96.44-.96.96v1.09Zm4.68 0c0 .55.44.96.96.96s.96-.44.96-.96v-1.09c0-.52-.44-.96-.96-.96s-.96.44-.96.96v1.09Zm4.68 0c0 .55.44.96.96.96s.96-.44.96-.96v-1.09c0-.52-.44-.96-.96-.96s-.96.44-.96.96v1.09Zm4.69 0c0 .55.44.96.96.96s.96-.44.96-.96v-1.09c0-.52-.44-.96-.96-.96s-.96.44-.96.96v1.09Zm-32.79 6.29c0 .55.44.96.96.96s.96-.44.96-.96v-1.09a.95.95 0 0 0-.96-.96.95.95 0 0 0-.96.96v1.09Zm4.69 0c0 .55.44.96.96.96s.96-.44.96-.96v-1.09a.95.95 0 0 0-.96-.96.95.95 0 0 0-.96.96v1.09Zm4.68 0c0 .55.44.96.96.96s.96-.44.96-.96v-1.09c0-.55-.44-.96-.96-.96s-.96.44-.96.96v1.09Zm4.68 0c0 .55.44.96.96.96s.96-.44.96-.96v-1.09c0-.55-.44-.96-.96-.96s-.96.44-.96.96v1.09Zm4.69 0c0 .55.44.96.96.96s.96-.44.96-.96v-1.09c0-.55-.44-.96-.96-.96s-.96.44-.96.96v1.09Zm4.68 0c0 .55.44.96.96.96s.96-.44.96-.96v-1.09c0-.55-.44-.96-.96-.96s-.96.44-.96.96v1.09Zm4.68 0c0 .55.44.96.96.96s.96-.44.96-.96v-1.09c0-.55-.44-.96-.96-.96s-.96.44-.96.96v1.09Zm4.69 0c0 .55.44.96.96.96s.96-.44.96-.96v-1.09c0-.55-.44-.96-.96-.96s-.96.44-.96.96v1.09Zm-32.79 6.3c0 .52.44.96.96.96s.96-.42.96-.96v-1.09a.97.97 0 0 0-.96-.96.95.95 0 0 0-.96.96v1.09Zm4.69 0c0 .52.44.96.96.96s.96-.42.96-.96v-1.09a.97.97 0 0 0-.96-.96.95.95 0 0 0-.96.96v1.09Zm4.68 0c0 .52.44.96.96.96s.96-.42.96-.96v-1.09c0-.52-.44-.96-.96-.96s-.96.44-.96.96v1.09Zm4.68 0c0 .52.44.96.96.96s.96-.42.96-.96v-1.09c0-.52-.44-.96-.96-.96s-.96.44-.96.96v1.09Zm4.69 0c0 .52.44.96.96.96s.96-.42.96-.96v-1.09c0-.52-.44-.96-.96-.96s-.96.44-.96.96v1.09Zm4.68 0c0 .52.44.96.96.96s.96-.42.96-.96v-1.09c0-.52-.44-.96-.96-.96s-.96.44-.96.96v1.09Zm4.68 0c0 .52.44.96.96.96s.96-.42.96-.96v-1.09c0-.52-.44-.96-.96-.96s-.96.44-.96.96v1.09Zm4.69 0c0 .52.44.96.96.96s.96-.42.96-.96v-1.09c0-.52-.44-.96-.96-.96s-.96.44-.96.96v1.09Zm-32.79 6.3a.96.96 0 0 0 1.92 0v-1.09a.95.95 0 0 0-.96-.96.95.95 0 0 0-.96.96v1.09Zm4.69 0a.96.96 0 0 0 1.92 0v-1.09a.95.95 0 0 0-.96-.96.95.95 0 0 0-.96.96v1.09Zm4.68 0a.96.96 0 0 0 1.92 0v-1.09c0-.55-.44-.96-.96-.96s-.96.44-.96.96v1.09Zm4.68 0a.96.96 0 0 0 1.92 0v-1.09c0-.55-.44-.96-.96-.96s-.96.44-.96.96v1.09Zm4.69 0a.96.96 0 0 0 1.92 0v-1.09c0-.55-.44-.96-.96-.96s-.96.44-.96.96v1.09Zm4.68 0a.96.96 0 0 0 1.92 0v-1.09c0-.55-.44-.96-.96-.96s-.96.44-.96.96v1.09Zm4.68 0a.96.96 0 0 0 1.92 0v-1.09c0-.55-.44-.96-.96-.96s-.96.44-.96.96v1.09Zm4.69 0a.96.96 0 0 0 1.92 0v-1.09c0-.55-.44-.96-.96-.96s-.96.44-.96.96v1.09Zm-32.79 6.29c0 .52.44.96.96.96s.96-.42.96-.96v-1.09a.97.97 0 0 0-.96-.96.95.95 0 0 0-.96.96v1.09Zm4.69 0c0 .52.44.96.96.96s.96-.42.96-.96v-1.09a.97.97 0 0 0-.96-.96.95.95 0 0 0-.96.96v1.09Zm4.68 0c0 .52.44.96.96.96s.96-.42.96-.96v-1.09c0-.52-.44-.96-.96-.96s-.96.44-.96.96v1.09Zm4.68 0c0 .52.44.96.96.96s.96-.42.96-.96v-1.09c0-.52-.44-.96-.96-.96s-.96.44-.96.96v1.09Zm4.69 0c0 .52.44.96.96.96s.96-.42.96-.96v-1.09c0-.52-.44-.96-.96-.96s-.96.44-.96.96v1.09Zm4.68 0c0 .52.44.96.96.96s.96-.42.96-.96v-1.09c0-.52-.44-.96-.96-.96s-.96.44-.96.96v1.09Zm4.68 0c0 .52.44.96.96.96s.96-.42.96-.96v-1.09c0-.52-.44-.96-.96-.96s-.96.44-.96.96v1.09Zm4.69 0c0 .52.44.96.96.96s.96-.42.96-.96v-1.09c0-.52-.44-.96-.96-.96s-.96.44-.96.96v1.09Zm-32.79 6.33c0 .52.44.96.96.96s.96-.44.96-.96v-1.09a.97.97 0 0 0-.96-.96.95.95 0 0 0-.96.96v1.09Zm4.69 0c0 .52.44.96.96.96s.96-.44.96-.96v-1.09a.97.97 0 0 0-.96-.96.95.95 0 0 0-.96.96v1.09Zm4.68 0c0 .52.44.96.96.96s.96-.44.96-.96v-1.09c0-.52-.44-.96-.96-.96s-.96.44-.96.96v1.09Zm4.68 0c0 .52.44.96.96.96s.96-.44.96-.96v-1.09c0-.52-.44-.96-.96-.96s-.96.44-.96.96v1.09Zm4.69 0c0 .52.44.96.96.96s.96-.44.96-.96v-1.09c0-.52-.44-.96-.96-.96s-.96.44-.96.96v1.09Zm4.68 0c0 .52.44.96.96.96s.96-.44.96-.96v-1.09c0-.52-.44-.96-.96-.96s-.96.44-.96.96v1.09Zm4.68 0c0 .52.44.96.96.96s.96-.44.96-.96v-1.09c0-.52-.44-.96-.96-.96s-.96.44-.96.96v1.09Zm4.69 0c0 .52.44.96.96.96s.96-.44.96-.96v-1.09c0-.52-.44-.96-.96-.96s-.96.44-.96.96v1.09Zm-32.79 6.29c0 .52.44.96.96.96s.96-.44.96-.96v-1.09a.97.97 0 0 0-.96-.96.95.95 0 0 0-.96.96v1.09Zm4.69 0c0 .52.44.96.96.96s.96-.44.96-.96v-1.09a.97.97 0 0 0-.96-.96.95.95 0 0 0-.96.96v1.09Zm4.68 0c0 .52.44.96.96.96s.96-.44.96-.96v-1.09c0-.52-.44-.96-.96-.96s-.96.44-.96.96v1.09Zm4.68 0c0 .52.44.96.96.96s.96-.44.96-.96v-1.09c0-.52-.44-.96-.96-.96s-.96.44-.96.96v1.09Zm4.69 0c0 .52.44.96.96.96s.96-.44.96-.96v-1.09c0-.52-.44-.96-.96-.96s-.96.44-.96.96v1.09Zm4.68 0c0 .52.44.96.96.96s.96-.44.96-.96v-1.09c0-.52-.44-.96-.96-.96s-.96.44-.96.96v1.09Zm4.68 0c0 .52.44.96.96.96s.96-.44.96-.96v-1.09c0-.52-.44-.96-.96-.96s-.96.44-.96.96v1.09Zm4.69 0c0 .52.44.96.96.96s.96-.44.96-.96v-1.09c0-.52-.44-.96-.96-.96s-.96.44-.96.96v1.09Zm-32.79 6.3a.96.96 0 0 0 1.92 0v-1.09a.95.95 0 0 0-.96-.96.95.95 0 0 0-.96.96v1.09Zm4.69 0a.96.96 0 0 0 1.92 0v-1.09a.95.95 0 0 0-.96-.96.95.95 0 0 0-.96.96v1.09Zm4.68 0a.96.96 0 0 0 1.92 0v-1.09c0-.55-.44-.96-.96-.96s-.96.44-.96.96v1.09Zm4.68 0a.96.96 0 0 0 1.92 0v-1.09c0-.55-.44-.96-.96-.96s-.96.44-.96.96v1.09Zm4.69 0a.96.96 0 0 0 1.92 0v-1.09c0-.55-.44-.96-.96-.96s-.96.44-.96.96v1.09Zm4.68 0a.96.96 0 0 0 1.92 0v-1.09c0-.55-.44-.96-.96-.96s-.96.44-.96.96v1.09Zm4.68 0a.96.96 0 0 0 1.92 0v-1.09c0-.55-.44-.96-.96-.96s-.96.44-.96.96v1.09Zm4.69 0a.96.96 0 0 0 1.92 0v-1.09c0-.55-.44-.96-.96-.96s-.96.44-.96.96v1.09Zm-32.79 6.29c0 .55.44.96.96.96s.96-.44.96-.96v-1.09a.97.97 0 0 0-.96-.96.95.95 0 0 0-.96.96v1.09Zm4.69 0c0 .55.44.96.96.96s.96-.44.96-.96v-1.09a.97.97 0 0 0-.96-.96.95.95 0 0 0-.96.96v1.09Zm4.68 0c0 .55.44.96.96.96s.96-.44.96-.96v-1.09c0-.52-.44-.96-.96-.96s-.96.44-.96.96v1.09Zm4.68 0c0 .55.44.96.96.96s.96-.44.96-.96v-1.09c0-.52-.44-.96-.96-.96s-.96.44-.96.96v1.09Zm4.69 0c0 .55.44.96.96.96s.96-.44.96-.96v-1.09c0-.52-.44-.96-.96-.96s-.96.44-.96.96v1.09Zm4.68 0c0 .55.44.96.96.96s.96-.44.96-.96v-1.09c0-.52-.44-.96-.96-.96s-.96.44-.96.96v1.09Zm4.68 0c0 .55.44.96.96.96s.96-.44.96-.96v-1.09c0-.52-.44-.96-.96-.96s-.96.44-.96.96v1.09Zm4.69 0c0 .55.44.96.96.96s.96-.44.96-.96v-1.09c0-.52-.44-.96-.96-.96s-.96.44-.96.96v1.09Zm-32.79 6.3a.96.96 0 0 0 1.92 0v-1.09a.95.95 0 0 0-.96-.96.95.95 0 0 0-.96.96v1.09Zm4.69 0a.96.96 0 0 0 1.92 0v-1.09a.95.95 0 0 0-.96-.96.95.95 0 0 0-.96.96v1.09Zm4.68 0a.96.96 0 0 0 1.92 0v-1.09c0-.55-.44-.96-.96-.96s-.96.44-.96.96v1.09Zm4.68 0a.96.96 0 0 0 1.92 0v-1.09c0-.55-.44-.96-.96-.96s-.96.44-.96.96v1.09Zm4.69 0a.96.96 0 0 0 1.92 0v-1.09c0-.55-.44-.96-.96-.96s-.96.44-.96.96v1.09Zm4.68 0a.96.96 0 0 0 1.92 0v-1.09c0-.55-.44-.96-.96-.96s-.96.44-.96.96v1.09Zm4.68 0a.96.96 0 0 0 1.92 0v-1.09c0-.55-.44-.96-.96-.96s-.96.44-.96.96v1.09Zm4.69 0a.96.96 0 0 0 1.92 0v-1.09c0-.55-.44-.96-.96-.96s-.96.44-.96.96v1.09Zm-32.79 6.3c0 .52.44.96.96.96s.96-.42.96-.96v-1.09a.97.97 0 0 0-.96-.96.95.95 0 0 0-.96.96v1.09Zm4.69 0c0 .52.44.96.96.96s.96-.42.96-.96v-1.09a.97.97 0 0 0-.96-.96.95.95 0 0 0-.96.96v1.09Zm4.68 0c0 .52.44.96.96.96s.96-.42.96-.96v-1.09c0-.52-.44-.96-.96-.96s-.96.44-.96.96v1.09Zm4.68 0c0 .52.44.96.96.96s.96-.42.96-.96v-1.09c0-.52-.44-.96-.96-.96s-.96.44-.96.96v1.09Zm4.69 0c0 .52.44.96.96.96s.96-.42.96-.96v-1.09c0-.52-.44-.96-.96-.96s-.96.44-.96.96v1.09Zm4.68 0c0 .52.44.96.96.96s.96-.42.96-.96v-1.09c0-.52-.44-.96-.96-.96s-.96.44-.96.96v1.09Zm4.68 0c0 .52.44.96.96.96s.96-.42.96-.96v-1.09c0-.52-.44-.96-.96-.96s-.96.44-.96.96v1.09Zm4.69 0c0 .52.44.96.96.96s.96-.42.96-.96v-1.09c0-.52-.44-.96-.96-.96s-.96.44-.96.96v1.09Zm-32.79 6.32c0 .52.44.96.96.96s.96-.44.96-.96v-1.09a.97.97 0 0 0-.96-.96.95.95 0 0 0-.96.96v1.09Zm4.69 0c0 .52.44.96.96.96s.96-.44.96-.96v-1.09a.97.97 0 0 0-.96-.96.95.95 0 0 0-.96.96v1.09Zm4.68 0c0 .52.44.96.96.96s.96-.44.96-.96v-1.09c0-.52-.44-.96-.96-.96s-.96.44-.96.96v1.09Zm4.68 0c0 .52.44.96.96.96s.96-.44.96-.96v-1.09c0-.52-.44-.96-.96-.96s-.96.44-.96.96v1.09Zm4.69 0c0 .52.44.96.96.96s.96-.44.96-.96v-1.09c0-.52-.44-.96-.96-.96s-.96.44-.96.96v1.09Zm4.68 0c0 .52.44.96.96.96s.96-.44.96-.96v-1.09c0-.52-.44-.96-.96-.96s-.96.44-.96.96v1.09Zm4.68 0c0 .52.44.96.96.96s.96-.44.96-.96v-1.09c0-.52-.44-.96-.96-.96s-.96.44-.96.96v1.09Zm4.69 0c0 .52.44.96.96.96s.96-.44.96-.96v-1.09c0-.52-.44-.96-.96-.96s-.96.44-.96.96v1.09Zm-18.74 6.3c0 .52.44.96.96.96s.96-.44.96-.96v-1.09c0-.52-.44-.96-.96-.96s-.96.44-.96.96v1.09Zm4.69 0c0 .52.44.96.96.96s.96-.44.96-.96v-1.09c0-.52-.44-.96-.96-.96s-.96.44-.96.96v1.09Zm4.68 0c0 .52.44.96.96.96s.96-.44.96-.96v-1.09c0-.52-.44-.96-.96-.96s-.96.44-.96.96v1.09Zm4.68 0c0 .52.44.96.96.96s.96-.44.96-.96v-1.09c0-.52-.44-.96-.96-.96s-.96.44-.96.96v1.09Zm4.69 0c0 .52.44.96.96.96s.96-.44.96-.96v-1.09c0-.52-.44-.96-.96-.96s-.96.44-.96.96v1.09Zm-14.05 6.29c0 .52.44.96.96.96s.96-.44.96-.96v-1.09c0-.52-.44-.96-.96-.96s-.96.44-.96.96v1.09Zm4.68 0c0 .52.44.96.96.96s.96-.44.96-.96v-1.09c0-.52-.44-.96-.96-.96s-.96.44-.96.96v1.09Zm4.68 0c0 .52.44.96.96.96s.96-.44.96-.96v-1.09c0-.52-.44-.96-.96-.96s-.96.44-.96.96v1.09Zm4.69 0c0 .52.44.96.96.96s.96-.44.96-.96v-1.09c0-.52-.44-.96-.96-.96s-.96.44-.96.96v1.09Zm-14.05 6.3c0 .52.44.96.96.96s.96-.44.96-.96v-1.09c0-.52-.44-.96-.96-.96s-.96.44-.96.96v1.09Zm4.68 0c0 .52.44.96.96.96s.96-.44.96-.96v-1.09c0-.52-.44-.96-.96-.96s-.96.44-.96.96v1.09Zm4.68 0c0 .52.44.96.96.96s.96-.44.96-.96v-1.09c0-.52-.44-.96-.96-.96s-.96.44-.96.96v1.09Zm4.69 0c0 .52.44.96.96.96s.96-.44.96-.96v-1.09c0-.52-.44-.96-.96-.96s-.96.44-.96.96v1.09Zm-16.81 5.2c0-.55-.44-.96-.96-.96s-.96.44-.96.96v1.09a.96.96 0 0 0 1.92 0v-1.09Zm2.76 1.1a.96.96 0 0 0 1.92 0v-1.09c0-.55-.44-.96-.96-.96s-.96.44-.96.96v1.09Zm4.68 0a.96.96 0 0 0 1.92 0v-1.09c0-.55-.44-.96-.96-.96s-.96.44-.96.96v1.09Zm4.68 0a.96.96 0 0 0 1.92 0v-1.09c0-.55-.44-.96-.96-.96s-.96.44-.96.96v1.09Zm4.69 0a.96.96 0 0 0 1.92 0v-1.09c0-.55-.44-.96-.96-.96s-.96.44-.96.96v1.09Zm-17.77 4.24a.97.97 0 0 0-.96.96v1.09a.96.96 0 0 0 1.92 0v-1.09a.95.95 0 0 0-.96-.96Zm3.72 2.05a.96.96 0 0 0 1.92 0v-1.09c0-.55-.44-.96-.96-.96s-.96.44-.96.96v1.09Zm4.68 0a.96.96 0 0 0 1.92 0v-1.09c0-.55-.44-.96-.96-.96s-.96.44-.96.96v1.09Zm4.68 0a.96.96 0 0 0 1.92 0v-1.09c0-.55-.44-.96-.96-.96s-.96.44-.96.96v1.09Zm4.69 0a.96.96 0 0 0 1.92 0v-1.09c0-.55-.44-.96-.96-.96s-.96.44-.96.96v1.09ZM116.69 143.7c-.79 2.18-.3 4.8 1.41 7.63-.56 1.32-.99 2.8-1.17 4.44a.95.95 0 0 0 .83 1.07h.1c.49 0 .91-.36.94-.86.15-1.34.49-2.54.94-3.65.7.12 1.78.26 3.09.26 2.73-.03 6.56-.65 9.26-3.67 5.31-5.8 2.19-16.96 2.06-17.43-.1-.44-.55-.73-1.02-.68s-.83.44-.86.91c-.05 1.3-.23 4.01-9.16 6.87-3.43 1.12-5.59 2.81-6.43 5.1Zm16.29-8.46c.52 3.51.73 9.13-2.26 12.41-2.26 2.5-5.52 3.02-7.86 3.02-.87 0-1.63-.07-2.22-.15 2.49-4.24 6.51-6.31 6.57-6.35a.94.94 0 0 0 .44-1.28.94.94 0 0 0-1.28-.44c-.24.13-4.45 2.29-7.2 6.81-.75-1.52-1.24-3.32-.66-4.91.6-1.69 2.37-3.02 5.2-3.93 5.31-1.69 7.96-3.46 9.26-5.18ZM118.3 131c1.05 0 1.93-.1 2.54-.2.36.91.64 1.91.76 3.01.05.49.47.86.96.86h.08c.52-.05.88-.55.83-1.07-.15-1.39-.5-2.64-.97-3.77 1.48-2.48 1.92-4.79 1.23-6.69-.7-2-2.6-3.51-5.62-4.48-7.62-2.42-7.75-4.71-7.83-5.8a.97.97 0 0 0-.86-.91.93.93 0 0 0-1.01.68c-.13.42-2.84 10.12 1.79 15.19 2.39 2.63 5.72 3.17 8.09 3.17Zm-8.66-14.78c1.22 1.41 3.51 2.86 7.91 4.27 2.39.78 3.88 1.87 4.4 3.3.46 1.3.09 2.74-.49 3.99a17.01 17.01 0 0 0-6.19-5.79.95.95 0 0 0-1.27.44.96.96 0 0 0 .44 1.28c.06.02 3.4 1.76 5.53 5.29-.47.05-1.02.09-1.65.09-1.98 0-4.76-.44-6.69-2.55-2.47-2.71-2.39-7.29-1.98-10.33Zm31.01 131.92h6.11c.52 0 .94-.44.96-.96v-6.11a.97.97 0 0 0-.96-.96h-6.11a.97.97 0 0 0-.96.96v6.11c0 .52.44.96.96.96Zm.94-6.11h4.19v4.19h-4.19v-4.19Zm-.94 17.03h6.11c.52 0 .94-.42.96-.96v-6.11a.97.97 0 0 0-.96-.96h-6.11a.97.97 0 0 0-.96.96v6.11c0 .55.44.96.96.96Zm.94-6.11h4.19v4.21h-4.19v-4.21Zm-.94 17.07h6.11c.52 0 .94-.44.96-.96v-6.11a.97.97 0 0 0-.96-.96h-6.11a.97.97 0 0 0-.96.96v6.11c0 .52.44.96.96.96Zm.94-6.14h4.19v4.22h-4.19v-4.22Zm23.37-15.74h6.14c.52 0 .94-.44.94-.96v-6.11a.97.97 0 0 0-.96-.96h-6.11a.97.97 0 0 0-.96.96v6.11c0 .52.44.96.96.96Zm.96-6.11h4.21v4.19h-4.21v-4.19Zm-.96 17.03h6.14c.52 0 .94-.42.94-.96v-6.11a.97.97 0 0 0-.96-.96h-6.11a.97.97 0 0 0-.96.96v6.11c0 .55.44.96.96.96Zm.96-6.11h4.21v4.21h-4.21v-4.21Zm-.96 17.07h6.14c.52 0 .94-.44.94-.96v-6.11a.97.97 0 0 0-.96-.96h-6.11a.97.97 0 0 0-.96.96v6.11c0 .52.44.96.96.96Zm.96-6.14h4.21v4.22h-4.21v-4.22Zm23.36-15.74h6.12c.55 0 .96-.44.96-.96v-6.11a.97.97 0 0 0-.96-.96h-6.12a.97.97 0 0 0-.96.96v6.11c0 .52.44.96.96.96Zm.96-6.11h4.22v4.19h-4.22v-4.19Zm-.96 17.03h6.12c.55 0 .96-.42.96-.96v-6.11a.97.97 0 0 0-.96-.96h-6.12a.97.97 0 0 0-.96.96v6.11c0 .55.44.96.96.96Zm.96-6.11h4.22v4.21h-4.22v-4.21Zm-.96 17.07h6.12c.55 0 .96-.44.96-.96v-6.11a.97.97 0 0 0-.96-.96h-6.12a.97.97 0 0 0-.96.96v6.11c0 .52.44.96.96.96Zm.96-6.14h4.22v4.22h-4.22v-4.22Zm-34.65 6.14c.52 0 .96-.44.96-.96v-28c0-.52-.44-.96-.96-.96s-.96.44-.96.96v28c0 .52.44.96.96.96Zm24.87 0c.52 0 .96-.44.96-.96v-28c0-.52-.44-.96-.96-.96s-.96.44-.96.96v28c0 .52.44.96.96.96Zm217.93-30.63h-23.42a.97.97 0 0 0-.96.96v24.07c0 .52.44.96.96.96h23.42c.52 0 .96-.44.96-.96v-24.07a.97.97 0 0 0-.96-.96Zm-.96 8.01h-5.88v-6.11h5.88v6.11Zm-13.69 8.04v-6.11h5.88v6.11h-5.88Zm5.88 1.93v6.09h-5.88v-6.09h5.88Zm-7.8-1.93h-5.88v-6.11h5.88v6.11Zm1.92-8.04v-6.11h5.88v6.11h-5.88Zm7.81 1.92h5.88v6.11h-5.88v-6.11Zm-9.73-8.04v6.11h-5.88v-6.11h5.88Zm-5.88 16.08h5.88v6.09h-5.88v-6.09Zm15.61 6.09v-6.09h5.88v6.09h-5.88Zm-46.37-24.06h-23.42a.97.97 0 0 0-.96.96v24.07c0 .52.44.96.96.96h23.42c.52 0 .96-.44.96-.96v-24.07a.97.97 0 0 0-.96-.96Zm-.96 8.01h-5.88v-6.11h5.88v6.11Zm-13.69 8.04v-6.11h5.88v6.11h-5.88Zm5.88 1.93v6.09h-5.88v-6.09h5.88Zm-7.81-1.93h-5.88v-6.11h5.88v6.11Zm1.93-8.04v-6.11h5.88v6.11h-5.88Zm7.8 1.92h5.88v6.11h-5.88v-6.11Zm-9.73-8.04v6.11h-5.88v-6.11h5.88Zm-5.88 16.08h5.88v6.09h-5.88v-6.09Zm15.61 6.09v-6.09h5.88v6.09h-5.88Zm112.54-24.06h-23.42a.97.97 0 0 0-.96.96v24.07c0 .52.44.96.96.96h23.42c.55 0 .96-.44.96-.96v-24.07a.97.97 0 0 0-.96-.96Zm-.96 8.01h-5.88v-6.11h5.88v6.11Zm-13.68 8.04v-6.11h5.88v6.11h-5.88Zm5.88 1.93v6.09h-5.88v-6.09h5.88Zm-7.81-1.93h-5.88v-6.11h5.88v6.11Zm1.93-8.04v-6.11h5.88v6.11h-5.88Zm7.8 1.92h5.88v6.11h-5.88v-6.11Zm-9.73-8.04v6.11h-5.88v-6.11h5.88Zm-5.88 16.08h5.88v6.09h-5.88v-6.09Zm15.61 6.09v-6.09h5.88v6.09h-5.88Zm58.72-24.06h-23.42a.95.95 0 0 0-.96.96v24.07c0 .52.44.96.96.96h23.42c.52 0 .96-.44.96-.96v-24.07a.97.97 0 0 0-.96-.96Zm-.96 8.01h-5.88v-6.11h5.88v6.11Zm-13.69 8.04v-6.11h5.88v6.11h-5.88Zm5.88 1.93v6.09h-5.88v-6.09h5.88Zm-7.8-1.93h-5.88v-6.11h5.88v6.11Zm1.92-8.04v-6.11h5.88v6.11h-5.88Zm7.8 1.92h5.88v6.11h-5.88v-6.11Zm-9.73-8.04v6.11h-5.88v-6.11h5.88Zm-5.88 16.08h5.88v6.09h-5.88v-6.09Zm15.61 6.09v-6.09h5.88v6.09h-5.88Zm79.67 9.56c.52 0 .96-.42.96-.96V148.1h15.23l.12.03c.05 0 .08-.02.13-.03h4.98l.12.03.12-.03h27.95v122.78c0 .52.44.96.96.96s.94-.42.96-.96v-4.5h11.76a.96.96 0 0 0 0-1.92H627.1V261h11.76a.96.96 0 0 0 0-1.92H627.1v-3.46h14.13c.52 0 .94-.44.96-.96a.97.97 0 0 0-.96-.96H627.1v-3.46h14.13c.52 0 .94-.44.96-.96a.97.97 0 0 0-.96-.96H627.1v-3.46h14.13c.52 0 .94-.44.96-.96a.97.97 0 0 0-.96-.96H627.1v-3.46h14.13c.52 0 .94-.44.96-.96a.95.95 0 0 0-.96-.96H627.1v-3.49h14.13c.52 0 .96-.44.96-.96s-.44-.96-.96-.96H627.1v-3.46h14.13c.52 0 .94-.42.96-.96a.95.95 0 0 0-.96-.96H627.1v-3.46h14.13c.52 0 .94-.42.96-.96a.97.97 0 0 0-.96-.96H627.1v-3.46h14.13c.52 0 .94-.42.96-.96a.95.95 0 0 0-.96-.96H627.1v-3.46h14.13c.52 0 .94-.44.96-.96a.97.97 0 0 0-.96-.96H627.1v-3.49h14.13c.52 0 .94-.42.96-.96a.95.95 0 0 0-.96-.96H627.1v-3.46h14.13c.52 0 .94-.42.96-.96a.97.97 0 0 0-.96-.96H627.1v-3.46h14.13c.52 0 .94-.42.96-.96a.95.95 0 0 0-.96-.96H627.1V191h14.13c.52 0 .96-.44.96-.96s-.44-.96-.96-.96H627.1v-3.46h14.13c.52 0 .94-.44.96-.96a.97.97 0 0 0-.96-.96H627.1v-3.46h14.13c.52 0 .94-.44.96-.96a.97.97 0 0 0-.96-.96H627.1v-3.46h14.13c.52 0 .94-.44.96-.96a.97.97 0 0 0-.96-.96H627.1v-3.46h14.13c.52 0 .94-.44.96-.96a.95.95 0 0 0-.96-.96H627.1v-3.49h14.13c.52 0 .94-.42.96-.96a.97.97 0 0 0-.96-.96H627.1v-3.46h14.13c.52 0 .94-.42.96-.96a.95.95 0 0 0-.96-.96H627.1v-3.46h14.13c.52 0 .96-.44.96-.96s-.44-.96-.96-.96H627.1v-3.46h14.13c.52 0 .94-.44.96-.96a.97.97 0 0 0-.96-.96H627.1v-3.46h14.13c.52 0 .94-.44.96-.96a.97.97 0 0 0-.96-.96H627.1v-3.49h14.13c.52 0 .94-.42.96-.96a.95.95 0 0 0-.96-.96H627.1v-3.46h14.13c.52 0 .94-.42.96-.96a.97.97 0 0 0-.96-.96H627.1v-3.46h14.13c.52 0 .94-.42.96-.96a.95.95 0 0 0-.96-.96h-11.56l17.37-10.22v138.21c0 .55.44.96.96.96s.96-.44.96-.96V112.4a.58.58 0 0 0-.03-.19v-11h48.81v11.03c-.01.06-.03.12-.03.19v111.59c0 .52.44.96.96.96.55 0 .96-.44.96-.96v-109.9l17.32 10.2h-11.52a.95.95 0 0 0-.96.96c0 .55.44.96.96.96h14.13v3.46h-14.13c-.55 0-.96.44-.96.96s.44.96.96.96h14.13v3.46h-14.13c-.55 0-.96.44-.96.96s.44.96.96.96h14.13v3.49h-14.13c-.55 0-.96.44-.96.96s.44.96.96.96h14.13v3.46h-14.13c-.55 0-.96.44-.96.96s.44.96.96.96h14.13v3.46h-14.13c-.55 0-.96.44-.96.96s.44.96.96.96h14.13v3.46h-14.13a.95.95 0 0 0-.96.96c0 .55.44.96.96.96h14.13v3.46h-14.13c-.55 0-.96.44-.96.96s.44.96.96.96h14.13v3.49h-14.13a.95.95 0 0 0-.96.96c0 .55.44.96.96.96h14.13v3.46h-14.13c-.55 0-.96.44-.96.96s.44.96.96.96h14.13v3.46h-14.13c-.55 0-.96.44-.96.96s.44.96.96.96h14.13v3.46h-14.13c-.55 0-.96.44-.96.96s.44.96.96.96h14.13v3.46h-14.13c-.55 0-.96.44-.96.96s.44.96.96.96h14.13v3.46h-14.13c-.55 0-.96.44-.96.96s.44.96.96.96h14.13v3.46h-14.13c-.55 0-.96.44-.96.96s.44.96.96.96h14.13v3.46h-14.13a.95.95 0 0 0-.96.96c0 .55.44.96.96.96h14.13v3.49h-14.13c-.55 0-.96.44-.96.96s.44.96.96.96h14.13v3.46h-14.13a.95.95 0 0 0-.96.96c0 .55.44.96.96.96h14.13v3.46h-14.13c-.55 0-.96.44-.96.96s.44.96.96.96h14.13v29.87c0 .52.44.96.96.96s.96-.42.94-.94v-30.72l.03-.13-.03-.12v-5.13l.03-.13-.03-.13v-5.13s.03-.08.03-.13-.02-.08-.03-.12v-5.15l.03-.13-.03-.13v-5.12l.03-.13-.03-.12v-5.13l.03-.13-.03-.13v-5.13s.03-.08.03-.13-.02-.08-.03-.12v-5.13s.03-.08.03-.13-.02-.08-.03-.12v-5.13s.03-.08.03-.13-.02-.08-.03-.12v-5.13s.03-.08.03-.13-.02-.08-.03-.12v-5.13s.03-.08.03-.13-.02-.08-.03-.13v-5.15l.03-.13-.03-.12v-5.13l.03-.13-.03-.13v-5.13s.03-.08.03-.13-.02-.08-.03-.12v-5.13s.03-.08.03-.13-.02-.08-.03-.12v-5.13s.03-.08.03-.13-.02-.08-.03-.12v-5.15l.03-.13-.03-.13v-5.12l.03-.13-.03-.12v-5.13l.03-.13a.94.94 0 0 0-.66-.9l-21.2-12.51v-11.62a.97.97 0 0 0-.96-.96h-1.72v-6.56a.97.97 0 0 0-.96-.96h-45.3a.97.97 0 0 0-.96.96v6.56h-1.77a.97.97 0 0 0-.96.96v11.61l-21.36 12.59a.99.99 0 0 0-.37.44l-.02.05a.98.98 0 0 0-.07.34v20.92h-27.11v-7.08c0-.52-.44-.96-.96-.96s-.96.44-.96.96v7.08h-3.31v-13.37c0-.52-.44-.96-.96-.96s-.96.44-.96.96v13.37h-15.35a.95.95 0 0 0-.96.96v124.89c0 .55.44.96.96.96Zm76.08-179.29h43.37v5.57h-43.37v-5.57Z"/><path d="M583.64 154.78h-2.99c-.52 0-.96.44-.96.96s.44.96.96.96h2.99c.52 0 .96-.44.96-.96s-.44-.96-.96-.96Zm7.47 0h-2.99c-.55 0-.96.44-.96.96s.44.96.96.96h2.99c.55 0 .96-.44.96-.96s-.44-.96-.96-.96Zm7.49 0h-2.99c-.52 0-.96.44-.96.96s.44.96.96.96h2.99c.55 0 .96-.44.96-.96s-.44-.96-.96-.96Zm7.49 0h-2.99c-.55 0-.96.44-.96.96s.44.96.96.96h2.99c.52 0 .96-.44.96-.96s-.44-.96-.96-.96Zm7.5 0h-2.99c-.55 0-.96.44-.96.96s.44.96.96.96h2.99c.52 0 .96-.44.96-.96s-.44-.96-.96-.96Zm7.49 0h-2.99c-.52 0-.96.44-.96.96s.44.96.96.96h2.99c.52 0 .96-.44.96-.96s-.44-.96-.96-.96Zm-37.44 4.95h-2.99c-.52 0-.96.44-.96.96s.44.96.96.96h2.99c.52 0 .94-.44.96-.96a.97.97 0 0 0-.96-.96Zm7.47 0h-2.99c-.55 0-.96.44-.96.96s.44.96.96.96h2.99c.55 0 .96-.44.96-.96s-.44-.96-.96-.96Zm7.49 0h-2.99c-.52 0-.96.44-.96.96s.44.96.96.96h2.99c.55 0 .96-.44.96-.96s-.44-.96-.96-.96Zm7.49 0h-2.99c-.55 0-.96.44-.96.96s.44.96.96.96h2.99c.52 0 .96-.44.96-.96s-.44-.96-.96-.96Zm7.5 0h-2.99c-.55 0-.96.44-.96.96s.44.96.96.96h2.99c.52 0 .96-.44.96-.96s-.44-.96-.96-.96Zm7.49 0h-2.99c-.52 0-.96.44-.96.96s.44.96.96.96h2.99c.52 0 .96-.44.96-.96s-.44-.96-.96-.96Zm-37.44 4.91h-2.99c-.52 0-.96.44-.96.96s.44.96.96.96h2.99c.52 0 .94-.44.96-.96a.97.97 0 0 0-.96-.96Zm7.47 0h-2.99c-.55 0-.96.44-.96.96s.44.96.96.96h2.99c.55 0 .96-.44.96-.96s-.44-.96-.96-.96Zm7.49 0h-2.99c-.52 0-.96.44-.96.96s.44.96.96.96h2.99c.55 0 .96-.44.96-.96s-.44-.96-.96-.96Zm7.49 0h-2.99c-.55 0-.96.44-.96.96s.44.96.96.96h2.99c.52 0 .96-.44.96-.96s-.44-.96-.96-.96Zm7.5 0h-2.99c-.55 0-.96.44-.96.96s.44.96.96.96h2.99c.52 0 .96-.44.96-.96s-.44-.96-.96-.96Zm7.49 0h-2.99c-.52 0-.96.44-.96.96s.44.96.96.96h2.99c.52 0 .96-.44.96-.96s-.44-.96-.96-.96Zm-37.44 4.92h-2.99c-.52 0-.96.44-.96.96s.44.96.96.96h2.99c.52 0 .94-.42.96-.96a.97.97 0 0 0-.96-.96Zm7.47 0h-2.99c-.55 0-.96.44-.96.96s.44.96.96.96h2.99c.55 0 .96-.42.96-.96s-.44-.96-.96-.96Zm7.49 0h-2.99c-.52 0-.96.44-.96.96s.44.96.96.96h2.99c.55 0 .96-.42.96-.96s-.44-.96-.96-.96Zm7.49 0h-2.99c-.55 0-.96.44-.96.96s.44.96.96.96h2.99a.96.96 0 0 0 0-1.92Zm7.5 0h-2.99c-.55 0-.96.44-.96.96s.44.96.96.96h2.99a.96.96 0 0 0 0-1.92Zm7.49 0h-2.99c-.52 0-.96.44-.96.96s.44.96.96.96h2.99a.96.96 0 0 0 0-1.92Zm-37.44 4.94h-2.99c-.52 0-.96.44-.96.96s.44.96.96.96h2.99c.52 0 .94-.42.96-.96a.95.95 0 0 0-.96-.96Zm7.47 0h-2.99c-.55 0-.96.44-.96.96s.44.96.96.96h2.99c.55 0 .96-.42.96-.96s-.44-.96-.96-.96Zm7.49 0h-2.99c-.52 0-.96.44-.96.96s.44.96.96.96h2.99c.55 0 .96-.42.96-.96s-.44-.96-.96-.96Zm7.49 0h-2.99c-.55 0-.96.44-.96.96s.44.96.96.96h2.99a.96.96 0 0 0 0-1.92Zm7.5 0h-2.99c-.55 0-.96.44-.96.96s.44.96.96.96h2.99a.96.96 0 0 0 0-1.92Zm7.49 0h-2.99c-.52 0-.96.44-.96.96s.44.96.96.96h2.99a.96.96 0 0 0 0-1.92Zm-37.44 4.95h-2.99c-.52 0-.96.44-.96.96s.44.96.96.96h2.99c.52 0 .94-.44.96-.96a.97.97 0 0 0-.96-.96Zm7.47 0h-2.99c-.55 0-.96.44-.96.96s.44.96.96.96h2.99c.55 0 .96-.44.96-.96s-.44-.96-.96-.96Zm7.49 0h-2.99c-.52 0-.96.44-.96.96s.44.96.96.96h2.99c.55 0 .96-.44.96-.96s-.44-.96-.96-.96Zm7.49 0h-2.99c-.55 0-.96.44-.96.96s.44.96.96.96h2.99c.52 0 .96-.44.96-.96s-.44-.96-.96-.96Zm7.5 0h-2.99c-.55 0-.96.44-.96.96s.44.96.96.96h2.99c.52 0 .96-.44.96-.96s-.44-.96-.96-.96Zm7.49 0h-2.99c-.52 0-.96.44-.96.96s.44.96.96.96h2.99c.52 0 .96-.44.96-.96s-.44-.96-.96-.96Zm-37.44 4.91h-2.99c-.52 0-.96.44-.96.96s.44.96.96.96h2.99c.52 0 .94-.44.96-.96a.97.97 0 0 0-.96-.96Zm7.47 0h-2.99c-.55 0-.96.44-.96.96s.44.96.96.96h2.99c.55 0 .96-.44.96-.96s-.44-.96-.96-.96Zm7.49 0h-2.99c-.52 0-.96.44-.96.96s.44.96.96.96h2.99c.55 0 .96-.44.96-.96s-.44-.96-.96-.96Zm7.49 0h-2.99c-.55 0-.96.44-.96.96s.44.96.96.96h2.99c.52 0 .96-.44.96-.96s-.44-.96-.96-.96Zm7.5 0h-2.99c-.55 0-.96.44-.96.96s.44.96.96.96h2.99c.52 0 .96-.44.96-.96s-.44-.96-.96-.96Zm7.49 0h-2.99c-.52 0-.96.44-.96.96s.44.96.96.96h2.99c.52 0 .96-.44.96-.96s-.44-.96-.96-.96Zm-37.44 4.92h-2.99a.97.97 0 0 0-.96.96c0 .55.44.96.96.96h2.99c.52 0 .94-.42.96-.96a.95.95 0 0 0-.96-.96Zm7.47 0h-2.99a.95.95 0 0 0-.96.96c0 .55.44.96.96.96h2.99c.55 0 .96-.42.96-.96s-.44-.96-.96-.96Zm7.49 0h-2.99a.97.97 0 0 0-.96.96c0 .55.44.96.96.96h2.99c.55 0 .96-.42.96-.96s-.44-.96-.96-.96Zm7.49 0h-2.99a.95.95 0 0 0-.96.96c0 .55.44.96.96.96h2.99a.96.96 0 0 0 0-1.92Zm7.5 0h-2.99a.95.95 0 0 0-.96.96c0 .55.44.96.96.96h2.99a.96.96 0 0 0 0-1.92Zm7.49 0h-2.99a.97.97 0 0 0-.96.96c0 .55.44.96.96.96h2.99a.96.96 0 0 0 0-1.92Zm-37.44 4.95h-2.99c-.52 0-.96.44-.96.96s.44.96.96.96h2.99c.52 0 .94-.42.96-.96a.97.97 0 0 0-.96-.96Zm7.47 0h-2.99a.95.95 0 0 0-.96.96c0 .55.44.96.96.96h2.99c.55 0 .96-.42.96-.96s-.44-.96-.96-.96Zm7.49 0h-2.99a.97.97 0 0 0-.96.96c0 .55.44.96.96.96h2.99c.55 0 .96-.42.96-.96s-.44-.96-.96-.96Zm7.49 0h-2.99a.95.95 0 0 0-.96.96c0 .55.44.96.96.96h2.99a.96.96 0 0 0 0-1.92Zm7.5 0h-2.99a.95.95 0 0 0-.96.96c0 .55.44.96.96.96h2.99a.96.96 0 0 0 0-1.92Zm7.49 0h-2.99a.97.97 0 0 0-.96.96c0 .55.44.96.96.96h2.99a.96.96 0 0 0 0-1.92Zm-37.44 4.94h-2.99c-.52 0-.96.44-.96.96s.44.96.96.96h2.99c.52 0 .96-.44.96-.96s-.44-.96-.96-.96Zm7.47 0h-2.99c-.55 0-.96.44-.96.96s.44.96.96.96h2.99c.55 0 .96-.44.96-.96s-.44-.96-.96-.96Zm7.49 0h-2.99c-.52 0-.96.44-.96.96s.44.96.96.96h2.99c.55 0 .96-.44.96-.96s-.44-.96-.96-.96Zm7.49 0h-2.99c-.55 0-.96.44-.96.96s.44.96.96.96h2.99c.52 0 .96-.44.96-.96s-.44-.96-.96-.96Zm7.5 0h-2.99c-.55 0-.96.44-.96.96s.44.96.96.96h2.99c.52 0 .96-.44.96-.96s-.44-.96-.96-.96Zm7.49 0h-2.99c-.52 0-.96.44-.96.96s.44.96.96.96h2.99c.52 0 .96-.44.96-.96s-.44-.96-.96-.96Zm-37.44 4.92h-2.99c-.52 0-.96.44-.96.96s.44.96.96.96h2.99c.52 0 .94-.44.96-.96a.97.97 0 0 0-.96-.96Zm7.47 0h-2.99c-.55 0-.96.44-.96.96s.44.96.96.96h2.99c.55 0 .96-.44.96-.96s-.44-.96-.96-.96Zm7.49 0h-2.99c-.52 0-.96.44-.96.96s.44.96.96.96h2.99c.55 0 .96-.44.96-.96s-.44-.96-.96-.96Zm7.49 0h-2.99c-.55 0-.96.44-.96.96s.44.96.96.96h2.99c.52 0 .96-.44.96-.96s-.44-.96-.96-.96Zm7.5 0h-2.99c-.55 0-.96.44-.96.96s.44.96.96.96h2.99c.52 0 .96-.44.96-.96s-.44-.96-.96-.96Zm7.49 0h-2.99c-.52 0-.96.44-.96.96s.44.96.96.96h2.99c.52 0 .96-.44.96-.96s-.44-.96-.96-.96Zm-37.44 4.94h-2.99c-.52 0-.96.44-.96.96s.44.96.96.96h2.99c.52 0 .94-.44.96-.96a.97.97 0 0 0-.96-.96Zm7.47 0h-2.99c-.55 0-.96.44-.96.96s.44.96.96.96h2.99c.55 0 .96-.44.96-.96s-.44-.96-.96-.96Zm7.49 0h-2.99c-.52 0-.96.44-.96.96s.44.96.96.96h2.99c.55 0 .96-.44.96-.96s-.44-.96-.96-.96Zm7.49 0h-2.99c-.55 0-.96.44-.96.96s.44.96.96.96h2.99c.52 0 .96-.44.96-.96s-.44-.96-.96-.96Zm7.5 0h-2.99c-.55 0-.96.44-.96.96s.44.96.96.96h2.99c.52 0 .96-.44.96-.96s-.44-.96-.96-.96Zm7.49 0h-2.99c-.52 0-.96.44-.96.96s.44.96.96.96h2.99c.52 0 .96-.44.96-.96s-.44-.96-.96-.96Zm-37.44 4.92h-2.99c-.52 0-.96.44-.96.96s.44.96.96.96h2.99c.52 0 .94-.42.96-.96a.97.97 0 0 0-.96-.96Zm7.47 0h-2.99c-.55 0-.96.44-.96.96s.44.96.96.96h2.99c.55 0 .96-.42.96-.96s-.44-.96-.96-.96Zm7.49 0h-2.99c-.52 0-.96.44-.96.96s.44.96.96.96h2.99c.55 0 .96-.42.96-.96s-.44-.96-.96-.96Zm7.49 0h-2.99c-.52 0-.96.44-.96.96s.44.96.96.96h2.99a.96.96 0 0 0 0-1.92Zm7.5 0h-2.99c-.55 0-.96.44-.96.96s.44.96.96.96h2.99a.96.96 0 0 0 0-1.92Zm7.49 0h-2.99c-.52 0-.96.44-.96.96s.44.96.96.96h2.99a.96.96 0 0 0 0-1.92Zm-37.44 4.94h-2.99a.97.97 0 0 0-.96.96c0 .55.44.96.96.96h2.99c.52 0 .94-.44.96-.96a.95.95 0 0 0-.96-.96Zm7.47 0h-2.99a.95.95 0 0 0-.96.96c0 .55.44.96.96.96h2.99c.55 0 .96-.44.96-.96s-.44-.96-.96-.96Zm7.49 0h-2.99a.97.97 0 0 0-.96.96c0 .55.44.96.96.96h2.99c.55 0 .96-.44.96-.96s-.44-.96-.96-.96Zm7.49 0h-2.99a.95.95 0 0 0-.96.96c0 .55.44.96.96.96h2.99c.52 0 .96-.44.96-.96s-.44-.96-.96-.96Zm7.5 0h-2.99a.95.95 0 0 0-.96.96c0 .55.44.96.96.96h2.99c.52 0 .96-.44.96-.96s-.44-.96-.96-.96Zm7.49 0h-2.99a.97.97 0 0 0-.96.96c0 .55.44.96.96.96h2.99c.52 0 .96-.44.96-.96s-.44-.96-.96-.96Zm-37.44 4.92h-2.99c-.52 0-.96.44-.96.96s.44.96.96.96h2.99c.52 0 .94-.42.96-.96a.95.95 0 0 0-.96-.96Zm7.47 0h-2.99c-.55 0-.96.44-.96.96s.44.96.96.96h2.99c.55 0 .96-.42.96-.96s-.44-.96-.96-.96Zm7.49 0h-2.99c-.52 0-.96.44-.96.96s.44.96.96.96h2.99c.55 0 .96-.42.96-.96s-.44-.96-.96-.96Zm7.49 0h-2.99c-.55 0-.96.44-.96.96s.44.96.96.96h2.99a.96.96 0 0 0 0-1.92Zm7.5 0h-2.99c-.55 0-.96.44-.96.96s.44.96.96.96h2.99a.96.96 0 0 0 0-1.92Zm7.49 0h-2.99c-.52 0-.96.44-.96.96s.44.96.96.96h2.99a.96.96 0 0 0 0-1.92Zm-37.44 4.94h-2.99c-.52 0-.96.44-.96.96s.44.96.96.96h2.99c.52 0 .94-.44.96-.96a.97.97 0 0 0-.96-.96Zm7.47 0h-2.99c-.55 0-.96.44-.96.96s.44.96.96.96h2.99c.55 0 .96-.44.96-.96s-.44-.96-.96-.96Zm7.49 0h-2.99c-.52 0-.96.44-.96.96s.44.96.96.96h2.99c.55 0 .96-.44.96-.96s-.44-.96-.96-.96Zm7.49 0h-2.99c-.55 0-.96.44-.96.96s.44.96.96.96h2.99c.52 0 .96-.44.96-.96s-.44-.96-.96-.96Zm7.5 0h-2.99c-.55 0-.96.44-.96.96s.44.96.96.96h2.99c.52 0 .96-.44.96-.96s-.44-.96-.96-.96Zm7.49 0h-2.99c-.52 0-.96.44-.96.96s.44.96.96.96h2.99c.52 0 .96-.44.96-.96s-.44-.96-.96-.96Zm-37.44 4.92h-2.99c-.52 0-.96.44-.96.96s.44.96.96.96h2.99c.52 0 .94-.42.96-.96a.97.97 0 0 0-.96-.96Zm7.47 0h-2.99c-.55 0-.96.44-.96.96s.44.96.96.96h2.99c.55 0 .96-.42.96-.96s-.44-.96-.96-.96Zm7.49 0h-2.99c-.52 0-.96.44-.96.96s.44.96.96.96h2.99c.55 0 .96-.42.96-.96s-.44-.96-.96-.96Zm7.49 0h-2.99c-.55 0-.96.44-.96.96s.44.96.96.96h2.99a.96.96 0 0 0 0-1.92Zm7.5 0h-2.99c-.55 0-.96.44-.96.96s.44.96.96.96h2.99a.96.96 0 0 0 0-1.92Zm7.49 0h-2.99c-.52 0-.96.44-.96.96s.44.96.96.96h2.99a.96.96 0 0 0 0-1.92Zm-37.44 4.94h-2.99c-.52 0-.96.44-.96.96s.44.96.96.96h2.99c.52 0 .94-.44.96-.96a.97.97 0 0 0-.96-.96Zm7.47 0h-2.99c-.55 0-.96.44-.96.96s.44.96.96.96h2.99c.55 0 .96-.44.96-.96s-.44-.96-.96-.96Zm7.49 0h-2.99c-.52 0-.96.44-.96.96s.44.96.96.96h2.99c.55 0 .96-.44.96-.96s-.44-.96-.96-.96Zm7.49 0h-2.99c-.55 0-.96.44-.96.96s.44.96.96.96h2.99c.52 0 .96-.44.96-.96s-.44-.96-.96-.96Zm7.5 0h-2.99c-.55 0-.96.44-.96.96s.44.96.96.96h2.99c.52 0 .96-.44.96-.96s-.44-.96-.96-.96Zm7.49 0h-2.99c-.52 0-.96.44-.96.96s.44.96.96.96h2.99c.52 0 .96-.44.96-.96s-.44-.96-.96-.96Zm-37.44 4.92h-2.99c-.52 0-.96.44-.96.96s.44.96.96.96h2.99c.52 0 .94-.42.96-.96a.97.97 0 0 0-.96-.96Zm7.47 0h-2.99c-.55 0-.96.44-.96.96s.44.96.96.96h2.99c.55 0 .96-.42.96-.96s-.44-.96-.96-.96Zm7.49 0h-2.99c-.52 0-.96.44-.96.96s.44.96.96.96h2.99c.55 0 .96-.42.96-.96s-.44-.96-.96-.96Zm7.49 0h-2.99c-.55 0-.96.44-.96.96s.44.96.96.96h2.99a.96.96 0 0 0 0-1.92Zm7.5 0h-2.99c-.55 0-.96.44-.96.96s.44.96.96.96h2.99a.96.96 0 0 0 0-1.92Zm7.49 0h-2.99c-.52 0-.96.44-.96.96s.44.96.96.96h2.99a.96.96 0 0 0 0-1.92Zm-37.44 4.94h-2.99a.97.97 0 0 0-.96.96c0 .55.44.96.96.96h2.99c.52 0 .94-.44.96-.96a.97.97 0 0 0-.96-.96Zm7.47 0h-2.99a.95.95 0 0 0-.96.96c0 .55.44.96.96.96h2.99c.55 0 .96-.44.96-.96s-.44-.96-.96-.96Zm7.49 0h-2.99a.97.97 0 0 0-.96.96c0 .55.44.96.96.96h2.99c.55 0 .96-.44.96-.96s-.44-.96-.96-.96Zm7.49 0h-2.99a.95.95 0 0 0-.96.96c0 .55.44.96.96.96h2.99c.52 0 .96-.44.96-.96s-.44-.96-.96-.96Zm7.5 0h-2.99a.95.95 0 0 0-.96.96c0 .55.44.96.96.96h2.99c.52 0 .96-.44.96-.96s-.44-.96-.96-.96Zm7.49 0h-2.99a.97.97 0 0 0-.96.96c0 .55.44.96.96.96h2.99c.52 0 .96-.44.96-.96s-.44-.96-.96-.96Zm-37.44 4.92h-2.99a.97.97 0 0 0-.96.96c0 .55.44.96.96.96h2.99c.52 0 .94-.42.96-.96a.95.95 0 0 0-.96-.96Zm7.47 0h-2.99a.95.95 0 0 0-.96.96c0 .55.44.96.96.96h2.99c.55 0 .96-.42.96-.96s-.44-.96-.96-.96Zm7.49 0h-2.99a.97.97 0 0 0-.96.96c0 .55.44.96.96.96h2.99c.55 0 .96-.42.96-.96s-.44-.96-.96-.96Zm7.49 0h-2.99a.95.95 0 0 0-.96.96c0 .55.44.96.96.96h2.99a.96.96 0 0 0 0-1.92Zm7.5 0h-2.99a.95.95 0 0 0-.96.96c0 .55.44.96.96.96h2.99a.96.96 0 0 0 0-1.92Zm7.49 0h-2.99a.97.97 0 0 0-.96.96c0 .55.44.96.96.96h2.99a.96.96 0 0 0 0-1.92Zm-37.44 4.94h-2.99c-.52 0-.96.44-.96.96s.44.96.96.96h2.99c.52 0 .94-.44.96-.96a.97.97 0 0 0-.96-.96Zm7.47 0h-2.99c-.55 0-.96.44-.96.96s.44.96.96.96h2.99c.55 0 .96-.44.96-.96s-.44-.96-.96-.96Zm7.49 0h-2.99c-.52 0-.96.44-.96.96s.44.96.96.96h2.99c.55 0 .96-.44.96-.96s-.44-.96-.96-.96Zm7.49 0h-2.99c-.55 0-.96.44-.96.96s.44.96.96.96h2.99c.52 0 .96-.44.96-.96s-.44-.96-.96-.96Zm7.5 0h-2.99c-.55 0-.96.44-.96.96s.44.96.96.96h2.99c.52 0 .96-.44.96-.96s-.44-.96-.96-.96Zm7.49 0h-2.99c-.52 0-.96.44-.96.96s.44.96.96.96h2.99c.52 0 .96-.44.96-.96s-.44-.96-.96-.96Zm-40.43 4.92c-.52 0-.96.44-.96.96s.44.96.96.96h2.99c.52 0 .94-.42.96-.96a.97.97 0 0 0-.96-.96h-2.99Zm10.46 0h-2.99c-.55 0-.96.44-.96.96s.44.96.96.96h2.99c.55 0 .96-.42.96-.96s-.44-.96-.96-.96Zm7.49 0h-2.99c-.52 0-.96.44-.96.96s.44.96.96.96h2.99c.55 0 .96-.42.96-.96s-.44-.96-.96-.96Zm7.49 0h-2.99c-.55 0-.96.44-.96.96s.44.96.96.96h2.99a.96.96 0 0 0 0-1.92Zm7.5 0h-2.99c-.55 0-.96.44-.96.96s.44.96.96.96h2.99a.96.96 0 0 0 0-1.92Zm7.49 0h-2.99c-.52 0-.96.44-.96.96s.44.96.96.96h2.99a.96.96 0 0 0 0-1.92Zm344.77 3.98V133a.97.97 0 0 0-.96-.96.95.95 0 0 0-.96.96v134.23c0 .52.44.96.96.96s.96-.44.96-.96Zm6.81 0V133c0-.52-.44-.96-.96-.96s-.96.44-.96.96v134.23c0 .52.44.96.96.96.55 0 .96-.44.96-.96Zm6.85 0V133c0-.52-.44-.96-.96-.96s-.96.44-.96.96v134.23c0 .52.44.96.96.96s.96-.44.96-.96Zm6.84 0V133c0-.52-.44-.96-.96-.96s-.96.44-.96.96v134.23c0 .52.44.96.96.96s.96-.44.96-.96Zm6.84 0V133c0-.52-.44-.96-.96-.96s-.96.44-.96.96v134.23c0 .52.44.96.96.96s.96-.44.96-.96Z"/></svg>