<svg xmlns="http://www.w3.org/2000/svg" width="184" height="64" viewBox="0 0 184 64"><path d="M0 0v64h64V0H0Zm3.53 36.79V21.67h36.34L24.75 36.79H3.53Zm17.69 3.53L3.53 58V40.31h17.69ZM6.05 60.48l17.64-17.64v17.64H6.05Zm21.16 0V39.32L42.33 24.2v36.28H27.21Zm33.26 0H45.86V18.14H3.53V3.53h56.95v56.95Zm43.18-29.17c-.11.07-.23.14-.36.2a7.28 7.28 0 0 1-1.12.27l-.72.1-.99.15a10.02 10.02 0 0 0-1.94.55 5.5 5.5 0 0 0-.84.47c-.28.2-.52.42-.7.66a3.78 3.78 0 0 0-.6 2.03 3.2 3.2 0 0 0 1.06 2.51c.72.64 1.65.95 2.79.95.86 0 1.65-.17 2.38-.51a4.56 4.56 0 0 0 1.75-1.42c.1.63.34 1.09.73 1.38s.95.43 1.67.43c.42 0 .76-.03 1.02-.08v-2.44h-.47c-.47 0-.71-.24-.71-.71v-4.92a3.5 3.5 0 0 0-1.27-2.88 5.3 5.3 0 0 0-3.49-1.05c-2.05 0-3.78.67-5.2 2.01l1.69 1.77a4.61 4.61 0 0 1 3.35-1.46c.7 0 1.26.12 1.66.37.41.25.62.58.62 1 0 .13-.03.25-.08.35a.76.76 0 0 1-.24.27Zm.24 3.12c0 .69-.3 1.28-.91 1.78-.6.49-1.32.74-2.17.74a1.9 1.9 0 0 1-1.25-.38c-.3-.26-.44-.62-.44-1.07 0-.59.29-1.02.87-1.29.3-.14.89-.29 1.77-.44a7.14 7.14 0 0 0 2.13-.55v1.22ZM79.63 39h3.03V26.8h5.16v-2.76H74.47v2.76h5.16V39zm2.4-20.8c2.05 0 3.62-.77 4.72-2.32l.2 2.13h2.24v-7.72h-6.42v2.17h3.58a4.03 4.03 0 0 1-1.46 2.37 4.1 4.1 0 0 1-2.52.82c-1.3 0-2.33-.46-3.08-1.37-.75-.91-1.13-2.16-1.13-3.75s.39-2.82 1.18-3.74a3.99 3.99 0 0 1 3.19-1.38c.86 0 1.6.22 2.23.65a3.88 3.88 0 0 1 1.43 1.83l2.76-1.06a5.98 5.98 0 0 0-2.43-2.94c-1.1-.69-2.4-1.03-3.91-1.03s-2.82.32-3.97.96A6.6 6.6 0 0 0 76 6.54a8.6 8.6 0 0 0-.92 4.04c0 2.3.63 4.15 1.9 5.55a6.48 6.48 0 0 0 5.03 2.09Zm13.11-6.7c0-.91.28-1.6.84-2.1.56-.49 1.3-.74 2.23-.74.56 0 1.14.04 1.73.12l.04-2.68a9.18 9.18 0 0 0-.98-.08c-.86 0-1.63.18-2.32.53-.69.35-1.25.84-1.69 1.48l-.16-1.85h-2.52v11.81h2.83v-6.5Zm8.31 5.9c.94.53 2.07.8 3.39.8 2.2 0 3.9-.7 5.12-2.09l-1.77-1.69a4.19 4.19 0 0 1-3.35 1.42c-.92 0-1.67-.25-2.24-.75a3.3 3.3 0 0 1-1.06-2.09h8.78a6.2 6.2 0 0 0-1.46-5.35c-1.05-1.11-2.45-1.66-4.2-1.66s-3.22.56-4.31 1.69a6.05 6.05 0 0 0-1.63 4.41c0 1.19.23 2.23.68 3.14a5.11 5.11 0 0 0 2.08 2.17Zm1.15-8.43a3 3 0 0 1 2.04-.7c.77 0 1.4.23 1.91.69.51.45.85 1.1 1 1.95h-5.98a3.3 3.3 0 0 1 1.03-1.94Zm59.68 18.02a6 6 0 0 0-4.42 1.68c-1.12 1.12-1.68 2.6-1.68 4.42s.55 3.33 1.66 4.44a6 6 0 0 0 4.44 1.66c1.85 0 3.29-.56 4.41-1.68 1.13-1.12 1.69-2.6 1.69-4.42s-.55-3.33-1.66-4.44a6 6 0 0 0-4.44-1.66Zm2.33 8.85c-.57.66-1.35.99-2.33.99s-1.76-.33-2.33-.99c-.57-.67-.86-1.58-.86-2.75s.28-2.07.86-2.74c.57-.67 1.35-1 2.33-1s1.76.33 2.33 1c.57.66.86 1.57.86 2.74s-.29 2.08-.86 2.75Zm16.11-7.6a4.08 4.08 0 0 0-3.09-1.25c-.83 0-1.6.17-2.3.52-.7.34-1.27.81-1.71 1.41l-.16-1.73h-2.52V39h2.84v-6.77c0-.83.29-1.52.87-2.06a3.02 3.02 0 0 1 2.13-.82c.73 0 1.31.25 1.71.75.41.49.61 1.19.61 2.09V39h2.83v-7.48c0-1.35-.4-2.44-1.2-3.28Zm-46.91-5.15h3.07v2.52h-3.07zm-4.6-11.86c0-.83.29-1.52.87-2.06a3.02 3.02 0 0 1 2.13-.82c.73 0 1.31.25 1.71.75.41.49.61 1.19.61 2.09V18h2.83v-7.48c0-1.35-.4-2.44-1.2-3.28a4.1 4.1 0 0 0-3.09-1.25c-.83 0-1.6.17-2.3.52-.7.34-1.27.81-1.71 1.41l-.16-1.73h-2.52V18h2.84v-6.77Zm4.72 15.96h2.84V39h-2.84zm-19.06-9.79c.94.53 2.07.8 3.39.8 2.2 0 3.9-.7 5.12-2.09l-1.77-1.69a4.19 4.19 0 0 1-3.35 1.42c-.92 0-1.67-.25-2.24-.75a3.34 3.34 0 0 1-1.06-2.09h8.78a6.2 6.2 0 0 0-1.46-5.35c-1.05-1.11-2.45-1.66-4.2-1.66s-3.22.56-4.31 1.69a6.05 6.05 0 0 0-1.63 4.41c0 1.19.23 2.23.68 3.14a5.11 5.11 0 0 0 2.08 2.17Zm1.15-8.43a3 3 0 0 1 2.04-.7c.77 0 1.4.23 1.91.69.51.45.85 1.1 1 1.95h-5.98a3.3 3.3 0 0 1 1.03-1.94Zm-7.48 40.22h2.83V61h-2.83zm41.89-26.1h3.07v2.52h-3.07zm-19.06 12.49c0-.96-.35-1.72-1.05-2.27-.7-.56-1.89-1.05-3.59-1.47a7.03 7.03 0 0 1-1.83-.62c-.33-.21-.49-.48-.49-.8s.17-.59.51-.78c.34-.19.8-.29 1.38-.29 1.23 0 2.36.39 3.39 1.18l1.5-2.09a8.08 8.08 0 0 0-4.65-1.46c-1.48 0-2.66.33-3.53.98a3.1 3.1 0 0 0-1.31 2.6c0 .93.35 1.68 1.03 2.26a8.4 8.4 0 0 0 3.34 1.44 8.9 8.9 0 0 1 2.06.65c.36.2.54.46.54.77 0 .36-.2.64-.6.83-.4.18-.92.28-1.56.28a5.48 5.48 0 0 1-3.86-1.42l-1.5 2.01a6.7 6.7 0 0 0 2.32 1.34c.91.32 1.9.47 2.95.47a6.1 6.1 0 0 0 3.64-.95 3.12 3.12 0 0 0 1.32-2.67Zm12.95-11.54h-2.52l-.31 3.15h-2.36v2.36h2.36v6.22c0 1.13.32 1.99.97 2.58.66.59 1.59.89 2.81.89a9.6 9.6 0 0 0 2.52-.31v-2.52c-.56.13-1.19.2-1.89.2-.53 0-.93-.11-1.19-.32-.26-.22-.38-.6-.38-1.13v-5.59h3.46v-2.36h-3.46v-3.15Zm-24.17 27.31a2.73 2.73 0 0 1 2.71 2.01l2.72-.83a4.56 4.56 0 0 0-1.95-2.6 6.17 6.17 0 0 0-3.45-.94c-1.8 0-3.25.56-4.36 1.68-1.11 1.12-1.66 2.6-1.66 4.42s.56 3.3 1.66 4.42a5.86 5.86 0 0 0 4.36 1.68c1.33 0 2.48-.31 3.45-.94a4.66 4.66 0 0 0 1.95-2.61l-2.68-.83c-.24.64-.6 1.14-1.07 1.49-.47.35-1.03.52-1.68.52-.95 0-1.69-.34-2.24-1.01-.55-.68-.83-1.58-.83-2.73s.28-2.05.83-2.73a2.72 2.72 0 0 1 2.24-1.01Zm12.56-2.36c-1.78 0-3.22.56-4.31 1.69a6.05 6.05 0 0 0-1.63 4.41c0 1.19.23 2.23.68 3.14a5.11 5.11 0 0 0 2.08 2.17c.94.53 2.07.8 3.39.8 2.2 0 3.9-.7 5.12-2.09l-1.77-1.69a4.19 4.19 0 0 1-3.35 1.42c-.92 0-1.67-.25-2.25-.75a3.34 3.34 0 0 1-1.06-2.09h8.78a6.16 6.16 0 0 0-1.47-5.35 5.5 5.5 0 0 0-4.2-1.66Zm-3.07 4.92a3.3 3.3 0 0 1 1.03-1.94 3 3 0 0 1 2.04-.7c.77 0 1.4.23 1.91.69.51.45.85 1.1 1 1.95h-5.98Zm-37.8-24.24c.56 0 1.14.04 1.73.12l.04-2.68a9.18 9.18 0 0 0-.98-.08c-.86 0-1.63.18-2.32.53-.69.35-1.25.84-1.69 1.48l-.16-1.85h-2.52V39h2.83v-6.5c0-.91.28-1.6.84-2.1.56-.49 1.3-.74 2.23-.74Zm24.53 2.52V39h2.84v-7.48c0-1.35-.4-2.44-1.2-3.28a4.08 4.08 0 0 0-3.09-1.25c-.83 0-1.6.17-2.3.52-.7.34-1.27.81-1.71 1.41l-.16-1.73h-2.52V39h2.83v-6.77c0-.83.29-1.52.87-2.06a3.02 3.02 0 0 1 2.13-.82c.73 0 1.31.25 1.71.75.41.49.61 1.19.61 2.09Zm-15.25 13.72a3.48 3.48 0 0 0-1.09 2.69v.59h-5.51v-.63c0-.41.1-.73.31-.95.21-.23.51-.34.91-.34.73 0 1.46.25 2.17.75l1.3-2.09a6.08 6.08 0 0 0-3.5-1.02c-1.22 0-2.19.34-2.92 1.01a3.48 3.48 0 0 0-1.09 2.69v.59h-2.4v2.36h2.4v9.45h2.83v-9.45h5.51v9.45h2.84v-9.45h3.31V49.2h-3.31v-.63c0-.41.1-.73.32-.95.21-.23.51-.34.91-.34.74 0 1.46.25 2.17.75l1.3-2.09a6.08 6.08 0 0 0-3.5-1.02c-1.22 0-2.2.34-2.92 1.01Zm-20.69-.07c-1.08 0-2.07.19-2.98.56-.91.37-1.69.9-2.32 1.57a6.92 6.92 0 0 0-1.49 2.43 8.96 8.96 0 0 0-.53 3.12c0 2.32.67 4.18 2.01 5.58a7.02 7.02 0 0 0 5.32 2.1c1.08 0 2.08-.19 2.99-.56a6.5 6.5 0 0 0 2.32-1.56 7.14 7.14 0 0 0 1.51-2.43c.36-.96.54-2 .54-3.13 0-2.32-.67-4.18-2.02-5.58a7.05 7.05 0 0 0-5.34-2.1Zm3.09 11.35c-.77.91-1.8 1.37-3.09 1.37s-2.32-.46-3.09-1.37c-.77-.92-1.16-2.14-1.16-3.67s.39-2.75 1.16-3.66c.77-.92 1.8-1.38 3.09-1.38s2.32.46 3.09 1.38c.77.91 1.16 2.13 1.16 3.66s-.39 2.75-1.16 3.67Zm67.02-30h2.83V39h-2.83zm-42.12 17.9h3.07v2.52h-3.07z"/></svg>