<svg xmlns="http://www.w3.org/2000/svg" width="230" height="50" viewBox="0 0 230 50"><path d="m31.6,50c-1.27-.97-1.68-2.26-1.56-3.8.11-1.43.07-2.87.19-4.3.21-2.5,1.79-4.03,4.33-4.26,1.37-.12,2.74-.22,4.11-.32.95-.07,1.53-.43,1.56-1.47.03-1.06.17-2.12.28-3.19.09-.85-.3-1.22-1.15-1.19-1.5.05-3,.09-4.5.11-2.61.02-4.24-1.54-4.28-4.08-.02-1.52-.03-3.04,0-4.55.06-2.28,1.77-3.93,4.09-3.93,1.46,0,2.92.12,4.37.17,1.29.04,1.59-.26,1.49-1.49-.08-1.02-.22-2.04-.27-3.06-.06-1.17-.68-1.65-1.83-1.7-1.37-.06-2.75-.18-4.12-.3-2.11-.19-3.77-1.66-4.02-3.74-.22-1.79-.38-3.6-.35-5.4.05-2.74,1.84-3.96,4.03-3.3.2.06.41.06.62.09,4.87.49,6.64,2.93,7.46,6.79.82,3.85-.07,3.29,4.31,4.09,1.02.19,2.06.33,3.01.78,2.1,1,3.61,2.47,3.98,4.86.1.65.23,1.29.35,1.94.4,2.17-.54,3.55-2.79,3.72-1.69.13-3.41-.03-5.12-.07-1.61-.04-1.7.05-1.7,1.62,0,.98.03,1.97-.02,2.95-.05.92.37,1.26,1.26,1.23,1.54-.06,3.08-.09,4.63-.13,1.03-.03,1.98.16,2.83.78.6.44.98,1.02,1.05,1.74.32,3.12-1.42,6.43-4.13,7.88-1.42.76-3.03.85-4.57,1.2-.49.11-.98.18-1.47.26-.66.11-1.07.38-1.16,1.15-.13,1.05-.49,2.07-.67,3.12-.45,2.61-3.17,5.57-6.1,5.62-.14,0-.27.14-.4.21-1.25,0-2.5,0-3.75,0Z" fill="#05a4a5"/><path d="m18.09,50c-.1-.31-.39-.25-.62-.31-3.02-.69-4.67-2.66-5.37-5.52-.18-.72-.34-1.44-.5-2.16-.43-2.03-.43-2-2.5-2.35-1.8-.31-3.64-.48-5.25-1.44-1.68-1.01-2.85-2.36-3.2-4.32-.11-.65-.24-1.29-.36-1.93-.44-2.47.67-3.85,3.22-3.9,1.67-.03,3.33.03,5,.11.95.04,1.4-.27,1.35-1.26-.05-1.02-.08-2.06,0-3.07.09-1.13-.33-1.58-1.49-1.49-1.41.11-2.83.11-4.25.17-1.07.05-2.06-.12-2.97-.73-.55-.37-.91-.85-1.05-1.47-.54-2.4,1.23-6.47,3.31-7.79,1.7-1.08,3.66-1.29,5.56-1.64,2.15-.4,2.14-.37,2.61-2.47.31-1.4.47-2.85,1.13-4.14,1.03-2,2.62-3.35,4.95-3.72.86-.14,1.72-.29,2.59-.43,1.94-.32,3.37.69,3.61,2.61.13,1.01.07,2.02-.15,3.04-.16.75-.12,1.54-.1,2.32.08,2.42-1.5,4.28-3.94,4.51-1.41.14-2.82.27-4.24.32-1.2.05-1.72.63-1.78,1.76-.06,1.06-.18,2.12-.28,3.19-.1.95.33,1.37,1.3,1.33,1.46-.07,2.91-.16,4.37-.18,2.61-.04,4.29,1.63,4.3,4.21,0,1.44,0,2.87,0,4.31-.02,2.47-1.63,4.05-4.16,4.05-1.5,0-3-.05-4.5-.1-.85-.03-1.21.23-1.33,1.17-.16,1.29.39,2.48.3,3.76-.04.55.58,1.1,1.42,1.03,1.65-.15,3.28.26,4.93.31,1.79.06,3.42,1.74,3.61,3.56.2,1.95.23,3.93.27,5.89.02,1.19-.64,2.08-1.54,2.82-1.42,0-2.84,0-4.25,0Z" fill="#05a4a5"/><path d="m134.02,26.88c-2.71-1.98-3.03-4.56-2.18-7.27.9-2.87,3.27-4.11,6.13-4.55,1.57-.24,3.15-.14,4.72.14,2.11.38,4.24.16,6.37.15.99,0,1.17.34,1.17,1.22,0,.86-.14,1.33-1.15,1.19-.56-.08-1.14-.01-1.89-.01.49.8.85,1.47,1.03,2.23,1.08,4.46-2,8.05-7.17,8.34-1.12.06-2.25,0-3.38.03-.54.01-1.08.09-1.61.17-.7.11-1.16.46-1.1,1.23.06.79.64,1.04,1.3,1.06,1.92.04,3.84.03,5.76.03,1.17,0,2.33.13,3.45.47,2.19.67,3.75,1.93,4.05,4.33.31,2.54-.57,4.49-2.85,5.8-2.44,1.39-5.12,1.66-7.85,1.63-1.71-.02-3.38-.27-5.01-.9-3.83-1.49-3.8-6.06-1.6-8.15.24-.23.46-.47.77-.78-1.5-.63-2.18-1.76-2.01-3.35.18-1.69,1.42-2.38,3.05-2.98Zm5.84,6.87v-.07c-.62,0-1.25,0-1.88,0-1.54,0-2.67.93-2.97,2.43-.29,1.48.44,2.79,1.96,3.27,2.04.65,4.11.64,6.14-.04,1.6-.53,2.29-1.6,2.16-3.05-.12-1.33-1.2-2.35-2.79-2.52-.86-.09-1.75-.02-2.62-.02Zm-.24-8.31c2.82.02,4.57-1.42,4.55-3.77-.01-2.24-1.6-3.68-4.07-3.7-2.75-.02-4.21,1.32-4.22,3.87,0,2.33,1.28,3.58,3.73,3.6Z" fill="#05a4a5"/><path d="m216.53,33.72c0,1.87.01,3.59,0,5.3,0,.56.25.72.75.68.08,0,.17,0,.25,0,2.1.05,2.46.52,2.07,2.58-.09.45-.31.51-.68.51-2.96,0-5.92,0-8.88,0-.55,0-.77-.2-.71-.72,0-.08,0-.16,0-.25-.06-2.1-.06-2.15,2.09-2.14.82,0,.94-.29.94-1-.02-6.44-.04-12.87,0-19.31,0-.95-.38-1.06-1.17-1.04-.55.01-1.41.33-1.6-.23-.25-.74-.11-1.62-.06-2.43.02-.38.44-.3.71-.3,1.79,0,3.58,0,5.38,0,1.39,0,.34,1.19.9,1.7,1.01-.7,2.15-1.25,3.39-1.61,4.89-1.41,8.8.88,9.73,5.8.54,2.86.49,5.71-.47,8.49-1.27,3.69-4.28,5.54-8.21,5.1-1.49-.17-2.94-.48-4.44-1.15Zm.08-8.56v2.34c0,3.25.19,3.47,3.49,4.01,2.51.41,4.23-.56,5.04-2.93.75-2.19.69-4.45.24-6.68-.56-2.78-2.24-3.87-5.08-3.39-.95.16-1.83.51-2.68.97-.72.39-1.09.87-1.03,1.75.09,1.31.02,2.62.02,3.94Z" fill="#05a4a5"/><path d="m77.45,16.02c0-2.05,0-3.96,0-5.87,0-.43-.17-.59-.59-.57-.29.02-.59-.04-.87,0-1.25.19-1.76-.21-1.65-1.55.15-1.75-.19-1.53,1.65-1.55,1.5,0,3.01.06,4.5-.02.98-.05,1.26.24,1.25,1.22-.04,7.38-.02,14.76-.02,22.15,0,1.72,0,1.7,1.68,1.73.42,0,1.1-.29,1.21.25.17.82.21,1.71-.05,2.54-.08.28-.53.13-.81.13-1.54.01-3.1-.12-4.62.04-1.4.15-1.62-.49-1.42-1.76-1.56,1.02-3.09,1.72-4.8,1.94-4.79.63-7.92-1.72-8.67-6.67-.4-2.65-.3-5.32.54-7.91,1.24-3.8,4.32-5.74,8.35-5.26,1.45.17,2.87.43,4.32,1.15Zm.07,8.68v-2.46c0-3.42-.18-3.62-3.66-4.06-.17-.02-.33-.05-.5-.06-2.04-.19-3.58.71-4.32,2.59-.94,2.37-.9,4.83-.42,7.26.62,3.14,2.94,4.41,6.04,3.43.63-.2,1.21-.53,1.82-.79.77-.33,1.1-.85,1.05-1.73-.08-1.39-.02-2.78-.02-4.18Z" fill="#515153"/><path d="m201.88,32.42c-1.49,1.16-3.08,2.06-4.99,2.38-4.59.77-7.16-1.26-7.22-5.86-.04-3.12-.05-6.23.01-9.35.02-.97-.26-1.32-1.25-1.24-.5.04-1.33.3-1.48-.23-.23-.8-.12-1.7-.06-2.56.02-.37.46-.27.73-.27,1.83,0,3.67.03,5.5-.02.88-.03.78.49.78,1.03,0,3.73,0,7.46,0,11.2,0,.49.05.98.05,1.47,0,2.01,1.18,2.61,3.18,2.44.73-.06,1.47-.29,2.17-.53,2.16-.74,2.55-1.3,2.55-3.55,0-2.58-.04-5.17.02-7.75.02-.94-.2-1.35-1.22-1.25-.42.04-1.16.32-1.27-.34-.13-.83-.2-1.72.06-2.55.09-.29.52-.16.8-.16,1.58,0,3.17.05,4.75-.03.9-.04,1.1.25,1.1,1.1-.04,4.63.01,9.27-.05,13.9-.01,1.05.29,1.33,1.32,1.28.46-.02,1.32-.55,1.45.55.2,1.62.03,1.99-1.24,2.28-.69.16-1.39.27-2.1.33-2.1.18-2.83-.28-3.61-2.27Z" fill="#05a4a5"/><path d="m106.8,21.73c.85-1.13,1.6-2.14,2.36-3.15-.34-.33-.69-.22-.99-.2-.62.04-.75-.25-.77-.8-.1-2.19-.12-2.19,2.1-2.19,1.83,0,3.67.03,5.5-.02.75-.02,1.1.18.99.96-.04.28-.05.58,0,.86.17,1-.28,1.34-1.24,1.19-.78-.12-1.3.19-1.77.83-1.17,1.59-2.39,3.15-3.67,4.67-.5.6-.46,1-.04,1.59,1.17,1.64,2.33,3.3,3.39,5.02.53.86,1.15,1.23,2.12,1.06,1.26-.23,1.64.32,1.44,1.46-.05.28-.03.58,0,.86.04.49-.17.63-.65.63-2.54-.02-5.09-.02-7.63,0-.52,0-.79-.13-.73-.69.03-.28.04-.58,0-.86-.16-1.06.16-1.65,1.61-1.35-1.07-1.59-2.02-3.01-3.03-4.52-1.13,1.47-2.2,2.86-3.25,4.23.15.34.4.26.57.23,1.19-.2,1.54.23,1.53,1.44,0,1.22-.27,1.63-1.57,1.55-1.95-.13-3.92-.07-5.88-.01-.83.03-1.13-.23-1.02-1.03.05-.36.05-.74.02-1.11-.07-.64.18-.94.84-.83.77.13,1.2-.26,1.63-.83,1.5-2.02,3.03-4.02,4.59-5.99.39-.49.46-.84.07-1.38-.84-1.17-1.69-2.35-2.37-3.61-.63-1.17-1.43-1.68-2.78-1.48-.45.07-1.24.28-1.37-.19-.21-.76-.07-1.62-.04-2.43,0-.08.24-.19.39-.22.2-.04.42-.03.62-.02,1.58.06,3.41-.53,4.67.21,1.2.7,1.81,2.38,2.68,3.63.53.78,1.05,1.57,1.68,2.51Z" fill="#515153"/><path d="m185.38,24.9c-.04,2.66-.43,5.32-2.46,7.35-2.93,2.93-6.58,3.22-10.32,2.02-3.71-1.19-4.93-4.27-5.3-7.77-.21-1.93-.04-3.85.6-5.71,1.43-4.2,5.24-6.33,10.24-5.74,4.09.49,6.76,3.49,7.15,8.06.05.57.06,1.15.09,1.78Zm-4.33.19c.05-1.41-.12-2.79-.58-4.12-.63-1.83-1.91-2.78-3.78-2.88-1.88-.1-3.48.77-4.22,2.48-1.21,2.83-1.23,5.75-.2,8.63.63,1.76,2.12,2.45,3.94,2.48,1.75.04,3.16-.57,4.02-2.18.75-1.4.78-2.91.81-4.43Z" fill="#05a4a5"/><path d="m158.2,18.1c1.78-1.29,3.39-2.38,5.3-2.9.87-.24,1.85-.73,2.62-.04.81.74.37,1.77.15,2.67-.47,1.93-.75,2.12-2.8,2.13-1.42,0-2.83.04-4.25,0-.67-.02-.96.13-.95.87.04,3.28.03,6.56,0,9.84,0,.69.19,1,.91.89.08-.01.17-.01.25,0,.58.11,1.46-.35,1.7.29.26.68.1,1.53.07,2.31-.01.41-.39.35-.67.36-2.83,0-5.67,0-8.5,0-.52,0-.79-.15-.74-.7.02-.28.04-.58,0-.86-.17-1.1.22-1.62,1.4-1.41,1.09.2,1.39-.22,1.37-1.31-.08-3.52-.07-7.05,0-10.58.02-1.01-.23-1.41-1.29-1.29-.43.05-1.16.32-1.31-.3-.2-.82-.21-1.71.04-2.54.08-.27.43-.19.67-.19,1.75,0,3.5.01,5.25-.01.59,0,.84.19.8.78-.03.57,0,1.14,0,1.98Z" fill="#05a4a5"/><path d="m92.53,23.44c0,2.34.04,4.67-.02,7.01-.02.88.28,1.1,1.13,1.08,1.84-.04,1.82,0,1.78,1.74-.01.59-.2.87-.78,1.04-1.3.39-2.61.54-3.95.4-1.46-.15-2.23-.95-2.28-2.59-.09-2.62-.05-5.24-.06-7.87,0-1.64-.04-3.28.01-4.92.03-.77-.25-1.04-1-.97-1.8.16-.93-1.2-1.1-1.94-.21-.92.33-1.09,1.14-1.05,1.33.05,2.67.08,4,0,.99-.07,1.17.31,1.15,1.19-.06,2.29-.02,4.59-.02,6.88Z" fill="#515153"/><path d="m124.82,23.48c0,2.29.04,4.59-.02,6.88-.02.91.22,1.2,1.18,1.17,1.9-.06,1.88,0,1.76,1.86-.03.48-.17.77-.66.87-.33.06-.64.17-.97.24-4.2.93-5.47-.05-5.47-4.21,0-3.6-.02-7.21.02-10.81.01-.84-.21-1.25-1.1-1.11-.78.12-1.05-.24-.97-.98.04-.4.03-.82,0-1.23-.04-.58.2-.8.79-.79,1.5.03,3,.05,4.5,0,.79-.03.98.26.97.99-.04,2.38-.02,4.75-.02,7.13Z" fill="#515153"/><path d="m122.5,12.58c-1.44-.02-2.58-1.21-2.53-2.64.05-1.41,1.27-2.56,2.69-2.51,1.44.05,2.59,1.25,2.54,2.65-.05,1.42-1.23,2.51-2.7,2.49Z" fill="#515153"/><path d="m90.24,12.58c-1.44-.03-2.59-1.22-2.54-2.64.04-1.41,1.26-2.55,2.69-2.51,1.44.04,2.57,1.23,2.54,2.66-.03,1.43-1.21,2.52-2.69,2.49Z" fill="#515153"/></svg>