<svg xmlns="http://www.w3.org/2000/svg" width="180" height="40" viewBox="0 0 180 40"><path d="m30.64,18.54c-.24,0-.59.32-.59.53.03,1.02.02,2.04,0,3.06,0,.21.35.53.59.52,1.15-.04,2.29-.08,3.44-.13,1.59-.05,2.84.89,2.64,2.11-.14.89-.32,1.77-.55,2.66-.32,1.21-1.88,2.54-3.34,2.88-1.06.23-2.11.44-3.17.62-.2.03-.6.3-.62.44-.2,1.02-.42,2.04-.67,3.06-.37,1.4-1.76,2.89-3.02,3.18-.92.21-1.84.37-2.76.5-1.26.18-2.23-1.01-2.16-2.55.06-1.1.11-2.21.16-3.31.05-1.54,1.33-2.83,2.86-2.91,1.09-.06,2.18-.15,3.28-.25.21-.02.6-.27.62-.41.12-1.05.21-2.1.28-3.15.02-.22-.33-.54-.56-.52-1.13.05-2.27.09-3.4.13-1.57.05-2.84-1.19-2.83-2.73,0-1.1,0-2.21,0-3.31,0-1.54,1.27-2.78,2.84-2.73,1.14.03,2.27.07,3.41.12.24,0,.58-.32.56-.54-.07-1.05-.16-2.1-.27-3.15-.02-.22-.41-.59-.64-.61-1.09-.1-2.18-.19-3.28-.25-1.53-.09-2.81-1.37-2.86-2.91-.05-1.1-.1-2.21-.16-3.31-.06-1.54.9-2.73,2.16-2.55.92.13,1.84.3,2.76.5,1.26.3,2.65,1.78,3.02,3.18.25,1.02.48,2.04.67,3.06.04.21.44.59.66.63,1.06.18,2.12.38,3.18.61,1.46.33,3.01,1.65,3.33,2.87.22.89.4,1.77.53,2.66.19,1.22-1.06,2.17-2.66,2.12-1.15-.04-2.29-.08-3.44-.12Zm-24.52,0c.24,0,.59.32.59.53-.03,1.02-.02,2.04,0,3.06,0,.21-.35.53-.59.52-1.15-.04-2.29-.08-3.44-.13-1.59-.05-2.84.89-2.64,2.11.14.89.32,1.77.55,2.66.32,1.21,1.88,2.54,3.34,2.88,1.06.23,2.11.44,3.17.62.2.03.6.3.62.44.2,1.02.42,2.04.67,3.06.37,1.4,1.76,2.89,3.02,3.18.92.21,1.84.37,2.76.5,1.26.18,2.22-1.01,2.16-2.55-.06-1.1-.11-2.21-.16-3.31-.05-1.54-1.33-2.83-2.86-2.91-1.09-.06-2.18-.15-3.28-.25-.21-.02-.6-.27-.62-.41-.12-1.05-.21-2.1-.28-3.15-.02-.22.33-.54.56-.52,1.13.05,2.27.09,3.4.13,1.57.05,2.84-1.19,2.83-2.73,0-1.1,0-2.21,0-3.31,0-1.54-1.27-2.78-2.84-2.73-1.14.03-2.27.07-3.41.12-.24,0-.58-.32-.56-.54.07-1.05.16-2.1.27-3.15.02-.22.41-.59.64-.61,1.09-.1,2.18-.19,3.28-.25,1.53-.09,2.81-1.37,2.86-2.91.05-1.1.1-2.21.16-3.31.06-1.54-.91-2.73-2.16-2.55-.92.13-1.84.3-2.76.5-1.26.3-2.65,1.78-3.02,3.18-.25,1.02-.48,2.04-.67,3.06-.04.21-.44.59-.66.63-1.06.18-2.12.38-3.18.61-1.46.33-3.01,1.65-3.33,2.87-.22.89-.4,1.77-.53,2.66-.19,1.22,1.06,2.17,2.66,2.12,1.15-.04,2.29-.08,3.44-.12Z" fill="#fff"/><path d="m52.96,25.8c-.56.45-1.22.81-1.97,1.06-.75.25-1.46.38-2.11.38-.98,0-1.8-.18-2.47-.53-.67-.36-1.21-.83-1.61-1.43-.4-.6-.69-1.3-.86-2.1-.17-.8-.26-1.65-.26-2.57,0-1.04.1-2,.3-2.88.2-.88.52-1.65.95-2.29.44-.65,1-1.16,1.7-1.53.7-.37,1.55-.56,2.57-.56.49,0,1.07.06,1.73.18.66.12,1.3.34,1.92.67v-4.56h-2.14v-2.1h5.02v17.43h2.01v2.05h-4.72v-1.2l-.05-.03h0Zm-3.19-10.2c-.42,0-.82.07-1.2.22-.38.15-.72.4-1.01.78-.29.37-.52.88-.69,1.53-.17.65-.26,1.47-.26,2.47,0,.87.08,1.6.23,2.17.16.57.37,1.03.64,1.36.27.34.59.57.97.71.37.14.78.21,1.21.21.58,0,1.18-.13,1.79-.4.61-.26,1.08-.54,1.4-.83v-7.34c-.15-.11-.34-.21-.57-.31-.24-.1-.49-.19-.78-.27-.28-.08-.57-.15-.87-.21-.3-.06-.59-.08-.86-.08Z" fill="#fff"/><path d="m58.88,15.79v-2.07h4.26v11.21h1.95v1.75c-.38.18-.82.32-1.32.41-.5.09-.93.14-1.29.14-.78,0-1.34-.16-1.68-.48-.34-.32-.52-.88-.54-1.68v-9.28h-1.38Zm4.53-5.81c0,.49-.18.91-.53,1.27-.35.36-.78.53-1.29.53s-.91-.18-1.25-.53c-.34-.36-.51-.78-.51-1.27s.17-.94.51-1.28c.34-.35.76-.52,1.25-.52s.94.17,1.29.52c.35.35.53.77.53,1.28Z" fill="#fff"/><path d="m72.19,21.84l-2.36,3.14h1.52v2.05h-5.72l.03-2.05h1.22l3.93-5.24-2.61-3.98h-2.22v-2.05h3.99l2.9,4.42,1.74-2.38h-1.33v-2.05h5.89v2.05h-1.57l-3.39,4.39,3.2,4.83h1.93v2.05h-6.13v-2.05h1.06l-2.06-3.14h0Z" fill="#fff"/><path d="m80.93,15.79v-2.07h4.26v11.21h1.95v1.75c-.38.18-.82.32-1.32.41-.5.09-.93.14-1.29.14-.78,0-1.34-.16-1.68-.48-.34-.32-.52-.88-.54-1.68v-9.28h-1.38Zm4.53-5.81c0,.49-.18.91-.53,1.27-.35.36-.78.53-1.29.53s-.91-.18-1.25-.53c-.34-.36-.51-.78-.51-1.27s.17-.94.51-1.28c.34-.35.76-.52,1.25-.52s.94.17,1.29.52c.35.35.53.77.53,1.28Z" fill="#fff"/><path d="m100.42,15.35c.29.33.51.74.67,1.25.15.51.23,1.02.23,1.53,0,.74-.15,1.4-.45,1.96-.3.56-.7,1.04-1.22,1.43-.52.39-1.12.69-1.83.9-.7.21-1.47.31-2.31.31h-1.49c-.63,0-1.11.06-1.44.19-.33.13-.49.37-.49.73,0,.55.42.83,1.25.83h3.58c1.65,0,2.93.33,3.85,1,.92.66,1.38,1.66,1.38,3,0,.64-.14,1.23-.42,1.77-.28.54-.71,1.01-1.3,1.41-.59.4-1.32.72-2.2.94-.88.23-1.91.34-3.11.34s-2.08-.1-2.83-.31c-.75-.21-1.35-.48-1.8-.82-.45-.34-.77-.73-.95-1.19-.18-.46-.27-.93-.27-1.42,0-.77.19-1.42.56-1.96.37-.55.76-.94,1.18-1.17-.52-.11-.92-.35-1.19-.71-.27-.36-.41-.81-.41-1.34,0-.38.07-.7.22-.97.14-.26.33-.49.54-.67.22-.18.46-.33.72-.44.26-.11.52-.19.77-.25-.49-.22-.92-.6-1.3-1.16-.38-.55-.57-1.32-.57-2.3,0-.87.16-1.62.49-2.24.33-.62.76-1.12,1.29-1.51.53-.39,1.14-.68,1.82-.86.68-.18,1.36-.27,2.05-.27.47,0,.94.03,1.4.1.46.06.87.14,1.23.23h4.48v1.61h-2.04l-.08.06h0Zm-6.89,11.1c-.16.06-.33.15-.5.3-.17.15-.33.31-.46.51-.14.19-.24.4-.33.63-.08.23-.12.45-.12.67,0,.27.05.55.15.82.1.27.27.51.53.71.25.2.6.36,1.05.49.44.13,1.02.19,1.72.19,1.19,0,2.09-.21,2.7-.61.61-.41.91-.94.91-1.6,0-.25-.05-.51-.14-.75-.09-.25-.24-.47-.46-.67-.22-.2-.5-.36-.85-.49-.35-.13-.79-.19-1.32-.19h-2.88Zm4.85-8.35c0-.27-.05-.56-.14-.87-.09-.31-.24-.59-.46-.86-.22-.26-.51-.48-.88-.66-.37-.17-.84-.26-1.4-.26-.92,0-1.62.24-2.09.72-.47.48-.7,1.13-.7,1.95s.23,1.43.68,1.88c.45.45,1.08.68,1.9.68.89,0,1.62-.21,2.21-.64.59-.43.88-1.08.88-1.95h0Z" fill="#fff"/><path d="m108.06,15.6c.27-.24.6-.49.98-.75.38-.26.79-.51,1.22-.72.43-.22.88-.4,1.33-.55.45-.14.89-.22,1.3-.22.25,0,.44.07.57.21.12.14.19.38.19.72,0,.36-.07.8-.22,1.31-.15.51-.37.93-.68,1.26l-4.72.03v8.1h1.98v2.05h-6.73v-2.05h1.87v-9.19h-1.82v-2.1h4.64v1.88l.08.03h0Z" fill="#fff"/><path d="m126.54,20.37c0,.89-.11,1.75-.33,2.58-.22.83-.57,1.56-1.07,2.2-.5.64-1.15,1.15-1.95,1.53-.8.38-1.8.57-3,.57-1.12,0-2.07-.18-2.83-.55-.77-.36-1.39-.86-1.87-1.49-.48-.63-.83-1.35-1.04-2.17-.22-.82-.33-1.69-.33-2.62s.12-1.79.35-2.63c.23-.85.61-1.59,1.11-2.24.51-.65,1.16-1.16,1.95-1.55.8-.39,1.76-.59,2.88-.59s2.1.2,2.89.59c.79.39,1.42.9,1.9,1.54.48.64.82,1.38,1.03,2.22.21.85.31,1.71.31,2.6h0Zm-2.96.06c0-.56-.04-1.13-.12-1.7-.08-.57-.24-1.09-.46-1.55-.23-.46-.54-.84-.95-1.13-.4-.29-.94-.44-1.59-.44s-1.22.14-1.65.42c-.43.28-.78.65-1.03,1.11-.25.45-.43.97-.53,1.54-.1.57-.15,1.16-.15,1.76s.04,1.21.12,1.77c.08.56.24,1.06.47,1.49.24.43.56.77.99,1.02.42.25.99.38,1.69.38.65,0,1.19-.14,1.6-.41.42-.27.74-.63.98-1.06.24-.44.4-.93.49-1.49.09-.55.14-1.12.14-1.7h0Z" fill="#fff"/><path d="m133.43,27.33c-.85,0-1.53-.12-2.05-.36-.51-.24-.91-.55-1.19-.96-.28-.4-.47-.85-.57-1.36-.1-.51-.15-1.04-.15-1.58v-7.28h-1.93v-2.1h4.8v8.89c0,.38.02.72.06,1.01.04.29.12.54.26.74.14.2.33.35.58.45.25.1.6.15,1.04.15s.99-.11,1.65-.33c.66-.22,1.3-.61,1.9-1.17v-7.64h-1.74v-2.1h4.61v11.27h1.87v1.72c-.51.2-.99.34-1.46.41-.47.07-.86.11-1.16.11-.66,0-1.15-.12-1.46-.37-.31-.25-.51-.7-.58-1.35-.81.74-1.62,1.24-2.41,1.49-.79.25-1.48.37-2.06.37h0Z" fill="#fff"/><path d="m143,30.66h1.98v-14.87h-1.98v-2.07h4.69v1.23l.06.03c.54-.45,1.19-.82,1.95-1.08.76-.26,1.47-.4,2.12-.4.99,0,1.82.18,2.48.53.66.36,1.19.83,1.6,1.43.41.6.7,1.31.87,2.11.17.81.26,1.66.26,2.55,0,1.04-.1,1.99-.3,2.87s-.51,1.63-.95,2.26c-.43.64-1,1.14-1.71,1.5-.7.36-1.56.55-2.58.55-.47,0-1.04-.06-1.69-.19-.66-.13-1.31-.36-1.94-.68v4.23h2.12v2.1h-6.97v-2.1h0Zm7.95-5.65c.4,0,.79-.07,1.17-.21s.71-.38,1-.74c.29-.36.52-.85.69-1.49.17-.64.26-1.45.26-2.43,0-.87-.08-1.59-.23-2.14-.15-.55-.36-1-.62-1.32-.26-.33-.58-.55-.95-.67-.37-.12-.77-.18-1.21-.18-.29,0-.59.04-.9.11-.31.07-.61.17-.9.28-.29.12-.56.25-.8.4-.24.15-.45.29-.61.44v7.04c.16.11.36.22.6.33s.49.21.77.28c.28.08.57.15.87.21.3.06.58.08.85.08h0Z" fill="#fff"/><path d="m161.05,16.62l.8-2.13h.21l.82,2.13h-.31l-.2-.56h-.82l-.2.56h-.3Zm.59-.79h.64l-.2-.55c-.04-.12-.08-.24-.12-.36h0c-.01.05-.05.17-.12.36l-.2.55Z" fill="#fff"/><path d="m165.46,16.62h-.25l-.98-1.3c-.05-.06-.14-.19-.28-.38h0c0,.1,0,.22,0,.35v1.33h-.28v-2.12h.27l.94,1.25c.08.1.17.24.28.4h0c0-.15,0-.27,0-.37v-1.28h.28v2.12h0Z" fill="#fff"/><path d="m166.26,16.62l.8-2.13h.21l.82,2.13h-.31l-.21-.56h-.82l-.2.56h-.3Zm.59-.79h.64l-.2-.55c-.04-.12-.08-.24-.12-.36h0c-.01.05-.05.17-.12.36l-.2.55Z" fill="#fff"/><path d="m168.89,16.62v-2.12h.28v1.88h.77v.25h-1.05Z" fill="#fff"/><path d="m171.24,16.62v-.85l-.7-1.27h.31l.53,1.01h0l.52-1.01h.31l-.7,1.28v.84h-.28Z" fill="#fff"/><path d="m173.4,16.62v-1.88h-.61v-.25h1.56l-.08.25h-.58v1.88h-.28Z" fill="#fff"/><path d="m175.12,16.62v-2.12h.28v2.12h-.28Z" fill="#fff"/><path d="m177.88,16.27l.08.23c-.2.1-.4.15-.62.15-.32,0-.57-.1-.75-.29-.18-.2-.27-.45-.27-.77s.1-.58.3-.79c.2-.21.46-.32.77-.32.22,0,.39.04.53.11v.27c-.17-.09-.35-.13-.52-.13-.23,0-.42.08-.56.25-.14.16-.21.36-.21.6,0,.25.07.45.2.61s.32.23.55.23c.17,0,.34-.05.51-.14h0Z" fill="#fff"/><path d="m178.72,16.48l.12-.22c.14.09.3.14.46.14.12,0,.21-.02.29-.08.08-.05.11-.13.11-.24,0-.09-.03-.17-.09-.23-.06-.06-.14-.12-.23-.17-.09-.05-.18-.1-.27-.15-.09-.05-.17-.12-.23-.21-.06-.09-.09-.19-.09-.31,0-.16.06-.29.17-.4.11-.11.27-.16.47-.16.18,0,.34.03.48.1v.26c-.15-.08-.3-.12-.47-.12-.1,0-.18.02-.25.07-.07.05-.1.12-.1.21,0,.08.03.15.1.22.06.06.14.12.23.17.09.05.18.1.27.15.09.05.17.13.23.21.06.09.1.2.1.32,0,.18-.06.32-.2.42-.13.1-.3.16-.51.16-.22,0-.42-.06-.58-.17h0Z" fill="#fff"/><path d="m162.21,20.11c-.3,0-.55-.1-.75-.3-.2-.2-.29-.46-.29-.78s.1-.58.29-.78c.19-.2.44-.3.75-.3s.55.1.75.31c.19.2.29.46.29.78s-.1.59-.29.78c-.19.2-.44.3-.74.3Zm0-.25c.22,0,.4-.08.53-.23.14-.15.2-.36.2-.61s-.07-.45-.2-.61c-.13-.16-.31-.24-.54-.24s-.4.08-.54.23c-.13.15-.2.36-.2.61s.07.46.2.61c.13.15.31.23.54.23h0Z" fill="#fff"/><path d="m165.96,20.07h-.25l-.98-1.3c-.04-.06-.14-.19-.28-.38h0c0,.1,0,.22,0,.35v1.33h-.28v-2.12h.27l.95,1.25c.08.1.17.24.28.4h0c0-.15,0-.27,0-.37v-1.28h.28v2.12h0Z" fill="#fff"/><path d="m168.17,20.07v-2.12h.55c.37,0,.64.1.84.28.2.19.29.44.29.76s-.1.58-.3.78c-.2.2-.48.3-.85.3h-.53Zm.28-.25h.25c.29,0,.51-.08.65-.23.13-.15.2-.36.2-.6s-.07-.44-.22-.58c-.14-.14-.36-.21-.63-.21h-.25v1.63h0Z" fill="#fff"/><path d="m171.56,20.11c-.39,0-.64-.15-.76-.44-.04-.1-.06-.22-.06-.36v-1.35h.28v1.33c0,.12.01.22.05.29.08.19.24.29.48.29s.4-.1.48-.29c.03-.08.04-.17.04-.3v-1.32h.28v1.35c0,.15-.02.27-.06.37-.11.29-.36.43-.75.43h0Z" fill="#fff"/><path d="m173.77,20.07v-1.88h-.61v-.25h1.56l-.09.25h-.58v1.88h-.28Z" fill="#fff"/><path d="m175.96,20.07v-.85l-.7-1.27h.31l.53,1.01h0l.52-1.01h.31l-.7,1.28v.84h-.28Z" fill="#fff"/></svg>