<svg xmlns="http://www.w3.org/2000/svg" width="160" height="50" xmlns:xlink="http://www.w3.org/1999/xlink" viewBox="0 0 160 50"><defs><clipPath id="b"><rect y="0" width="160" height="50" fill="none" stroke-width="0"/></clipPath></defs><g clip-path="url(#b)"><path d="m20.95,4.62C21.11,2.96,20.74,1.12,22.5,0h5.83c1.6,1.22,1.05,3.1,1.48,4.68v18.03c2.44-3.52,4.58-6.58,6.69-9.66.67-.98,1.43-1.91,2.68-1.95,2.75-.08,5.5-.02,8.54-.02-2.96,4.2-5.76,8.17-8.56,12.14-.65.77-2.27,1.3-.67,2.64,3.13,4.26,6.25,8.53,9.54,13.01-2.89,0-5.48-.05-8.07.02-1.11.03-1.8-.4-2.41-1.26-1.83-2.56-3.71-5.08-5.59-7.61-.66-.89-1.35-1.74-2.32-2.97,0,2.62,0,4.73,0,6.85-.02,5.6.6,4.96-5.13,4.96-2.67,0-3.41-.79-3.46-3.51-.06-3.2-.1-6.41-.14-9.61.02-.76.03-1.52.04-2.27.16-6.28.16-12.55,0-18.83Z" fill="#092b75" stroke-width="0"/><path d="m39.16,23.22c2.8-3.97,5.6-7.94,8.56-12.14-3.03,0-5.79-.06-8.54.02-1.25.04-2.01.97-2.68,1.95-2.11,3.08-4.25,6.15-6.69,9.66V4.68c42.87,0,85.74-.01,128.62-.02.3,0,.6.04.91.06.2.83-.47,1.23-.84,1.72-3.29,4.42-6.64,8.78-9.65,13.4-1.94,2.98-4.64,4.33-8.24,3.55-.73-.16-1.45-.01-2.16.13-.17-.7-.34-1.4-.5-2.11-1.6-6.67-7.03-11.13-13.31-10.87-2.78.12-5.25,1.25-7.62,2.64q-.68-1.95-2.7-1.96c-.97,0-1.94-.01-2.91.02-2.47.06-2.96.53-3.06,2.98-.12,3.07-.2,6.15-.3,9.22-1.34-.01-2.68-.03-4.03-.04-.11-.4-.24-.8-.32-1.2-1.43-6.96-6.45-11.47-13.06-11.73-7.9-.31-13.55,3.43-15.56,10.32-.25.87-.43,1.75-.64,2.63-2.14.06-4.27.12-6.41.19-2.72-1.36-5.67-2.03-8.55-2.93-.86-.27-1.64-.61-1.36-1.75.25-.99.96-1.35,1.91-1.28,1.17.08,2.32.36,3.08,1.31.78.98,1.53.92,2.5.34,1.4-.83,2.83-1.64,4.3-2.33,1.21-.57,1.04-1.09.31-1.97-3.35-4.04-7.67-5.25-12.69-4.4-5.14.87-7.92,3.54-8.28,7.92-.13,1.58.31,3.11.66,4.64-3.59.23-7.18.16-10.78.04Z" fill="#f8da08" stroke-width="0"/><path d="m20.91,25.73c.05,3.2.09,6.41.14,9.61.05,2.72.78,3.52,3.46,3.51,5.72,0,5.11.64,5.13-4.96,0-2.11,0-4.23,0-6.85.96,1.23,1.66,2.09,2.32,2.97,1.88,2.53,3.76,5.05,5.59,7.61.62.86,1.3,1.29,2.41,1.26,2.59-.08,5.18-.02,8.07-.02-3.29-4.48-6.41-8.75-9.54-13.01,4.5-.08,9.01-.17,13.51-.25,2.96,1.55,6.12,2.55,9.35,3.36.75.19,1.44.52,1.45,1.37,0,.66-.31,1.28-1.01,1.59-1.37.6-4.43-.1-5.27-1.36-.92-1.37-1.98-1.39-3.27-.67-1.26.71-2.49,1.49-3.79,2.11-1.35.64-1.46,1.5-.66,2.59,1.47,1.99,3.33,3.52,5.74,4.23,3.63,1.06,7.31,1.02,10.92-.05,3.68-1.09,5.88-3.85,6.15-7.47.14-1.9-.52-3.68-1.08-5.47,1.31-.05,2.62-.09,3.92-.14.51,2.93,1.12,5.85,3.04,8.23,4.12,5.13,9.71,6.23,15.86,5.42,3.3-.43,6.04-2.07,8.19-4.62.25-.3.9-.53.42-1.17-1.54-2.05-6.36-3.23-8.66-2.11-3.53,1.72-7.89.24-9.08-3.12,5.52,0,11.03,0,16.54,0,2.42,0,2.78-.26,3.33-2.62,1.3-.02,2.6-.04,3.89-.07.53,6.32.47,12.63.02,18.95-30.45,0-60.9-.02-91.35.03-2.65,0-4.42-.94-5.87-3.14-3.42-5.19-7.01-10.27-10.81-15.79h20.91Z" fill="#f8da08" stroke-width="0"/><path d="m108.02,44.63c.45-6.32.51-12.63-.02-18.95.02-.74.03-1.49.05-2.24.1-3.07.18-6.15.3-9.22.1-2.45.59-2.92,3.06-2.98.97-.03,1.94-.02,2.91-.02q2.02,0,2.7,1.96c2.37-1.39,4.84-2.52,7.62-2.64,6.29-.26,11.71,4.2,13.31,10.87.17.7.34,1.4.51,2.11.02.71.04,1.43.06,2.14-.19.88-.37,1.75-.56,2.63-2.27,10.88-13.46,13.43-19.68,9.25-.46-.31-.9-.81-1.72-.65.17,2.59-.26,5.17.24,7.74-.03.36-.06.72-.08,1.08-.1,1.31.28,3.07-.43,3.82-.83.88-2.62.25-4,.28-1.32.04-3.02.46-3.87-.18-.9-.68-.13-2.46-.29-3.75-.05-.42-.08-.84-.12-1.26Zm8.95-21.22c-.36.75-.46,1.52-.14,2.31.24,3.72,2.44,5.86,6.12,5.94,4.26.09,6.4-1.74,6.89-5.91.22-.8.28-1.58-.23-2.3-.35-3.22-2.52-5.12-6-5.26-3.66-.14-5.89,1.61-6.63,5.21Z" fill="#092b75" stroke-width="0"/><path d="m116.81,44.64c-.5-2.57-.07-5.15-.24-7.74.82-.16,1.26.34,1.72.65,6.21,4.18,17.41,1.63,19.68-9.25.18-.88.37-1.76.56-2.63,5.65-.81,8.96.72,11.86,5.6,2.23,3.75,4.91,7.18,7.57,10.63.61.8,1.21,1.61,2.05,2.74h-43.19Z" fill="#f8da08" stroke-width="0"/><path d="m20.95,4.62c.17,6.28.16,12.55,0,18.83-3.45-.02-6.91-.05-10.36-.06-3.39-.01-6.77,0-10.34,0,.61-1.6,1.65-2.7,2.43-3.95,2.17-3.48,4.78-6.65,6.81-10.25,2.5-4.42,6.68-5.41,11.45-4.57Z" fill="#f8da08" stroke-width="0"/><path d="m104.11,25.75c-.56,2.36-.92,2.62-3.33,2.62-5.51-.01-11.02,0-16.54,0,1.19,3.36,5.55,4.84,9.08,3.12,2.3-1.12,7.12.06,8.66,2.11.48.64-.17.87-.42,1.17-2.15,2.55-4.9,4.19-8.19,4.62-6.15.81-11.73-.29-15.86-5.42-1.92-2.39-2.53-5.3-3.04-8.23,0-.76,0-1.53,0-2.29.21-.88.38-1.77.64-2.63,2.01-6.89,7.67-10.63,15.56-10.32,6.61.26,11.63,4.77,13.06,11.73.08.41.21.8.32,1.2-.18.79-.22,1.57.08,2.34Zm-14.62-3.55v-.03c1.57,0,3.14,0,4.7,0,.77,0,1.32-.17.94-1.18-.66-1.73-2.84-3.14-5.02-3.26-2.66-.14-4.93.49-6.26,3-.46.88-.25,1.5.94,1.47,1.57-.04,3.13,0,4.7,0Z" fill="#092b75" stroke-width="0"/><path d="m52,25.61c-.69-.81-1.38-1.62-2.06-2.43-.35-1.53-.79-3.05-.66-4.64.36-4.38,3.13-7.06,8.28-7.92,5.02-.85,9.34.36,12.69,4.4.73.88.91,1.4-.31,1.97-1.47.69-2.9,1.49-4.3,2.33-.97.58-1.73.63-2.5-.34-.76-.96-1.91-1.23-3.08-1.31-.95-.07-1.66.29-1.91,1.28-.28,1.14.5,1.48,1.36,1.75,2.88.9,5.83,1.57,8.55,2.93.83.75,1.66,1.5,2.49,2.24.56,1.78,1.21,3.56,1.08,5.47-.26,3.62-2.47,6.37-6.15,7.47-3.61,1.07-7.29,1.12-10.92.05-2.41-.7-4.27-2.24-5.74-4.23-.8-1.09-.69-1.95.66-2.59,1.3-.62,2.53-1.4,3.79-2.11,1.28-.73,2.35-.7,3.27.67.85,1.26,3.91,1.96,5.27,1.36.7-.31,1.02-.92,1.01-1.59,0-.85-.7-1.18-1.45-1.37-3.23-.82-6.39-1.81-9.35-3.37Z" fill="#092b75" stroke-width="0"/><path d="m129.84,25.75c-.49,4.17-2.62,6-6.89,5.91-3.68-.08-5.88-2.22-6.12-5.94,4.33.01,8.67.02,13,.04Z" fill="#f8da08" stroke-width="0"/><path d="m116.97,23.41c.73-3.6,2.96-5.36,6.63-5.21,3.48.14,5.66,2.04,6,5.26-4.21-.01-8.42-.03-12.63-.04Z" fill="#f8da08" stroke-width="0"/><path d="m89.49,22.2c-1.57,0-3.13-.03-4.7,0-1.19.03-1.4-.59-.94-1.47,1.33-2.51,3.6-3.15,6.26-3,2.18.12,4.36,1.52,5.02,3.26.39,1.01-.16,1.17-.94,1.18-1.57.01-3.14,0-4.7,0,0,0,0,.02,0,.03Z" fill="#f8da08" stroke-width="0"/></g></svg>