<svg xmlns="http://www.w3.org/2000/svg" xmlns:xlink="http://www.w3.org/1999/xlink" style="display:none"><symbol id="arrow-left"><path d="M0 6l10 6V7h54c.55 0 1-.45 1-1s-.45-1-1-1H10V0L0 6z"/></symbol><symbol id="arrow-right"><path d="M65 6L55 0v5H1c-.55 0-1 .45-1 1s.45 1 1 1h54v5l10-6z"/></symbol><symbol id="burger"><path d="M4.33 8c0-.55.45-1 1-1h21.33c.55 0 1 .45 1 1s-.45 1-1 1H5.33c-.55 0-1-.45-1-1zM4.33 16c0-.55.45-1 1-1h21.33c.55 0 1 .45 1 1s-.45 1-1 1H5.33c-.55 0-1-.45-1-1zM4.33 24c0-.55.45-1 1-1h21.33c.55 0 1 .45 1 1s-.45 1-1 1H5.33c-.55 0-1-.45-1-1z" fill-rule="evenodd"/></symbol><symbol id="chevron-down"><path d="M5.29 8.29a.996.996 0 011.41 0l5.29 5.29 5.29-5.29a.996.996 0 111.41 1.41l-6 6a.996.996 0 01-1.41 0l-6-6a.996.996 0 010-1.41z" fill-rule="evenodd"/></symbol><symbol id="chevron-left"><path d="M15.71 5.29c.39.39.39 1.02 0 1.41l-5.29 5.29 5.29 5.29a.996.996 0 11-1.41 1.41l-6-6a.996.996 0 010-1.41l6-6a.996.996 0 011.41 0z" fill-rule="evenodd"/></symbol><symbol id="chevron-right"><path d="M8.29 5.29a.996.996 0 011.41 0l6 6c.39.39.39 1.02 0 1.41l-6 6a.996.996 0 11-1.41-1.41L13.58 12 8.29 6.71a.996.996 0 010-1.41z" fill-rule="evenodd"/></symbol><symbol id="chevron-up"><path d="M11.29 8.29a.996.996 0 011.41 0l6 6a.996.996 0 11-1.41 1.41L12 10.41 6.71 15.7a.996.996 0 11-1.41-1.41l6-6z" fill-rule="evenodd"/></symbol><symbol id="close"><path d="M17.41 16l7.29-7.29a.996.996 0 10-1.41-1.41L16 14.59 8.71 7.3A.996.996 0 107.3 8.71L14.59 16 7.3 23.29a.996.996 0 101.41 1.41L16 17.41l7.29 7.29a.996.996 0 101.41-1.41L17.41 16z"/></symbol><symbol id="facebook"><path d="M13.91 5.25A7.669 7.669 0 0119.33 3h4c.55 0 1 .45 1 1v5.33c0 .55-.45 1-1 1h-4c-.09 0-.17.04-.24.1s-.1.15-.1.24v1.67h4.33c.31 0 .6.14.79.38.19.24.26.56.18.86l-1.33 5.33c-.11.45-.51.76-.97.76h-3V28c0 .55-.45 1-1 1h-5.33c-.55 0-1-.45-1-1v-8.33h-3c-.55 0-1-.45-1-1v-5.33c0-.55.45-1 1-1h3v-1.67c0-2.03.81-3.98 2.25-5.42zM19.33 5c-1.5 0-2.94.6-4.01 1.66a5.668 5.668 0 00-1.66 4.01v2.67c0 .55-.45 1-1 1h-3v3.33h3c.55 0 1 .45 1 1V27h3.33v-8.33c0-.55.45-1 1-1h3.22l.83-3.33h-4.05c-.55 0-1-.45-1-1v-2.67c0-.62.25-1.21.68-1.65.44-.44 1.03-.68 1.65-.68h3V5.01h-3z" fill-rule="evenodd"/></symbol><symbol id="green-office-sm"><path d="M0 0v32h32V0H0zm2 28.43v-8.04h8.04L2 28.43zm9.61-6.78V30H3.26l8.35-8.35zM20.93 30h-7.32V19.65l7.32-7.32V30zm-8.89-11.61H2v-7.32h17.36l-7.32 7.32zM30 30h-7.07V9.07H2V2h28v28z"/></symbol><symbol id="instagram"><path d="M10.51 6.06c-1.18 0-2.32.47-3.15 1.31-.84.84-1.31 1.97-1.31 3.15v10.97c0 1.18.47 2.32 1.31 3.15.84.84 1.97 1.31 3.15 1.31h10.97c1.18 0 2.32-.47 3.15-1.31.84-.84 1.31-1.97 1.31-3.15V10.52c0-1.18-.47-2.32-1.31-3.15a4.451 4.451 0 00-3.15-1.31H10.51zM5.9 5.91A6.525 6.525 0 0110.51 4h10.97c1.73 0 3.38.69 4.61 1.91A6.525 6.525 0 0128 10.52v10.97c0 1.73-.69 3.38-1.91 4.61a6.525 6.525 0 01-4.61 1.91H10.51c-1.73 0-3.38-.69-4.61-1.91a6.525 6.525 0 01-1.91-4.61V10.52c0-1.73.69-3.38 1.91-4.61z" fill-rule="evenodd"/><path d="M12.36 12.36c.96-.96 2.27-1.51 3.64-1.51s2.67.54 3.64 1.51c.96.96 1.51 2.27 1.51 3.64s-.54 2.67-1.51 3.64c-.96.96-2.27 1.51-3.64 1.51s-2.67-.54-3.64-1.51c-.96-.96-1.51-2.27-1.51-3.64s.54-2.67 1.51-3.64zm3.64.55c-.82 0-1.6.33-2.18.9s-.9 1.36-.9 2.18.33 1.6.9 2.18c.58.58 1.36.9 2.18.9s1.6-.33 2.18-.9c.58-.58.9-1.36.9-2.18s-.33-1.6-.9-2.18c-.58-.58-1.36-.9-2.18-.9zM22.17 8.8c.57 0 1.03.46 1.03 1.03a1.03 1.03 0 11-2.06.01c0-.58.46-1.04 1.03-1.04z" fill-rule="evenodd"/></symbol><symbol id="linkedin"><path d="M7.77 6.06c-.45 0-.89.18-1.21.5-.32.32-.5.76-.5 1.21v16.46c0 .45.18.89.5 1.21.32.32.76.5 1.21.5h16.46c.45 0 .89-.18 1.21-.5.32-.32.5-.76.5-1.21V7.77c0-.45-.18-.89-.5-1.21-.32-.32-.76-.5-1.21-.5H7.77zM5.1 5.11c.71-.71 1.67-1.1 2.67-1.1h16.46c1 0 1.96.4 2.67 1.1.71.71 1.1 1.67 1.1 2.67v16.46c0 1-.4 1.96-1.1 2.67-.71.71-1.67 1.1-2.67 1.1H7.77c-1 0-1.96-.4-2.67-1.1-.71-.71-1.1-1.67-1.1-2.67V7.77c0-1 .4-1.96 1.1-2.67z" fill-rule="evenodd"/><path d="M10.51 13.6c.57 0 1.03.46 1.03 1.03v6.86c0 .57-.46 1.03-1.03 1.03s-1.03-.46-1.03-1.03v-6.86c0-.57.46-1.03 1.03-1.03zM10.51 9.49c.57 0 1.03.46 1.03 1.03a1.03 1.03 0 11-2.06.01c0-.58.46-1.04 1.03-1.04zM21.41 14.7c-.71-.71-1.67-1.1-2.67-1.1-.66 0-1.3.19-1.87.52-.18-.3-.49-.52-.87-.52-.57 0-1.03.46-1.03 1.03v6.86c0 .57.46 1.03 1.03 1.03s1.03-.46 1.03-1.03v-4.11c0-.45.18-.89.5-1.21s.76-.5 1.21-.5.89.18 1.21.5c.32.32.5.76.5 1.21v4.11c0 .57.46 1.03 1.03 1.03s1.03-.46 1.03-1.03v-4.11c0-1-.4-1.96-1.1-2.67z" fill-rule="evenodd"/></symbol><symbol id="mail"><path d="M28.98 9.15c-.05-.91-.41-1.77-1.06-2.41a3.655 3.655 0 00-2.59-1.07H6.67c-.97 0-1.91.39-2.59 1.07a3.68 3.68 0 00-1.06 2.4c0 .07-.02.13-.02.19v13.34c0 .97.39 1.9 1.07 2.59.69.69 1.62 1.07 2.59 1.07h18.68c.97 0 1.91-.39 2.59-1.07S29 23.64 29 22.67V9.33c0-.06-.01-.12-.02-.18h.01-.01zM6.65 7.66h18.68c.44 0 .87.18 1.18.49.2.2.33.44.41.7L16 16.13 5.08 8.85c.08-.26.21-.5.41-.7.31-.31.74-.49 1.18-.49h-.01zm19.86 16.19c-.31.31-.74.49-1.18.49H6.67c-.44 0-.87-.18-1.18-.49S5 23.11 5 22.67V11.21l10.45 6.96c.34.22.77.22 1.11 0l10.45-6.96v11.46c0 .44-.18.87-.49 1.18h-.02z"/></symbol><symbol id="map-pin"><path d="M12.46 10.81c.94-.94 2.21-1.46 3.54-1.46s2.6.53 3.54 1.46c.94.94 1.46 2.21 1.46 3.54s-.53 2.6-1.46 3.54c-.94.94-2.21 1.46-3.54 1.46s-2.6-.53-3.54-1.46c-.94-.94-1.46-2.21-1.46-3.54s.53-2.6 1.46-3.54zm3.54.54c-.8 0-1.56.32-2.12.88S13 13.56 13 14.35s.32 1.56.88 2.12 1.33.88 2.12.88 1.56-.32 2.12-.88.88-1.33.88-2.12-.32-1.56-.88-2.12-1.33-.88-2.12-.88z" fill-rule="evenodd"/><path d="M16 4.68c-1.91 0-3.78.57-5.37 1.63a9.627 9.627 0 00-3.56 4.34 9.72 9.72 0 00-.55 5.59c.37 1.88 1.29 3.6 2.65 4.95l5.66 5.66c.31.31.74.49 1.18.49s.87-.18 1.18-.49l5.66-5.66a9.714 9.714 0 002.65-4.95 9.72 9.72 0 00-.55-5.59 9.627 9.627 0 00-3.56-4.34 9.689 9.689 0 00-5.37-1.63zm-6.48-.03c1.92-1.28 4.17-1.97 6.48-1.97s4.56.68 6.48 1.97a11.666 11.666 0 011.77 17.95l-5.66 5.66c-.69.69-1.62 1.07-2.59 1.07s-1.9-.39-2.59-1.07L7.75 22.6A11.668 11.668 0 019.52 4.65z" fill-rule="evenodd"/></symbol><symbol id="pattern"><path d="M65.42 0H0v128h128V0H65.42zm60.16 63H92.92V30.34L125.58 63zm-34.66 0H65V2.42l25.92 25.92V63zM1 1h62v62H1V1zm62 124.58l-25.7-25.7V65H63v60.58zM2.42 65H35.3v32.88L2.42 65zm31.46 34.3H1V66.42L33.88 99.3zM1 127v-25.7h34.88l25.7 25.7H1zm126 0H65V65h62v62zM94.34 28.92H127v32.66L94.34 28.92zm-2-2L66.42 1H127v25.92H92.34z"/></symbol><symbol id="phone"><path d="M7.22 5.53c-.45 0-.88.18-1.19.49-.31.31-.49.73-.49 1.17a20.56 20.56 0 006 13.29 20.66 20.66 0 0013.29 6c.44 0 .86-.18 1.17-.49.32-.32.49-.75.49-1.19v-4.72l-5.32-2.13-1.58 2.64c-.27.45-.84.62-1.32.39a15.924 15.924 0 01-7.22-7.22c-.23-.47-.06-1.05.39-1.32l2.64-1.58-2.13-5.32H7.23zm-2.63-.94c.7-.7 1.64-1.09 2.63-1.09h5.41c.41 0 .79.25.94.64l2.7 6.76c.18.46 0 .99-.42 1.25l-2.55 1.53c1.21 2.09 2.95 3.82 5.04 5.04l1.53-2.55c.26-.43.78-.6 1.25-.42l6.76 2.7c.38.15.64.53.64.94v5.41c0 .99-.39 1.93-1.09 2.63-.7.7-1.64 1.09-2.63 1.09h-.06A22.649 22.649 0 013.52 7.3v-.06c0-.99.39-1.93 1.09-2.63z" fill-rule="evenodd"/></symbol><symbol id="play"><path d="M5.49 4.44v7.11c0 .08.02.16.05.23.04.07.09.12.15.16s.13.06.2.06.14-.02.2-.07l5.2-3.56c.06-.04.11-.1.14-.16.03-.07.05-.14.05-.22s-.02-.15-.05-.22a.364.364 0 00-.14-.16l-5.2-3.56a.48.48 0 00-.2-.07.36.36 0 00-.2.06c-.06.04-.11.09-.15.16-.04.07-.05.15-.05.22z"/><path d="M8 0C3.58 0 0 3.58 0 8s3.58 8 8 8 8-3.58 8-8-3.58-8-8-8zm0 15c-3.87 0-7-3.13-7-7s3.13-7 7-7 7 3.13 7 7-3.13 7-7 7z" fill-rule="evenodd"/></symbol><symbol id="quote-left"><path d="M9.82 6.4c.08.11.14.22.17.35a1.027 1.027 0 01-.11.76c-.07.11-.16.21-.26.29-1.56 1.17-2.46 2.31-2.97 3.31.7-.18 1.45-.14 2.13.12.68.26 1.26.73 1.66 1.33.4.61.61 1.32.58 2.05a3.48 3.48 0 01-.71 2.01 3.44 3.44 0 01-1.75 1.22c-.69.22-1.44.21-2.13-.02-.69-.23-1.29-.66-1.73-1.25-.43-.59-.67-1.29-.68-2.02-.13-1.23.05-2.47.51-3.61.6-1.51 1.76-3.15 3.89-4.74a.95.95 0 01.35-.17 1.027 1.027 0 01.76.11c.11.07.21.16.29.26zm7.6-.2a.95.95 0 01.35-.17 1.027 1.027 0 01.76.11c.11.07.21.16.29.26.08.11.14.22.17.35a1.027 1.027 0 01-.11.76c-.07.11-.16.21-.26.29-1.56 1.17-2.46 2.31-2.97 3.31.7-.18 1.45-.14 2.13.12.68.26 1.26.73 1.66 1.33.4.61.61 1.32.58 2.05a3.48 3.48 0 01-.71 2.01 3.44 3.44 0 01-1.75 1.22c-.69.22-1.44.21-2.13-.02-.69-.23-1.29-.66-1.73-1.25-.43-.59-.67-1.29-.68-2.02-.13-1.23.05-2.47.51-3.61.6-1.51 1.76-3.15 3.89-4.74zM7.52 13c-.37 0-.73.14-1.01.39s-.45.59-.49.96v.16c0 .3.08.59.25.83.17.25.4.44.68.55a1.519 1.519 0 001.64-.33c.21-.21.35-.48.41-.77.06-.29.03-.59-.09-.87-.11-.27-.31-.51-.55-.67-.25-.16-.54-.25-.83-.25zm9 0c-.37 0-.73.14-1.01.39s-.45.59-.49.96v.16c0 .3.08.59.25.83.17.25.4.44.68.55a1.519 1.519 0 001.64-.33c.21-.21.35-.48.41-.77.06-.29.03-.59-.09-.87-.11-.27-.31-.51-.55-.67-.25-.16-.54-.25-.83-.25z" fill-rule="evenodd"/></symbol><symbol id="quote-right"><path d="M16.48 6c.92 0 1.8.36 2.45 1 .65.64 1.03 1.52 1.05 2.44.09.86.08 2.14-.51 3.61-.6 1.51-1.76 3.15-3.89 4.74a.95.95 0 01-.35.17c-.13.03-.26.04-.39.02-.26-.04-.5-.18-.66-.39a.982.982 0 01-.19-.74c.04-.26.18-.5.39-.66 1.56-1.17 2.46-2.31 2.97-3.31a3.516 3.516 0 01-3.02-.62c-.43-.33-.76-.75-1-1.23s-.36-1.01-.36-1.54c0-.93.37-1.82 1.03-2.47.66-.66 1.55-1.03 2.47-1.03zm-9 0c.92 0 1.8.36 2.45 1 .65.64 1.03 1.52 1.05 2.44.09.86.08 2.14-.51 3.61-.6 1.51-1.76 3.15-3.89 4.74-.11.08-.22.14-.35.17s-.26.04-.39.02c-.26-.04-.5-.18-.66-.39a.982.982 0 01-.19-.74c.04-.26.18-.5.39-.66 1.56-1.17 2.46-2.31 2.97-3.31-.52.13-1.06.14-1.58.04-.52-.11-1.01-.33-1.44-.66a3.62 3.62 0 01-1-1.23c-.24-.48-.36-1.01-.36-1.54 0-.93.37-1.82 1.03-2.47.66-.66 1.55-1.03 2.47-1.03zm9 2c-.29 0-.57.08-.82.24-.24.16-.44.38-.55.65a1.5 1.5 0 00.26 1.62c.19.22.45.37.73.44.28.07.58.07.85-.02.28-.09.52-.26.7-.48.18-.23.29-.5.32-.79V9.5c0-.4-.15-.78-.43-1.05-.28-.28-.66-.44-1.06-.44zm-9 0c-.29 0-.57.08-.82.24-.24.16-.44.38-.55.65a1.5 1.5 0 00.26 1.62c.19.22.45.37.73.44.28.07.58.07.85-.02.28-.09.52-.26.7-.48.18-.23.29-.5.32-.79V9.5c0-.4-.15-.78-.43-1.05-.28-.28-.66-.44-1.06-.44z" fill-rule="evenodd"/></symbol><symbol id="video"><path d="M20 0c11.05 0 20 8.95 20 20s-8.95 20-20 20S0 31.05 0 20 8.95 0 20 0z"/><path d="M26.5 19.13c.67.38.67 1.35 0 1.73l-9 5.2c-.67.38-1.5-.1-1.5-.87V14.8c0-.77.83-1.25 1.5-.87l9 5.2z" fill="#fdfdfd"/></symbol><symbol id="youtube"><path d="M8 6.33c-1.15 0-2.25.46-3.06 1.27a4.33 4.33 0 00-1.27 3.06v10.67c0 1.15.46 2.25 1.27 3.06A4.33 4.33 0 008 25.66h16c1.15 0 2.25-.46 3.06-1.27a4.33 4.33 0 001.27-3.06V10.66c0-1.15-.46-2.25-1.27-3.06A4.33 4.33 0 0024 6.33H8zm-4.48-.15A6.326 6.326 0 018 4.33h16c1.68 0 3.29.67 4.48 1.85a6.336 6.336 0 011.86 4.48v10.67A6.336 6.336 0 0124 27.66H8c-1.68 0-3.29-.67-4.48-1.85a6.326 6.326 0 01-1.85-4.48V10.66c0-1.68.67-3.29 1.85-4.48z" fill-rule="evenodd"/><path d="M12.84 11.13c.31-.18.7-.17 1.01.01l6.67 4c.3.18.49.51.49.86s-.18.68-.49.86l-6.67 4c-.31.19-.69.19-1.01.01-.31-.18-.51-.51-.51-.87v-8c0-.36.19-.69.51-.87zm1.49 2.64v4.47l3.72-2.23-3.72-2.23z" fill-rule="evenodd"/></symbol></svg>