<svg xmlns="http://www.w3.org/2000/svg" width="32" height="32" viewBox="0 0 32 32"><path d="m13.91,5.25c1.44-1.44,3.39-2.25,5.42-2.25h4c.55,0,1,.45,1,1v5.33c0,.55-.45,1-1,1h-4c-.09,0-.17.04-.24.1s-.1.15-.1.24v1.67h4.33c.31,0,.6.14.79.38.19.24.26.56.18.86l-1.33,5.33c-.11.45-.51.76-.97.76h-3v8.33c0,.55-.45,1-1,1h-5.33c-.55,0-1-.45-1-1v-8.33h-3c-.55,0-1-.45-1-1v-5.33c0-.55.45-1,1-1h3v-1.67c0-2.03.81-3.98,2.25-5.42Zm5.42-.25c-1.5,0-2.94.6-4.01,1.66-1.06,1.06-1.66,2.5-1.66,4.01v2.67c0,.55-.45,1-1,1h-3v3.33h3c.55,0,1,.45,1,1v8.33h3.33v-8.33c0-.55.45-1,1-1h3.22l.83-3.33h-4.05c-.55,0-1-.45-1-1v-2.67c0-.62.25-1.21.68-1.65.44-.44,1.03-.68,1.65-.68h3v-3.33h-3Z" fill-rule="evenodd"/></svg>