<svg xmlns="http://www.w3.org/2000/svg" width="32" height="32" viewBox="0 0 32 32"><path d="m10.51,6.06c-1.18,0-2.32.47-3.15,1.31-.84.84-1.31,1.97-1.31,3.15v10.97c0,1.18.47,2.32,1.31,3.15.84.84,1.97,1.31,3.15,1.31h10.97c1.18,0,2.32-.47,3.15-1.31.84-.84,1.31-1.97,1.31-3.15v-10.97c0-1.18-.47-2.32-1.31-3.15-.84-.84-1.97-1.31-3.15-1.31h-10.97Zm-4.61-.15c1.22-1.22,2.88-1.91,4.61-1.91h10.97c1.73,0,3.38.69,4.61,1.91,1.22,1.22,1.91,2.88,1.91,4.61v10.97c0,1.73-.69,3.38-1.91,4.61-1.22,1.22-2.88,1.91-4.61,1.91h-10.97c-1.73,0-3.38-.69-4.61-1.91-1.22-1.22-1.91-2.88-1.91-4.61v-10.97c0-1.73.69-3.38,1.91-4.61Z" fill-rule="evenodd"/><path d="m12.36,12.36c.96-.96,2.27-1.51,3.64-1.51s2.67.54,3.64,1.51c.96.96,1.51,2.27,1.51,3.64s-.54,2.67-1.51,3.64c-.96.96-2.27,1.51-3.64,1.51s-2.67-.54-3.64-1.51c-.96-.96-1.51-2.27-1.51-3.64s.54-2.67,1.51-3.64Zm3.64.55c-.82,0-1.6.33-2.18.9s-.9,1.36-.9,2.18.33,1.6.9,2.18c.58.58,1.36.9,2.18.9s1.6-.33,2.18-.9c.58-.58.9-1.36.9-2.18s-.33-1.6-.9-2.18c-.58-.58-1.36-.9-2.18-.9Z" fill-rule="evenodd"/><path d="m22.17,8.8c.57,0,1.03.46,1.03,1.03h0c0,.58-.46,1.04-1.03,1.04s-1.03-.46-1.03-1.03h0c0-.58.46-1.04,1.03-1.04Z" fill-rule="evenodd"/></svg>