<svg xmlns="http://www.w3.org/2000/svg" width="32" height="32" viewBox="0 0 32 32"><path d="m7.77,6.06c-.45,0-.89.18-1.21.5-.32.32-.5.76-.5,1.21v16.46c0,.45.18.89.5,1.21.32.32.76.5,1.21.5h16.46c.45,0,.89-.18,1.21-.5.32-.32.5-.76.5-1.21V7.77c0-.45-.18-.89-.5-1.21-.32-.32-.76-.5-1.21-.5H7.77Zm-2.67-.95c.71-.71,1.67-1.1,2.67-1.1h16.46c1,0,1.96.4,2.67,1.1.71.71,1.1,1.67,1.1,2.67v16.46c0,1-.4,1.96-1.1,2.67-.71.71-1.67,1.1-2.67,1.1H7.77c-1,0-1.96-.4-2.67-1.1-.71-.71-1.1-1.67-1.1-2.67V7.77c0-1,.4-1.96,1.1-2.67Z" fill-rule="evenodd"/><path d="m10.51,13.6c.57,0,1.03.46,1.03,1.03v6.86c0,.57-.46,1.03-1.03,1.03s-1.03-.46-1.03-1.03v-6.86c0-.57.46-1.03,1.03-1.03Z" fill-rule="evenodd"/><path d="m10.51,9.49c.57,0,1.03.46,1.03,1.03h0c0,.58-.46,1.04-1.03,1.04s-1.03-.46-1.03-1.03h0c0-.58.46-1.04,1.03-1.04Z" fill-rule="evenodd"/><path d="m21.41,14.7c-.71-.71-1.67-1.1-2.67-1.1-.66,0-1.3.19-1.87.52-.18-.3-.49-.52-.87-.52-.57,0-1.03.46-1.03,1.03v6.86c0,.57.46,1.03,1.03,1.03s1.03-.46,1.03-1.03v-4.11c0-.45.18-.89.5-1.21s.76-.5,1.21-.5.89.18,1.21.5c.32.32.5.76.5,1.21v4.11c0,.57.46,1.03,1.03,1.03s1.03-.46,1.03-1.03v-4.11c0-1-.4-1.96-1.1-2.67Z" fill-rule="evenodd"/></svg>