<svg xmlns="http://www.w3.org/2000/svg" width="32" height="32" viewBox="0 0 32 32"><path d="m28.98,9.15h0c-.05-.91-.41-1.77-1.06-2.41-.69-.69-1.62-1.07-2.59-1.07H6.67c-.97,0-1.91.39-2.59,1.07-.64.64-1.01,1.5-1.06,2.4h0c0,.07-.02.13-.02.19v13.34c0,.97.39,1.9,1.07,2.59.69.69,1.62,1.07,2.59,1.07h18.68c.97,0,1.91-.39,2.59-1.07s1.07-1.62,1.07-2.59v-13.34c0-.06-.01-.12-.02-.18h.01-.01Zm-22.33-1.49h18.68c.44,0,.87.18,1.18.49.2.2.33.44.41.7l-10.92,7.28-10.92-7.28c.08-.26.21-.5.41-.7.31-.31.74-.49,1.18-.49h-.01Zm19.86,16.19c-.31.31-.74.49-1.18.49H6.67c-.44,0-.87-.18-1.18-.49s-.49-.74-.49-1.18v-11.46l10.45,6.96c.34.22.77.22,1.11,0l10.45-6.96v11.46c0,.44-.18.87-.49,1.18h-.02Z"/></svg>