<svg xmlns="http://www.w3.org/2000/svg" width="32" height="32" viewBox="0 0 32 32"><path d="m12.46,10.81c.94-.94,2.21-1.46,3.54-1.46s2.6.53,3.54,1.46c.94.94,1.46,2.21,1.46,3.54s-.53,2.6-1.46,3.54c-.94.94-2.21,1.46-3.54,1.46s-2.6-.53-3.54-1.46c-.94-.94-1.46-2.21-1.46-3.54s.53-2.6,1.46-3.54Zm3.54.54c-.8,0-1.56.32-2.12.88-.56.56-.88,1.33-.88,2.12s.32,1.56.88,2.12,1.33.88,2.12.88,1.56-.32,2.12-.88c.56-.56.88-1.33.88-2.12s-.32-1.56-.88-2.12c-.56-.56-1.33-.88-2.12-.88Z" fill-rule="evenodd"/><path d="m16,4.68c-1.91,0-3.78.57-5.37,1.63-1.59,1.06-2.83,2.57-3.56,4.34-.73,1.77-.92,3.71-.55,5.59.37,1.88,1.29,3.6,2.65,4.95l5.66,5.66c.31.31.74.49,1.18.49s.87-.18,1.18-.49l5.66-5.66s0,0,0,0c1.35-1.35,2.27-3.07,2.65-4.95.37-1.88.18-3.82-.55-5.59-.73-1.77-1.97-3.28-3.56-4.34-1.59-1.06-3.46-1.63-5.37-1.63Zm-6.48-.03c1.92-1.28,4.17-1.97,6.48-1.97s4.56.68,6.48,1.97c1.92,1.28,3.41,3.1,4.3,5.24.88,2.13,1.11,4.48.66,6.74s-1.56,4.34-3.19,5.97l-5.66,5.66c-.69.69-1.62,1.07-2.59,1.07s-1.9-.39-2.59-1.07l-5.66-5.66c-1.63-1.63-2.74-3.71-3.19-5.97-.45-2.26-.22-4.61.66-6.74.88-2.13,2.38-3.95,4.3-5.24Z" fill-rule="evenodd"/></svg>