<svg xmlns="http://www.w3.org/2000/svg" width="32" height="32" viewBox="0 0 32 32"><path d="m7.22,5.53c-.45,0-.88.18-1.19.49-.31.31-.49.73-.49,1.17.31,5.01,2.44,9.74,6,13.29,3.55,3.55,8.28,5.68,13.29,6,.44,0,.86-.18,1.17-.49.32-.32.49-.75.49-1.19v-4.72l-5.32-2.13-1.58,2.64c-.27.45-.84.62-1.32.39-3.13-1.55-5.67-4.08-7.22-7.22-.23-.47-.06-1.05.39-1.32l2.64-1.58-2.13-5.32h-4.72Zm-2.63-.94c.7-.7,1.64-1.09,2.63-1.09h5.41c.41,0,.79.25.94.64l2.7,6.76c.18.46,0,.99-.42,1.25l-2.55,1.53c1.21,2.09,2.95,3.82,5.04,5.04l1.53-2.55c.26-.43.78-.6,1.25-.42l6.76,2.7c.38.15.64.53.64.94v5.41c0,.99-.39,1.93-1.09,2.63-.7.7-1.64,1.09-2.63,1.09-.02,0-.04,0-.06,0-5.52-.34-10.72-2.68-14.63-6.59-3.91-3.91-6.25-9.11-6.59-14.63,0-.02,0-.04,0-.06,0-.99.39-1.93,1.09-2.63Z" fill-rule="evenodd"/></svg>