<svg xmlns="http://www.w3.org/2000/svg" width="16" height="16" viewBox="0 0 16 16"><path d="m5.49,4.44v7.11c0,.08.02.16.05.23.04.07.09.12.15.16s.13.06.2.06c.07,0,.14-.02.2-.07l5.2-3.56c.06-.04.11-.1.14-.16.03-.07.05-.14.05-.22s-.02-.15-.05-.22c-.03-.07-.08-.12-.14-.16l-5.2-3.56c-.06-.04-.13-.06-.2-.07-.07,0-.14.02-.2.06-.06.04-.11.09-.15.16-.04.07-.05.15-.05.22Z"/><path d="m8,0C3.58,0,0,3.58,0,8s3.58,8,8,8,8-3.58,8-8S12.42,0,8,0Zm0,15c-3.87,0-7-3.13-7-7S4.13,1,8,1s7,3.13,7,7-3.13,7-7,7Z" fill-rule="evenodd"/></svg>