<svg xmlns="http://www.w3.org/2000/svg" width="32" height="32" viewBox="0 0 32 32"><path d="m8,6.33c-1.15,0-2.25.46-3.06,1.27-.81.81-1.27,1.91-1.27,3.06v10.67c0,1.15.46,2.25,1.27,3.06.81.81,1.91,1.27,3.06,1.27h16c1.15,0,2.25-.46,3.06-1.27.81-.81,1.27-1.91,1.27-3.06v-10.67c0-1.15-.46-2.25-1.27-3.06-.81-.81-1.91-1.27-3.06-1.27H8Zm-4.48-.15c1.19-1.19,2.8-1.85,4.48-1.85h16c1.68,0,3.29.67,4.48,1.85,1.19,1.19,1.86,2.8,1.86,4.48v10.67c0,1.68-.67,3.29-1.86,4.48-1.19,1.19-2.8,1.85-4.48,1.85H8c-1.68,0-3.29-.67-4.48-1.85-1.19-1.19-1.85-2.8-1.85-4.48v-10.67c0-1.68.67-3.29,1.85-4.48Z" fill-rule="evenodd"/><path d="m12.84,11.13c.31-.18.7-.17,1.01.01l6.67,4c.3.18.49.51.49.86s-.18.68-.49.86l-6.67,4c-.31.19-.69.19-1.01.01-.31-.18-.51-.51-.51-.87v-8c0-.36.19-.69.51-.87Zm1.49,2.64v4.47l3.72-2.23-3.72-2.23Z" fill-rule="evenodd"/></svg>