<svg xmlns="http://www.w3.org/2000/svg" width="164" height="64" viewBox="0 0 164 64"><path d="m30.23,62.77v-9.93H0v-10.64L25.37,1.23h19.18v39.38h6.54v12.22h-6.54v9.93h-14.32Zm-15.91-22.15h15.91V15.91h-1.24l-14.67,23.47v1.23Zm67.91,23.38c-16.18,0-26.52-12.4-26.52-32S66.06,0,82.23,0s26.69,12.4,26.69,32-10.34,32-26.69,32Zm0-13.54c7.16,0,11.14-6.68,11.14-18.46s-3.98-18.46-11.14-18.46-11.14,6.68-11.14,18.46,4.07,18.46,11.14,18.46Zm60.91,12.31v-9.93h-30.23v-10.64L138.28,1.23h19.18v39.38h6.54v12.22h-6.54v9.93h-14.32Zm-15.91-22.15h15.91V15.91h-1.24l-14.67,23.47v1.23Z" fill="#003d35"/></svg>